<?xml version="1.0" encoding="UTF-8" standalone="no"?>
<!DOCTYPE svg PUBLIC "-//W3C//DTD SVG 1.1//EN"
 "http://www.w3.org/Graphics/SVG/1.1/DTD/svg11.dtd">
<!-- Generated by graphviz version 2.43.0 (0)
 -->
<!-- Title: PoissonTester&lt; Integral &gt; Pages: 1 -->
<svg width="169pt" height="84pt"
 viewBox="0.00 0.00 169.00 84.00" xmlns="http://www.w3.org/2000/svg" xmlns:xlink="http://www.w3.org/1999/xlink">
<g id="graph0" class="graph" transform="scale(1 1) rotate(0) translate(4 80)">
<title>PoissonTester&lt; Integral &gt;</title>
<!-- Node1 -->
<g id="node1" class="node">
<title>Node1</title>
<g id="a_node1"><a xlink:title=" ">
<polygon fill="#bfbfbf" stroke="black" points="0,-0.5 0,-19.5 143,-19.5 143,-0.5 0,-0.5"/>
<text text-anchor="middle" x="71.5" y="-7.5" font-family="Helvetica,sans-Serif" font-size="10.00">PoissonTester&lt; Integral &gt;</text>
</a>
</g>
</g>
<!-- Node2 -->
<g id="node2" class="node">
<title>Node2</title>
<g id="a_node2"><a xlink:title=" ">
<polygon fill="none" stroke="#bfbfbf" points="11.5,-56.5 11.5,-75.5 47.5,-75.5 47.5,-56.5 11.5,-56.5"/>
<text text-anchor="middle" x="29.5" y="-63.5" font-family="Helvetica,sans-Serif" font-size="10.00">Test</text>
</a>
</g>
</g>
<!-- Node2&#45;&gt;Node1 -->
<g id="edge1" class="edge">
<title>Node2&#45;&gt;Node1</title>
<path fill="none" stroke="midnightblue" d="M42.61,-48.14C49.93,-38.74 58.74,-27.4 64.69,-19.75"/>
<polygon fill="midnightblue" stroke="midnightblue" points="39.81,-46.04 36.44,-56.08 45.34,-50.34 39.81,-46.04"/>
</g>
<!-- Node3 -->
<g id="node3" class="node">
<title>Node3</title>
<g id="a_node3"><a xlink:href="class_poisson.html" target="_top" xlink:title=" ">
<polygon fill="none" stroke="black" points="66,-56.5 66,-75.5 161,-75.5 161,-56.5 66,-56.5"/>
<text text-anchor="middle" x="113.5" y="-63.5" font-family="Helvetica,sans-Serif" font-size="10.00">Poisson&lt; dim &gt;</text>
</a>
</g>
</g>
<!-- Node3&#45;&gt;Node1 -->
<g id="edge2" class="edge">
<title>Node3&#45;&gt;Node1</title>
<path fill="none" stroke="midnightblue" d="M100.39,-48.14C93.07,-38.74 84.26,-27.4 78.31,-19.75"/>
<polygon fill="midnightblue" stroke="midnightblue" points="97.66,-50.34 106.56,-56.08 103.19,-46.04 97.66,-50.34"/>
</g>
</g>
</svg>
