<?xml version="1.0" encoding="UTF-8" standalone="no"?>
<!DOCTYPE svg PUBLIC "-//W3C//DTD SVG 1.1//EN"
 "http://www.w3.org/Graphics/SVG/1.1/DTD/svg11.dtd">
<!-- Generated by graphviz version 2.43.0 (0)
 -->
<!-- Title: labs/lab&#45;04 Pages: 1 -->
<svg width="254pt" height="183pt"
 viewBox="0.00 0.00 254.00 183.00" xmlns="http://www.w3.org/2000/svg" xmlns:xlink="http://www.w3.org/1999/xlink">
<g id="graph0" class="graph" transform="scale(1 1) rotate(0) translate(4 179)">
<title>labs/lab&#45;04</title>
<g id="clust1" class="cluster">
<title>clusterdir_bebd83aaf8d4023a6199a571c3b06b14</title>
<g id="a_clust1"><a xlink:href="dir_bebd83aaf8d4023a6199a571c3b06b14.html" target="_top" xlink:title="labs">
<polygon fill="#ddddee" stroke="black" points="8,-8 8,-167 238,-167 238,-8 8,-8"/>
<text text-anchor="middle" x="123" y="-155" font-family="Helvetica,sans-Serif" font-size="10.00">labs</text>
</a>
</g>
</g>
<g id="clust2" class="cluster">
<title>clusterdir_cbe393866d1784931ce96f16603ce05d</title>
<g id="a_clust2"><a xlink:href="dir_cbe393866d1784931ce96f16603ce05d.html" target="_top">
<polygon fill="#eeeeff" stroke="black" points="16,-16 16,-140 230,-140 230,-16 16,-16"/>
</a>
</g>
</g>
<!-- dir_cbe393866d1784931ce96f16603ce05d -->
<g id="node1" class="node">
<title>dir_cbe393866d1784931ce96f16603ce05d</title>
<text text-anchor="middle" x="195" y="-111.5" font-family="Helvetica,sans-Serif" font-size="10.00">lab&#45;04</text>
</g>
<!-- dir_c5633c73d438e18f94d4398b6e5d9df0 -->
<g id="node2" class="node">
<title>dir_c5633c73d438e18f94d4398b6e5d9df0</title>
<g id="a_node2"><a xlink:href="dir_c5633c73d438e18f94d4398b6e5d9df0.html" target="_top" xlink:title="include">
<polygon fill="white" stroke="black" points="114,-60 60,-60 60,-24 114,-24 114,-60"/>
<text text-anchor="middle" x="87" y="-39.5" font-family="Helvetica,sans-Serif" font-size="10.00">include</text>
</a>
</g>
</g>
<!-- dir_a9f29f7c5c1ca187ce9dd194c7f45313 -->
<g id="node3" class="node">
<title>dir_a9f29f7c5c1ca187ce9dd194c7f45313</title>
<g id="a_node3"><a xlink:href="dir_a9f29f7c5c1ca187ce9dd194c7f45313.html" target="_top" xlink:title="source">
<polygon fill="white" stroke="black" points="150,-132 96,-132 96,-96 150,-96 150,-132"/>
<text text-anchor="middle" x="123" y="-111.5" font-family="Helvetica,sans-Serif" font-size="10.00">source</text>
</a>
</g>
</g>
<!-- dir_a9f29f7c5c1ca187ce9dd194c7f45313&#45;&gt;dir_c5633c73d438e18f94d4398b6e5d9df0 -->
<g id="edge2" class="edge">
<title>dir_a9f29f7c5c1ca187ce9dd194c7f45313&#45;&gt;dir_c5633c73d438e18f94d4398b6e5d9df0</title>
<path fill="none" stroke="black" d="M114.1,-95.7C110,-87.73 105.05,-78.1 100.51,-69.26"/>
<polygon fill="black" stroke="black" points="103.48,-67.4 95.8,-60.1 97.26,-70.6 103.48,-67.4"/>
<g id="a_edge2&#45;headlabel"><a xlink:href="dir_000008_000011.html" target="_top" xlink:title="2">
<text text-anchor="middle" x="107.65" y="-66.79" font-family="Helvetica,sans-Serif" font-size="10.00">2</text>
</a>
</g>
</g>
<!-- dir_d9b7eeb792debf0509463b9cf5267bf4 -->
<g id="node4" class="node">
<title>dir_d9b7eeb792debf0509463b9cf5267bf4</title>
<g id="a_node4"><a xlink:href="dir_d9b7eeb792debf0509463b9cf5267bf4.html" target="_top" xlink:title="tests">
<polygon fill="white" stroke="black" points="78,-132 24,-132 24,-96 78,-96 78,-132"/>
<text text-anchor="middle" x="51" y="-111.5" font-family="Helvetica,sans-Serif" font-size="10.00">tests</text>
</a>
</g>
</g>
<!-- dir_d9b7eeb792debf0509463b9cf5267bf4&#45;&gt;dir_c5633c73d438e18f94d4398b6e5d9df0 -->
<g id="edge1" class="edge">
<title>dir_d9b7eeb792debf0509463b9cf5267bf4&#45;&gt;dir_c5633c73d438e18f94d4398b6e5d9df0</title>
<path fill="none" stroke="black" d="M59.9,-95.7C64,-87.73 68.95,-78.1 73.49,-69.26"/>
<polygon fill="black" stroke="black" points="76.74,-70.6 78.2,-60.1 70.52,-67.4 76.74,-70.6"/>
<g id="a_edge1&#45;headlabel"><a xlink:href="dir_000010_000011.html" target="_top" xlink:title="1">
<text text-anchor="middle" x="77.62" y="-72.59" font-family="Helvetica,sans-Serif" font-size="10.00">1</text>
</a>
</g>
</g>
</g>
</svg>
