<?xml version="1.0" encoding="UTF-8" standalone="no"?>
<!DOCTYPE svg PUBLIC "-//W3C//DTD SVG 1.1//EN"
 "http://www.w3.org/Graphics/SVG/1.1/DTD/svg11.dtd">
<!-- Generated by graphviz version 2.43.0 (0)
 -->
<!-- Title: Graphical Class Hierarchy Pages: 1 -->
<svg width="452pt" height="88pt"
 viewBox="0.00 0.00 452.00 88.00" xmlns="http://www.w3.org/2000/svg" xmlns:xlink="http://www.w3.org/1999/xlink">
<g id="graph0" class="graph" transform="scale(1 1) rotate(0) translate(4 84)">
<title>Graphical Class Hierarchy</title>
<!-- Node11 -->
<g id="node1" class="node">
<title>Node11</title>
<g id="a_node1"><a xlink:href="http://www.dealii.org/developer/doxygen/deal.II/classFunctionTime.html" xlink:title=" ">
<polygon fill="none" stroke="black" points="0,-38.5 0,-79.5 136,-79.5 136,-38.5 0,-38.5"/>
<text text-anchor="start" x="8" y="-67.5" font-family="Helvetica,sans-Serif" font-size="10.00">FunctionTime&lt; numbers</text>
<text text-anchor="start" x="8" y="-56.5" font-family="Helvetica,sans-Serif" font-size="10.00">::NumberTraits&lt; double</text>
<text text-anchor="middle" x="68" y="-45.5" font-family="Helvetica,sans-Serif" font-size="10.00"> &gt;::real_type &gt;</text>
</a>
</g>
</g>
<!-- Node1 -->
<g id="node2" class="node">
<title>Node1</title>
<g id="a_node2"><a xlink:href="http://www.dealii.org/developer/doxygen/deal.II/classFunction.html" xlink:title=" ">
<polygon fill="none" stroke="black" points="172,-24.5 172,-43.5 271,-43.5 271,-24.5 172,-24.5"/>
<text text-anchor="middle" x="221.5" y="-31.5" font-family="Helvetica,sans-Serif" font-size="10.00">Function&lt; dim &gt;</text>
</a>
</g>
</g>
<!-- Node11&#45;&gt;Node1 -->
<g id="edge1" class="edge">
<title>Node11&#45;&gt;Node1</title>
<path fill="none" stroke="midnightblue" d="M146.23,-46.26C155,-44.81 163.75,-43.37 172,-42"/>
<polygon fill="midnightblue" stroke="midnightblue" points="145.63,-42.81 136.33,-47.89 146.77,-49.71 145.63,-42.81"/>
</g>
<!-- Node2 -->
<g id="node3" class="node">
<title>Node2</title>
<g id="a_node3"><a xlink:href="class_boundary_values.html" target="_top" xlink:title=" ">
<polygon fill="none" stroke="black" points="307,-43.5 307,-62.5 444,-62.5 444,-43.5 307,-43.5"/>
<text text-anchor="middle" x="375.5" y="-50.5" font-family="Helvetica,sans-Serif" font-size="10.00">BoundaryValues&lt; dim &gt;</text>
</a>
</g>
</g>
<!-- Node1&#45;&gt;Node2 -->
<g id="edge2" class="edge">
<title>Node1&#45;&gt;Node2</title>
<path fill="none" stroke="midnightblue" d="M281.09,-41.32C289.5,-42.37 298.21,-43.46 306.78,-44.53"/>
<polygon fill="midnightblue" stroke="midnightblue" points="281.37,-37.83 271.01,-40.06 280.5,-44.78 281.37,-37.83"/>
</g>
<!-- Node3 -->
<g id="node4" class="node">
<title>Node3</title>
<g id="a_node4"><a xlink:href="class_right_hand_side.html" target="_top" xlink:title=" ">
<polygon fill="none" stroke="black" points="310.5,-5.5 310.5,-24.5 440.5,-24.5 440.5,-5.5 310.5,-5.5"/>
<text text-anchor="middle" x="375.5" y="-12.5" font-family="Helvetica,sans-Serif" font-size="10.00">RightHandSide&lt; dim &gt;</text>
</a>
</g>
</g>
<!-- Node1&#45;&gt;Node3 -->
<g id="edge3" class="edge">
<title>Node1&#45;&gt;Node3</title>
<path fill="none" stroke="midnightblue" d="M281.19,-26.66C290.75,-25.47 300.68,-24.23 310.35,-23.02"/>
<polygon fill="midnightblue" stroke="midnightblue" points="280.5,-23.22 271.01,-27.94 281.37,-30.17 280.5,-23.22"/>
</g>
<!-- Node0 -->
<g id="node5" class="node">
<title>Node0</title>
<g id="a_node5"><a xlink:href="http://www.dealii.org/developer/doxygen/deal.II/classSubscriptor.html" xlink:title=" ">
<polygon fill="none" stroke="black" points="32.5,-0.5 32.5,-19.5 103.5,-19.5 103.5,-0.5 32.5,-0.5"/>
<text text-anchor="middle" x="68" y="-7.5" font-family="Helvetica,sans-Serif" font-size="10.00">Subscriptor</text>
</a>
</g>
</g>
<!-- Node0&#45;&gt;Node1 -->
<g id="edge4" class="edge">
<title>Node0&#45;&gt;Node1</title>
<path fill="none" stroke="midnightblue" d="M113.84,-17.1C132.09,-19.99 153.22,-23.34 171.84,-26.29"/>
<polygon fill="midnightblue" stroke="midnightblue" points="114.18,-13.61 103.76,-15.51 113.09,-20.53 114.18,-13.61"/>
</g>
</g>
</svg>
