<?xml version="1.0" encoding="UTF-8" standalone="no"?>
<!DOCTYPE svg PUBLIC "-//W3C//DTD SVG 1.1//EN"
 "http://www.w3.org/Graphics/SVG/1.1/DTD/svg11.dtd">
<!-- Generated by graphviz version 2.43.0 (0)
 -->
<!-- Title: Graphical Class Hierarchy Pages: 1 -->
<svg width="181pt" height="104pt"
 viewBox="0.00 0.00 181.00 104.00" xmlns="http://www.w3.org/2000/svg" xmlns:xlink="http://www.w3.org/1999/xlink">
<g id="graph0" class="graph" transform="scale(1 1) rotate(0) translate(4 100)">
<title>Graphical Class Hierarchy</title>
<!-- Node10 -->
<g id="node1" class="node">
<title>Node10</title>
<g id="a_node1"><a xlink:href="class_poisson.html" target="_top" xlink:title=" ">
<polygon fill="none" stroke="black" points="0,-76.5 0,-95.5 54,-95.5 54,-76.5 0,-76.5"/>
<text text-anchor="middle" x="27" y="-83.5" font-family="Helvetica,sans-Serif" font-size="10.00">Poisson</text>
</a>
</g>
</g>
<!-- Node0 -->
<g id="node2" class="node">
<title>Node0</title>
<g id="a_node2"><a xlink:href="class_poisson_tester.html" target="_top" xlink:title=" ">
<polygon fill="none" stroke="black" points="90,-57.5 90,-76.5 173,-76.5 173,-57.5 90,-57.5"/>
<text text-anchor="middle" x="131.5" y="-64.5" font-family="Helvetica,sans-Serif" font-size="10.00">PoissonTester</text>
</a>
</g>
</g>
<!-- Node10&#45;&gt;Node0 -->
<g id="edge1" class="edge">
<title>Node10&#45;&gt;Node0</title>
<path fill="none" stroke="midnightblue" d="M64.19,-79.29C72.44,-77.76 81.25,-76.13 89.67,-74.57"/>
<polygon fill="midnightblue" stroke="midnightblue" points="63.32,-75.89 54.13,-81.16 64.6,-82.78 63.32,-75.89"/>
</g>
<!-- Node9 -->
<g id="node3" class="node">
<title>Node9</title>
<g id="a_node3"><a xlink:href="class_step3.html" target="_top" xlink:title=" ">
<polygon fill="none" stroke="black" points="5,-0.5 5,-19.5 49,-19.5 49,-0.5 5,-0.5"/>
<text text-anchor="middle" x="27" y="-7.5" font-family="Helvetica,sans-Serif" font-size="10.00">Step3</text>
</a>
</g>
</g>
<!-- Node3 -->
<g id="node4" class="node">
<title>Node3</title>
<g id="a_node4"><a xlink:href="class_step3_tester.html" target="_top" xlink:title=" ">
<polygon fill="none" stroke="black" points="94.5,-10.5 94.5,-29.5 168.5,-29.5 168.5,-10.5 94.5,-10.5"/>
<text text-anchor="middle" x="131.5" y="-17.5" font-family="Helvetica,sans-Serif" font-size="10.00">Step3Tester</text>
</a>
</g>
</g>
<!-- Node9&#45;&gt;Node3 -->
<g id="edge2" class="edge">
<title>Node9&#45;&gt;Node3</title>
<path fill="none" stroke="midnightblue" d="M59.31,-13.06C70.38,-14.13 82.92,-15.36 94.35,-16.47"/>
<polygon fill="midnightblue" stroke="midnightblue" points="59.53,-9.56 49.24,-12.07 58.85,-16.53 59.53,-9.56"/>
</g>
<!-- Node1 -->
<g id="node5" class="node">
<title>Node1</title>
<g id="a_node5"><a xlink:title=" ">
<polygon fill="none" stroke="#bfbfbf" points="9,-38.5 9,-57.5 45,-57.5 45,-38.5 9,-38.5"/>
<text text-anchor="middle" x="27" y="-45.5" font-family="Helvetica,sans-Serif" font-size="10.00">Test</text>
</a>
</g>
</g>
<!-- Node1&#45;&gt;Node0 -->
<g id="edge3" class="edge">
<title>Node1&#45;&gt;Node0</title>
<path fill="none" stroke="midnightblue" d="M55.33,-53.07C65.96,-55.04 78.36,-57.34 89.99,-59.49"/>
<polygon fill="midnightblue" stroke="midnightblue" points="55.86,-49.6 45.39,-51.22 54.58,-56.49 55.86,-49.6"/>
</g>
<!-- Node1&#45;&gt;Node3 -->
<g id="edge4" class="edge">
<title>Node1&#45;&gt;Node3</title>
<path fill="none" stroke="midnightblue" d="M55.13,-40.59C67.53,-37.2 82.35,-33.15 95.57,-29.54"/>
<polygon fill="midnightblue" stroke="midnightblue" points="54.11,-37.24 45.39,-43.25 55.96,-43.99 54.11,-37.24"/>
</g>
</g>
</svg>
