<?xml version="1.0" encoding="UTF-8" standalone="no"?>
<!DOCTYPE svg PUBLIC "-//W3C//DTD SVG 1.1//EN"
 "http://www.w3.org/Graphics/SVG/1.1/DTD/svg11.dtd">
<!-- Generated by graphviz version 2.43.0 (0)
 -->
<!-- Title: Graphical Class Hierarchy Pages: 1 -->
<svg width="282pt" height="104pt"
 viewBox="0.00 0.00 282.00 104.00" xmlns="http://www.w3.org/2000/svg" xmlns:xlink="http://www.w3.org/1999/xlink">
<g id="graph0" class="graph" transform="scale(1 1) rotate(0) translate(4 100)">
<title>Graphical Class Hierarchy</title>
<!-- Node10 -->
<g id="node1" class="node">
<title>Node10</title>
<g id="a_node1"><a xlink:href="class_poisson.html" target="_top" xlink:title=" ">
<polygon fill="none" stroke="black" points="0,-76.5 0,-95.5 95,-95.5 95,-76.5 0,-76.5"/>
<text text-anchor="middle" x="47.5" y="-83.5" font-family="Helvetica,sans-Serif" font-size="10.00">Poisson&lt; dim &gt;</text>
</a>
</g>
</g>
<!-- Node0 -->
<g id="node2" class="node">
<title>Node0</title>
<g id="a_node2"><a xlink:href="class_poisson_tester.html" target="_top" xlink:title=" ">
<polygon fill="none" stroke="black" points="131,-57.5 131,-76.5 274,-76.5 274,-57.5 131,-57.5"/>
<text text-anchor="middle" x="202.5" y="-64.5" font-family="Helvetica,sans-Serif" font-size="10.00">PoissonTester&lt; Integral &gt;</text>
</a>
</g>
</g>
<!-- Node10&#45;&gt;Node0 -->
<g id="edge1" class="edge">
<title>Node10&#45;&gt;Node0</title>
<path fill="none" stroke="midnightblue" d="M105.22,-78.96C113.56,-77.92 122.24,-76.84 130.82,-75.78"/>
<polygon fill="midnightblue" stroke="midnightblue" points="104.73,-75.49 95.24,-80.2 105.59,-82.44 104.73,-75.49"/>
</g>
<!-- Node9 -->
<g id="node3" class="node">
<title>Node9</title>
<g id="a_node3"><a xlink:href="class_step3.html" target="_top" xlink:title=" ">
<polygon fill="none" stroke="black" points="25.5,-0.5 25.5,-19.5 69.5,-19.5 69.5,-0.5 25.5,-0.5"/>
<text text-anchor="middle" x="47.5" y="-7.5" font-family="Helvetica,sans-Serif" font-size="10.00">Step3</text>
</a>
</g>
</g>
<!-- Node3 -->
<g id="node4" class="node">
<title>Node3</title>
<g id="a_node4"><a xlink:href="class_step3_tester.html" target="_top" xlink:title=" ">
<polygon fill="none" stroke="black" points="165.5,-10.5 165.5,-29.5 239.5,-29.5 239.5,-10.5 165.5,-10.5"/>
<text text-anchor="middle" x="202.5" y="-17.5" font-family="Helvetica,sans-Serif" font-size="10.00">Step3Tester</text>
</a>
</g>
</g>
<!-- Node9&#45;&gt;Node3 -->
<g id="edge2" class="edge">
<title>Node9&#45;&gt;Node3</title>
<path fill="none" stroke="midnightblue" d="M79.76,-12.04C104.61,-13.67 139.39,-15.94 165.42,-17.64"/>
<polygon fill="midnightblue" stroke="midnightblue" points="79.98,-8.55 69.77,-11.39 79.52,-15.54 79.98,-8.55"/>
</g>
<!-- Node1 -->
<g id="node5" class="node">
<title>Node1</title>
<g id="a_node5"><a xlink:title=" ">
<polygon fill="none" stroke="#bfbfbf" points="29.5,-38.5 29.5,-57.5 65.5,-57.5 65.5,-38.5 29.5,-38.5"/>
<text text-anchor="middle" x="47.5" y="-45.5" font-family="Helvetica,sans-Serif" font-size="10.00">Test</text>
</a>
</g>
</g>
<!-- Node1&#45;&gt;Node0 -->
<g id="edge3" class="edge">
<title>Node1&#45;&gt;Node0</title>
<path fill="none" stroke="midnightblue" d="M76.09,-51.43C91.49,-53.34 111.45,-55.82 130.89,-58.23"/>
<polygon fill="midnightblue" stroke="midnightblue" points="76.11,-47.9 65.75,-50.14 75.25,-54.85 76.11,-47.9"/>
</g>
<!-- Node1&#45;&gt;Node3 -->
<g id="edge4" class="edge">
<title>Node1&#45;&gt;Node3</title>
<path fill="none" stroke="midnightblue" d="M75.66,-43.03C100.68,-38.45 137.99,-31.62 165.49,-26.59"/>
<polygon fill="midnightblue" stroke="midnightblue" points="74.96,-39.6 65.75,-44.84 76.22,-46.49 74.96,-39.6"/>
</g>
</g>
</svg>
