<?xml version="1.0" encoding="UTF-8" standalone="no"?>
<!DOCTYPE svg PUBLIC "-//W3C//DTD SVG 1.1//EN"
 "http://www.w3.org/Graphics/SVG/1.1/DTD/svg11.dtd">
<!-- Generated by graphviz version 2.43.0 (0)
 -->
<!-- Title: labs/lab&#45;04/source/main.cc Pages: 1 -->
<svg width="2516pt" height="162pt"
 viewBox="0.00 0.00 2515.50 162.00" xmlns="http://www.w3.org/2000/svg" xmlns:xlink="http://www.w3.org/1999/xlink">
<g id="graph0" class="graph" transform="scale(1 1) rotate(0) translate(4 158)">
<title>labs/lab&#45;04/source/main.cc</title>
<!-- Node1 -->
<g id="node1" class="node">
<title>Node1</title>
<g id="a_node1"><a xlink:title=" ">
<polygon fill="#bfbfbf" stroke="black" points="1268.5,-123.5 1268.5,-153.5 1374.5,-153.5 1374.5,-123.5 1268.5,-123.5"/>
<text text-anchor="start" x="1276.5" y="-141.5" font-family="Helvetica,sans-Serif" font-size="10.00">labs/lab&#45;04/source</text>
<text text-anchor="middle" x="1321.5" y="-130.5" font-family="Helvetica,sans-Serif" font-size="10.00">/main.cc</text>
</a>
</g>
</g>
<!-- Node2 -->
<g id="node2" class="node">
<title>Node2</title>
<g id="a_node2"><a xlink:href="poisson_8h.html" target="_top" xlink:title=" ">
<polygon fill="none" stroke="black" points="1290,-67.5 1290,-86.5 1353,-86.5 1353,-67.5 1290,-67.5"/>
<text text-anchor="middle" x="1321.5" y="-74.5" font-family="Helvetica,sans-Serif" font-size="10.00">poisson.h</text>
</a>
</g>
</g>
<!-- Node1&#45;&gt;Node2 -->
<g id="edge1" class="edge">
<title>Node1&#45;&gt;Node2</title>
<path fill="none" stroke="midnightblue" d="M1321.5,-123.4C1321.5,-115.47 1321.5,-105.46 1321.5,-96.86"/>
<polygon fill="midnightblue" stroke="midnightblue" points="1325,-96.66 1321.5,-86.66 1318,-96.66 1325,-96.66"/>
</g>
<!-- Node3 -->
<g id="node3" class="node">
<title>Node3</title>
<g id="a_node3"><a xlink:href="http://www.dealii.org/developer/doxygen/deal.II/function_8h.html.html" xlink:title=" ">
<polygon fill="none" stroke="black" points="0,-6 0,-25 125,-25 125,-6 0,-6"/>
<text text-anchor="middle" x="62.5" y="-13" font-family="Helvetica,sans-Serif" font-size="10.00">deal.II/base/function.h</text>
</a>
</g>
</g>
<!-- Node2&#45;&gt;Node3 -->
<g id="edge2" class="edge">
<title>Node2&#45;&gt;Node3</title>
<path fill="none" stroke="midnightblue" d="M1289.82,-75.5C1125.27,-72.81 366.86,-59.06 133.5,-31 125.33,-30.02 116.7,-28.59 108.38,-27.01"/>
<polygon fill="midnightblue" stroke="midnightblue" points="108.92,-23.55 98.43,-25.03 107.56,-30.42 108.92,-23.55"/>
</g>
<!-- Node4 -->
<g id="node4" class="node">
<title>Node4</title>
<g id="a_node4"><a xlink:href="http://www.dealii.org/developer/doxygen/deal.II/quadrature__lib_8h.html.html" xlink:title=" ">
<polygon fill="none" stroke="black" points="143,-0.5 143,-30.5 272,-30.5 272,-0.5 143,-0.5"/>
<text text-anchor="start" x="151" y="-18.5" font-family="Helvetica,sans-Serif" font-size="10.00">deal.II/base/quadrature</text>
<text text-anchor="middle" x="207.5" y="-7.5" font-family="Helvetica,sans-Serif" font-size="10.00">_lib.h</text>
</a>
</g>
</g>
<!-- Node2&#45;&gt;Node4 -->
<g id="edge3" class="edge">
<title>Node2&#45;&gt;Node4</title>
<path fill="none" stroke="midnightblue" d="M1289.88,-76.36C1163.86,-77.43 685.25,-78.05 282.48,-30.98"/>
<polygon fill="midnightblue" stroke="midnightblue" points="282.73,-27.48 272.38,-29.79 281.91,-34.43 282.73,-27.48"/>
</g>
<!-- Node5 -->
<g id="node5" class="node">
<title>Node5</title>
<g id="a_node5"><a xlink:href="http://www.dealii.org/developer/doxygen/deal.II/dofs_2dof__handler_8h.html.html" xlink:title=" ">
<polygon fill="none" stroke="black" points="290.5,-6 290.5,-25 430.5,-25 430.5,-6 290.5,-6"/>
<text text-anchor="middle" x="360.5" y="-13" font-family="Helvetica,sans-Serif" font-size="10.00">deal.II/dofs/dof_handler.h</text>
</a>
</g>
</g>
<!-- Node2&#45;&gt;Node5 -->
<g id="edge4" class="edge">
<title>Node2&#45;&gt;Node5</title>
<path fill="none" stroke="midnightblue" d="M1289.73,-75.87C1174.86,-75.1 770.35,-69.64 439.5,-31 430.35,-29.93 420.65,-28.45 411.31,-26.83"/>
<polygon fill="midnightblue" stroke="midnightblue" points="411.81,-23.37 401.35,-25.05 410.57,-30.26 411.81,-23.37"/>
</g>
<!-- Node6 -->
<g id="node6" class="node">
<title>Node6</title>
<g id="a_node6"><a xlink:href="http://www.dealii.org/developer/doxygen/deal.II/dof__tools_8h.html.html" xlink:title=" ">
<polygon fill="none" stroke="black" points="448.5,-6 448.5,-25 576.5,-25 576.5,-6 448.5,-6"/>
<text text-anchor="middle" x="512.5" y="-13" font-family="Helvetica,sans-Serif" font-size="10.00">deal.II/dofs/dof_tools.h</text>
</a>
</g>
</g>
<!-- Node2&#45;&gt;Node6 -->
<g id="edge5" class="edge">
<title>Node2&#45;&gt;Node6</title>
<path fill="none" stroke="midnightblue" d="M1289.79,-75.59C1187.41,-73.93 856.56,-66.04 585.5,-31 577.3,-29.94 568.64,-28.5 560.26,-26.95"/>
<polygon fill="midnightblue" stroke="midnightblue" points="560.71,-23.47 550.23,-25 559.38,-30.34 560.71,-23.47"/>
</g>
<!-- Node7 -->
<g id="node7" class="node">
<title>Node7</title>
<g id="a_node7"><a xlink:href="http://www.dealii.org/developer/doxygen/deal.II/fe__q_8h.html.html" xlink:title=" ">
<polygon fill="none" stroke="black" points="594.5,-6 594.5,-25 686.5,-25 686.5,-6 594.5,-6"/>
<text text-anchor="middle" x="640.5" y="-13" font-family="Helvetica,sans-Serif" font-size="10.00">deal.II/fe/fe_q.h</text>
</a>
</g>
</g>
<!-- Node2&#45;&gt;Node7 -->
<g id="edge6" class="edge">
<title>Node2&#45;&gt;Node7</title>
<path fill="none" stroke="midnightblue" d="M1289.99,-75.8C1197.86,-74.77 921.22,-68.53 695.5,-31 690.02,-30.09 684.29,-28.88 678.69,-27.54"/>
<polygon fill="midnightblue" stroke="midnightblue" points="679.38,-24.11 668.83,-25.04 677.66,-30.89 679.38,-24.11"/>
</g>
<!-- Node8 -->
<g id="node8" class="node">
<title>Node8</title>
<g id="a_node8"><a xlink:href="http://www.dealii.org/developer/doxygen/deal.II/fe_2fe__values_8h.html.html" xlink:title=" ">
<polygon fill="none" stroke="black" points="705,-6 705,-25 824,-25 824,-6 705,-6"/>
<text text-anchor="middle" x="764.5" y="-13" font-family="Helvetica,sans-Serif" font-size="10.00">deal.II/fe/fe_values.h</text>
</a>
</g>
</g>
<!-- Node2&#45;&gt;Node8 -->
<g id="edge7" class="edge">
<title>Node2&#45;&gt;Node8</title>
<path fill="none" stroke="midnightblue" d="M1289.95,-74.35C1212.09,-70.02 1004.71,-56.8 833.5,-31 826.26,-29.91 818.64,-28.54 811.2,-27.07"/>
<polygon fill="midnightblue" stroke="midnightblue" points="811.74,-23.61 801.24,-25.04 810.34,-30.47 811.74,-23.61"/>
</g>
<!-- Node9 -->
<g id="node9" class="node">
<title>Node9</title>
<g id="a_node9"><a xlink:href="http://www.dealii.org/developer/doxygen/deal.II/grid__generator_8h.html.html" xlink:title=" ">
<polygon fill="none" stroke="black" points="842.5,-6 842.5,-25 994.5,-25 994.5,-6 842.5,-6"/>
<text text-anchor="middle" x="918.5" y="-13" font-family="Helvetica,sans-Serif" font-size="10.00">deal.II/grid/grid_generator.h</text>
</a>
</g>
</g>
<!-- Node2&#45;&gt;Node9 -->
<g id="edge8" class="edge">
<title>Node2&#45;&gt;Node9</title>
<path fill="none" stroke="midnightblue" d="M1289.86,-71.83C1232.64,-64.21 1108.17,-47.33 1003.5,-31 994.9,-29.66 985.83,-28.18 976.93,-26.69"/>
<polygon fill="midnightblue" stroke="midnightblue" points="977.45,-23.23 967.01,-25.02 976.29,-30.13 977.45,-23.23"/>
</g>
<!-- Node10 -->
<g id="node10" class="node">
<title>Node10</title>
<g id="a_node10"><a xlink:href="http://www.dealii.org/developer/doxygen/deal.II/grid_2tria_8h.html.html" xlink:title=" ">
<polygon fill="none" stroke="black" points="1013,-6 1013,-25 1110,-25 1110,-6 1013,-6"/>
<text text-anchor="middle" x="1061.5" y="-13" font-family="Helvetica,sans-Serif" font-size="10.00">deal.II/grid/tria.h</text>
</a>
</g>
</g>
<!-- Node2&#45;&gt;Node10 -->
<g id="edge9" class="edge">
<title>Node2&#45;&gt;Node10</title>
<path fill="none" stroke="midnightblue" d="M1289.95,-69.24C1250.15,-60.64 1179.64,-45.21 1119.5,-31 1114.76,-29.88 1109.81,-28.68 1104.89,-27.48"/>
<polygon fill="midnightblue" stroke="midnightblue" points="1105.44,-24.01 1094.89,-25 1103.76,-30.8 1105.44,-24.01"/>
</g>
<!-- Node11 -->
<g id="node11" class="node">
<title>Node11</title>
<g id="a_node11"><a xlink:href="http://www.dealii.org/developer/doxygen/deal.II/dynamic__sparsity__pattern_8h.html.html" xlink:title=" ">
<polygon fill="none" stroke="black" points="1128.5,-0.5 1128.5,-30.5 1238.5,-30.5 1238.5,-0.5 1128.5,-0.5"/>
<text text-anchor="start" x="1136.5" y="-18.5" font-family="Helvetica,sans-Serif" font-size="10.00">deal.II/lac/dynamic</text>
<text text-anchor="middle" x="1183.5" y="-7.5" font-family="Helvetica,sans-Serif" font-size="10.00">_sparsity_pattern.h</text>
</a>
</g>
</g>
<!-- Node2&#45;&gt;Node11 -->
<g id="edge10" class="edge">
<title>Node2&#45;&gt;Node11</title>
<path fill="none" stroke="midnightblue" d="M1301.73,-67.48C1281.9,-58.93 1250.76,-45.5 1225.42,-34.57"/>
<polygon fill="midnightblue" stroke="midnightblue" points="1226.59,-31.27 1216.02,-30.52 1223.82,-37.7 1226.59,-31.27"/>
</g>
<!-- Node12 -->
<g id="node12" class="node">
<title>Node12</title>
<g id="a_node12"><a xlink:href="http://www.dealii.org/developer/doxygen/deal.II/full__matrix_8h.html.html" xlink:title=" ">
<polygon fill="none" stroke="black" points="1257,-6 1257,-25 1386,-25 1386,-6 1257,-6"/>
<text text-anchor="middle" x="1321.5" y="-13" font-family="Helvetica,sans-Serif" font-size="10.00">deal.II/lac/full_matrix.h</text>
</a>
</g>
</g>
<!-- Node2&#45;&gt;Node12 -->
<g id="edge11" class="edge">
<title>Node2&#45;&gt;Node12</title>
<path fill="none" stroke="midnightblue" d="M1321.5,-67.48C1321.5,-59.08 1321.5,-45.98 1321.5,-35.16"/>
<polygon fill="midnightblue" stroke="midnightblue" points="1325,-35.01 1321.5,-25.01 1318,-35.01 1325,-35.01"/>
</g>
<!-- Node13 -->
<g id="node13" class="node">
<title>Node13</title>
<g id="a_node13"><a xlink:href="http://www.dealii.org/developer/doxygen/deal.II/precondition_8h.html.html" xlink:title=" ">
<polygon fill="none" stroke="black" points="1404,-6 1404,-25 1541,-25 1541,-6 1404,-6"/>
<text text-anchor="middle" x="1472.5" y="-13" font-family="Helvetica,sans-Serif" font-size="10.00">deal.II/lac/precondition.h</text>
</a>
</g>
</g>
<!-- Node2&#45;&gt;Node13 -->
<g id="edge12" class="edge">
<title>Node2&#45;&gt;Node13</title>
<path fill="none" stroke="midnightblue" d="M1343.13,-67.48C1368.92,-57.31 1412.21,-40.26 1441.54,-28.7"/>
<polygon fill="midnightblue" stroke="midnightblue" points="1442.88,-31.93 1450.91,-25.01 1440.32,-25.42 1442.88,-31.93"/>
</g>
<!-- Node14 -->
<g id="node14" class="node">
<title>Node14</title>
<g id="a_node14"><a xlink:href="http://www.dealii.org/developer/doxygen/deal.II/solver__cg_8h.html.html" xlink:title=" ">
<polygon fill="none" stroke="black" points="1559.5,-6 1559.5,-25 1681.5,-25 1681.5,-6 1559.5,-6"/>
<text text-anchor="middle" x="1620.5" y="-13" font-family="Helvetica,sans-Serif" font-size="10.00">deal.II/lac/solver_cg.h</text>
</a>
</g>
</g>
<!-- Node2&#45;&gt;Node14 -->
<g id="edge13" class="edge">
<title>Node2&#45;&gt;Node14</title>
<path fill="none" stroke="midnightblue" d="M1353.01,-69.91C1397.17,-61.36 1480,-45.23 1550.5,-31 1556.73,-29.74 1563.26,-28.41 1569.73,-27.08"/>
<polygon fill="midnightblue" stroke="midnightblue" points="1570.71,-30.45 1579.8,-25 1569.3,-23.6 1570.71,-30.45"/>
</g>
<!-- Node15 -->
<g id="node15" class="node">
<title>Node15</title>
<g id="a_node15"><a xlink:href="http://www.dealii.org/developer/doxygen/deal.II/sparse__matrix_8h.html.html" xlink:title=" ">
<polygon fill="none" stroke="black" points="1700,-0.5 1700,-30.5 1799,-30.5 1799,-0.5 1700,-0.5"/>
<text text-anchor="start" x="1708" y="-18.5" font-family="Helvetica,sans-Serif" font-size="10.00">deal.II/lac/sparse</text>
<text text-anchor="middle" x="1749.5" y="-7.5" font-family="Helvetica,sans-Serif" font-size="10.00">_matrix.h</text>
</a>
</g>
</g>
<!-- Node2&#45;&gt;Node15 -->
<g id="edge14" class="edge">
<title>Node2&#45;&gt;Node15</title>
<path fill="none" stroke="midnightblue" d="M1353.28,-73.41C1415.78,-68.06 1559.19,-54.39 1689.54,-31.03"/>
<polygon fill="midnightblue" stroke="midnightblue" points="1690.48,-34.42 1699.7,-29.18 1689.23,-27.53 1690.48,-34.42"/>
</g>
<!-- Node16 -->
<g id="node16" class="node">
<title>Node16</title>
<g id="a_node16"><a xlink:href="http://www.dealii.org/developer/doxygen/deal.II/vector_8h.html.html" xlink:title=" ">
<polygon fill="none" stroke="black" points="1817,-6 1817,-25 1924,-25 1924,-6 1817,-6"/>
<text text-anchor="middle" x="1870.5" y="-13" font-family="Helvetica,sans-Serif" font-size="10.00">deal.II/lac/vector.h</text>
</a>
</g>
</g>
<!-- Node2&#45;&gt;Node16 -->
<g id="edge15" class="edge">
<title>Node2&#45;&gt;Node16</title>
<path fill="none" stroke="midnightblue" d="M1353.03,-74.59C1430.81,-70.79 1637.94,-58.69 1808.5,-31 1814.8,-29.98 1821.41,-28.68 1827.88,-27.28"/>
<polygon fill="midnightblue" stroke="midnightblue" points="1828.87,-30.64 1837.85,-25.02 1827.32,-23.82 1828.87,-30.64"/>
</g>
<!-- Node17 -->
<g id="node17" class="node">
<title>Node17</title>
<g id="a_node17"><a xlink:href="http://www.dealii.org/developer/doxygen/deal.II/numerics_2data__out_8h.html.html" xlink:title=" ">
<polygon fill="none" stroke="black" points="1942,-0.5 1942,-30.5 2061,-30.5 2061,-0.5 1942,-0.5"/>
<text text-anchor="start" x="1950" y="-18.5" font-family="Helvetica,sans-Serif" font-size="10.00">deal.II/numerics/data</text>
<text text-anchor="middle" x="2001.5" y="-7.5" font-family="Helvetica,sans-Serif" font-size="10.00">_out.h</text>
</a>
</g>
</g>
<!-- Node2&#45;&gt;Node17 -->
<g id="edge16" class="edge">
<title>Node2&#45;&gt;Node17</title>
<path fill="none" stroke="midnightblue" d="M1353.19,-75.2C1442.68,-72.61 1704.97,-62.79 1931.79,-31.12"/>
<polygon fill="midnightblue" stroke="midnightblue" points="1932.47,-34.56 1941.88,-29.7 1931.49,-27.63 1932.47,-34.56"/>
</g>
<!-- Node18 -->
<g id="node18" class="node">
<title>Node18</title>
<g id="a_node18"><a xlink:href="http://www.dealii.org/developer/doxygen/deal.II/matrix__tools_8h.html.html" xlink:title=" ">
<polygon fill="none" stroke="black" points="2079.5,-0.5 2079.5,-30.5 2209.5,-30.5 2209.5,-0.5 2079.5,-0.5"/>
<text text-anchor="start" x="2087.5" y="-18.5" font-family="Helvetica,sans-Serif" font-size="10.00">deal.II/numerics/matrix</text>
<text text-anchor="middle" x="2144.5" y="-7.5" font-family="Helvetica,sans-Serif" font-size="10.00">_tools.h</text>
</a>
</g>
</g>
<!-- Node2&#45;&gt;Node18 -->
<g id="edge17" class="edge">
<title>Node2&#45;&gt;Node18</title>
<path fill="none" stroke="midnightblue" d="M1353.04,-75.61C1455.15,-74.03 1786.08,-66.42 2069.16,-31.05"/>
<polygon fill="midnightblue" stroke="midnightblue" points="2069.72,-34.51 2079.21,-29.78 2068.85,-27.57 2069.72,-34.51"/>
</g>
<!-- Node19 -->
<g id="node19" class="node">
<title>Node19</title>
<g id="a_node19"><a xlink:href="http://www.dealii.org/developer/doxygen/deal.II/vector__tools_8h.html.html" xlink:title=" ">
<polygon fill="none" stroke="black" points="2227.5,-0.5 2227.5,-30.5 2355.5,-30.5 2355.5,-0.5 2227.5,-0.5"/>
<text text-anchor="start" x="2235.5" y="-18.5" font-family="Helvetica,sans-Serif" font-size="10.00">deal.II/numerics/vector</text>
<text text-anchor="middle" x="2291.5" y="-7.5" font-family="Helvetica,sans-Serif" font-size="10.00">_tools.h</text>
</a>
</g>
</g>
<!-- Node2&#45;&gt;Node19 -->
<g id="edge18" class="edge">
<title>Node2&#45;&gt;Node19</title>
<path fill="none" stroke="midnightblue" d="M1353.02,-76.08C1467.7,-76.02 1873.51,-72.76 2217.34,-31.01"/>
<polygon fill="midnightblue" stroke="midnightblue" points="2217.99,-34.46 2227.49,-29.76 2217.14,-27.51 2217.99,-34.46"/>
</g>
<!-- Node20 -->
<g id="node20" class="node">
<title>Node20</title>
<g id="a_node20"><a xlink:title=" ">
<polygon fill="none" stroke="#bfbfbf" points="2374,-6 2374,-25 2429,-25 2429,-6 2374,-6"/>
<text text-anchor="middle" x="2401.5" y="-13" font-family="Helvetica,sans-Serif" font-size="10.00">fstream</text>
</a>
</g>
</g>
<!-- Node2&#45;&gt;Node20 -->
<g id="edge19" class="edge">
<title>Node2&#45;&gt;Node20</title>
<path fill="none" stroke="midnightblue" d="M1353.11,-76.04C1505.4,-76 2164.23,-73.33 2364.5,-31 2367.51,-30.36 2370.59,-29.51 2373.63,-28.53"/>
<polygon fill="midnightblue" stroke="midnightblue" points="2374.84,-31.82 2383.05,-25.11 2372.45,-25.24 2374.84,-31.82"/>
</g>
<!-- Node21 -->
<g id="node21" class="node">
<title>Node21</title>
<g id="a_node21"><a xlink:title=" ">
<polygon fill="none" stroke="#bfbfbf" points="2447.5,-6 2447.5,-25 2507.5,-25 2507.5,-6 2447.5,-6"/>
<text text-anchor="middle" x="2477.5" y="-13" font-family="Helvetica,sans-Serif" font-size="10.00">iostream</text>
</a>
</g>
</g>
<!-- Node2&#45;&gt;Node21 -->
<g id="edge20" class="edge">
<title>Node2&#45;&gt;Node21</title>
<path fill="none" stroke="midnightblue" d="M1353.2,-76.07C1512.09,-76.2 2222.65,-74.33 2438.5,-31 2441.76,-30.35 2445.1,-29.46 2448.4,-28.44"/>
<polygon fill="midnightblue" stroke="midnightblue" points="2449.71,-31.7 2458.01,-25.12 2447.42,-25.08 2449.71,-31.7"/>
</g>
</g>
</svg>
