<?xml version="1.0" encoding="UTF-8" standalone="no"?>
<!DOCTYPE svg PUBLIC "-//W3C//DTD SVG 1.1//EN"
 "http://www.w3.org/Graphics/SVG/1.1/DTD/svg11.dtd">
<!-- Generated by graphviz version 2.43.0 (0)
 -->
<!-- Title: labs/lab&#45;06/source/main.cc Pages: 1 -->
<svg width="212pt" height="95pt"
 viewBox="0.00 0.00 211.50 95.00" xmlns="http://www.w3.org/2000/svg" xmlns:xlink="http://www.w3.org/1999/xlink">
<g id="graph0" class="graph" transform="scale(1 1) rotate(0) translate(4 91)">
<title>labs/lab&#45;06/source/main.cc</title>
<!-- Node1 -->
<g id="node1" class="node">
<title>Node1</title>
<g id="a_node1"><a xlink:title=" ">
<polygon fill="#bfbfbf" stroke="black" points="63,-56.5 63,-86.5 169,-86.5 169,-56.5 63,-56.5"/>
<text text-anchor="start" x="71" y="-74.5" font-family="Helvetica,sans-Serif" font-size="10.00">labs/lab&#45;06/source</text>
<text text-anchor="middle" x="116" y="-63.5" font-family="Helvetica,sans-Serif" font-size="10.00">/main.cc</text>
</a>
</g>
</g>
<!-- Node2 -->
<g id="node2" class="node">
<title>Node2</title>
<g id="a_node2"><a xlink:href="http://www.dealii.org/developer/doxygen/deal.II/include_2deal_8II_2base_2utilities_8h.html.html" xlink:title=" ">
<polygon fill="none" stroke="black" points="0,-0.5 0,-19.5 122,-19.5 122,-0.5 0,-0.5"/>
<text text-anchor="middle" x="61" y="-7.5" font-family="Helvetica,sans-Serif" font-size="10.00">deal.II/base/utilities.h</text>
</a>
</g>
</g>
<!-- Node1&#45;&gt;Node2 -->
<g id="edge1" class="edge">
<title>Node1&#45;&gt;Node2</title>
<path fill="none" stroke="midnightblue" d="M102.97,-56.4C94.81,-47.58 84.28,-36.18 75.81,-27.02"/>
<polygon fill="midnightblue" stroke="midnightblue" points="78.36,-24.63 69,-19.66 73.22,-29.38 78.36,-24.63"/>
</g>
<!-- Node3 -->
<g id="node3" class="node">
<title>Node3</title>
<g id="a_node3"><a xlink:title=" ">
<polygon fill="none" stroke="#bfbfbf" points="140.5,-0.5 140.5,-19.5 203.5,-19.5 203.5,-0.5 140.5,-0.5"/>
<text text-anchor="middle" x="172" y="-7.5" font-family="Helvetica,sans-Serif" font-size="10.00">poisson.h</text>
</a>
</g>
</g>
<!-- Node1&#45;&gt;Node3 -->
<g id="edge2" class="edge">
<title>Node1&#45;&gt;Node3</title>
<path fill="none" stroke="midnightblue" d="M129.27,-56.4C137.58,-47.58 148.3,-36.18 156.92,-27.02"/>
<polygon fill="midnightblue" stroke="midnightblue" points="159.55,-29.34 163.85,-19.66 154.45,-24.54 159.55,-29.34"/>
</g>
</g>
</svg>
