<?xml version="1.0" encoding="UTF-8" standalone="no"?>
<!DOCTYPE svg PUBLIC "-//W3C//DTD SVG 1.1//EN"
 "http://www.w3.org/Graphics/SVG/1.1/DTD/svg11.dtd">
<!-- Generated by graphviz version 2.43.0 (0)
 -->
<!-- Title: labs/lab&#45;05/include/poisson.h Pages: 1 -->
<svg width="770pt" height="173pt"
 viewBox="0.00 0.00 770.00 173.00" xmlns="http://www.w3.org/2000/svg" xmlns:xlink="http://www.w3.org/1999/xlink">
<g id="graph0" class="graph" transform="scale(1 1) rotate(0) translate(4 169)">
<title>labs/lab&#45;05/include/poisson.h</title>
<!-- Node1 -->
<g id="node1" class="node">
<title>Node1</title>
<g id="a_node1"><a xlink:title=" ">
<polygon fill="#bfbfbf" stroke="black" points="333.5,-134.5 333.5,-164.5 442.5,-164.5 442.5,-134.5 333.5,-134.5"/>
<text text-anchor="start" x="341.5" y="-152.5" font-family="Helvetica,sans-Serif" font-size="10.00">labs/lab&#45;05/include</text>
<text text-anchor="middle" x="388" y="-141.5" font-family="Helvetica,sans-Serif" font-size="10.00">/poisson.h</text>
</a>
</g>
</g>
<!-- Node2 -->
<g id="node2" class="node">
<title>Node2</title>
<g id="a_node2"><a xlink:href="lab-04_2source_2main_8cc.html" target="_top" xlink:title=" ">
<polygon fill="none" stroke="black" points="0,-67.5 0,-97.5 106,-97.5 106,-67.5 0,-67.5"/>
<text text-anchor="start" x="8" y="-85.5" font-family="Helvetica,sans-Serif" font-size="10.00">labs/lab&#45;04/source</text>
<text text-anchor="middle" x="53" y="-74.5" font-family="Helvetica,sans-Serif" font-size="10.00">/main.cc</text>
</a>
</g>
</g>
<!-- Node1&#45;&gt;Node2 -->
<g id="edge1" class="edge">
<title>Node1&#45;&gt;Node2</title>
<path fill="none" stroke="midnightblue" d="M323.43,-137.44C268.01,-127.73 186.06,-112.87 115,-98 112.08,-97.39 109.08,-96.74 106.06,-96.08"/>
<polygon fill="midnightblue" stroke="midnightblue" points="323.01,-140.91 333.47,-139.19 324.22,-134.02 323.01,-140.91"/>
</g>
<!-- Node3 -->
<g id="node3" class="node">
<title>Node3</title>
<g id="a_node3"><a xlink:href="lab-04_2source_2poisson_8cc.html" target="_top" xlink:title=" ">
<polygon fill="none" stroke="black" points="124,-67.5 124,-97.5 230,-97.5 230,-67.5 124,-67.5"/>
<text text-anchor="start" x="132" y="-85.5" font-family="Helvetica,sans-Serif" font-size="10.00">labs/lab&#45;04/source</text>
<text text-anchor="middle" x="177" y="-74.5" font-family="Helvetica,sans-Serif" font-size="10.00">/poisson.cc</text>
</a>
</g>
</g>
<!-- Node1&#45;&gt;Node3 -->
<g id="edge2" class="edge">
<title>Node1&#45;&gt;Node3</title>
<path fill="none" stroke="midnightblue" d="M332.63,-131.44C298.43,-120.91 255.07,-107.55 222.81,-97.61"/>
<polygon fill="midnightblue" stroke="midnightblue" points="331.89,-134.88 342.48,-134.48 333.95,-128.19 331.89,-134.88"/>
</g>
<!-- Node4 -->
<g id="node4" class="node">
<title>Node4</title>
<g id="a_node4"><a xlink:href="poisson-tester_8cc.html" target="_top" xlink:title=" ">
<polygon fill="none" stroke="black" points="248,-67.5 248,-97.5 386,-97.5 386,-67.5 248,-67.5"/>
<text text-anchor="start" x="256" y="-85.5" font-family="Helvetica,sans-Serif" font-size="10.00">labs/lab&#45;04/tests/poisson</text>
<text text-anchor="middle" x="317" y="-74.5" font-family="Helvetica,sans-Serif" font-size="10.00">&#45;tester.cc</text>
</a>
</g>
</g>
<!-- Node1&#45;&gt;Node4 -->
<g id="edge3" class="edge">
<title>Node1&#45;&gt;Node4</title>
<path fill="none" stroke="midnightblue" d="M365.17,-127.6C354.45,-117.78 341.95,-106.34 332.38,-97.58"/>
<polygon fill="midnightblue" stroke="midnightblue" points="362.85,-130.22 372.59,-134.4 367.58,-125.06 362.85,-130.22"/>
</g>
<!-- Node5 -->
<g id="node5" class="node">
<title>Node5</title>
<g id="a_node5"><a xlink:href="poisson__tester_8h.html" target="_top" xlink:title=" ">
<polygon fill="none" stroke="black" points="404.5,-67.5 404.5,-97.5 513.5,-97.5 513.5,-67.5 404.5,-67.5"/>
<text text-anchor="start" x="412.5" y="-85.5" font-family="Helvetica,sans-Serif" font-size="10.00">labs/lab&#45;05/include</text>
<text text-anchor="middle" x="459" y="-74.5" font-family="Helvetica,sans-Serif" font-size="10.00">/poisson_tester.h</text>
</a>
</g>
</g>
<!-- Node1&#45;&gt;Node5 -->
<g id="edge4" class="edge">
<title>Node1&#45;&gt;Node5</title>
<path fill="none" stroke="midnightblue" d="M410.83,-127.6C421.55,-117.78 434.05,-106.34 443.62,-97.58"/>
<polygon fill="midnightblue" stroke="midnightblue" points="408.42,-125.06 403.41,-134.4 413.15,-130.22 408.42,-125.06"/>
</g>
<!-- Node7 -->
<g id="node7" class="node">
<title>Node7</title>
<g id="a_node7"><a xlink:href="lab-05_2source_2main_8cc.html" target="_top" xlink:title=" ">
<polygon fill="none" stroke="black" points="532,-67.5 532,-97.5 638,-97.5 638,-67.5 532,-67.5"/>
<text text-anchor="start" x="540" y="-85.5" font-family="Helvetica,sans-Serif" font-size="10.00">labs/lab&#45;05/source</text>
<text text-anchor="middle" x="585" y="-74.5" font-family="Helvetica,sans-Serif" font-size="10.00">/main.cc</text>
</a>
</g>
</g>
<!-- Node1&#45;&gt;Node7 -->
<g id="edge6" class="edge">
<title>Node1&#45;&gt;Node7</title>
<path fill="none" stroke="midnightblue" d="M440.35,-131.23C472.22,-120.71 512.41,-107.45 542.34,-97.58"/>
<polygon fill="midnightblue" stroke="midnightblue" points="439.15,-127.94 430.75,-134.4 441.34,-134.59 439.15,-127.94"/>
</g>
<!-- Node8 -->
<g id="node8" class="node">
<title>Node8</title>
<g id="a_node8"><a xlink:href="lab-05_2source_2poisson_8cc.html" target="_top" xlink:title=" ">
<polygon fill="none" stroke="black" points="656,-67.5 656,-97.5 762,-97.5 762,-67.5 656,-67.5"/>
<text text-anchor="start" x="664" y="-85.5" font-family="Helvetica,sans-Serif" font-size="10.00">labs/lab&#45;05/source</text>
<text text-anchor="middle" x="709" y="-74.5" font-family="Helvetica,sans-Serif" font-size="10.00">/poisson.cc</text>
</a>
</g>
</g>
<!-- Node1&#45;&gt;Node8 -->
<g id="edge7" class="edge">
<title>Node1&#45;&gt;Node8</title>
<path fill="none" stroke="midnightblue" d="M452.54,-136.61C505.02,-126.77 580.93,-112.16 647,-98 649.92,-97.37 652.91,-96.72 655.93,-96.05"/>
<polygon fill="midnightblue" stroke="midnightblue" points="451.88,-133.17 442.69,-138.45 453.16,-140.05 451.88,-133.17"/>
</g>
<!-- Node6 -->
<g id="node6" class="node">
<title>Node6</title>
<g id="a_node6"><a xlink:href="poisson__tester_8cc.html" target="_top" xlink:title=" ">
<polygon fill="none" stroke="black" points="390,-0.5 390,-30.5 528,-30.5 528,-0.5 390,-0.5"/>
<text text-anchor="start" x="398" y="-18.5" font-family="Helvetica,sans-Serif" font-size="10.00">labs/lab&#45;05/tests/poisson</text>
<text text-anchor="middle" x="459" y="-7.5" font-family="Helvetica,sans-Serif" font-size="10.00">_tester.cc</text>
</a>
</g>
</g>
<!-- Node5&#45;&gt;Node6 -->
<g id="edge5" class="edge">
<title>Node5&#45;&gt;Node6</title>
<path fill="none" stroke="midnightblue" d="M459,-57.11C459,-48.15 459,-38.32 459,-30.58"/>
<polygon fill="midnightblue" stroke="midnightblue" points="455.5,-57.4 459,-67.4 462.5,-57.4 455.5,-57.4"/>
</g>
</g>
</svg>
