<?xml version="1.0" encoding="UTF-8" standalone="no"?>
<!DOCTYPE svg PUBLIC "-//W3C//DTD SVG 1.1//EN"
 "http://www.w3.org/Graphics/SVG/1.1/DTD/svg11.dtd">
<!-- Generated by graphviz version 2.43.0 (0)
 -->
<!-- Title: labs/lab&#45;05/include/poisson_tester.h Pages: 1 -->
<svg width="3049pt" height="162pt"
 viewBox="0.00 0.00 3048.50 162.00" xmlns="http://www.w3.org/2000/svg" xmlns:xlink="http://www.w3.org/1999/xlink">
<g id="graph0" class="graph" transform="scale(1 1) rotate(0) translate(4 158)">
<title>labs/lab&#45;05/include/poisson_tester.h</title>
<!-- Node1 -->
<g id="node1" class="node">
<title>Node1</title>
<g id="a_node1"><a xlink:title=" ">
<polygon fill="#bfbfbf" stroke="black" points="635,-123.5 635,-153.5 744,-153.5 744,-123.5 635,-123.5"/>
<text text-anchor="start" x="643" y="-141.5" font-family="Helvetica,sans-Serif" font-size="10.00">labs/lab&#45;05/include</text>
<text text-anchor="middle" x="689.5" y="-130.5" font-family="Helvetica,sans-Serif" font-size="10.00">/poisson_tester.h</text>
</a>
</g>
</g>
<!-- Node2 -->
<g id="node2" class="node">
<title>Node2</title>
<g id="a_node2"><a xlink:title=" ">
<polygon fill="none" stroke="#bfbfbf" points="583.5,-67.5 583.5,-86.5 661.5,-86.5 661.5,-67.5 583.5,-67.5"/>
<text text-anchor="middle" x="622.5" y="-74.5" font-family="Helvetica,sans-Serif" font-size="10.00">gtest/gtest.h</text>
</a>
</g>
</g>
<!-- Node1&#45;&gt;Node2 -->
<g id="edge1" class="edge">
<title>Node1&#45;&gt;Node2</title>
<path fill="none" stroke="midnightblue" d="M673.62,-123.4C663.48,-114.4 650.34,-102.72 639.91,-93.47"/>
<polygon fill="midnightblue" stroke="midnightblue" points="642.05,-90.68 632.25,-86.66 637.4,-95.92 642.05,-90.68"/>
</g>
<!-- Node3 -->
<g id="node3" class="node">
<title>Node3</title>
<g id="a_node3"><a xlink:title=" ">
<polygon fill="none" stroke="#bfbfbf" points="0,-6 0,-25 55,-25 55,-6 0,-6"/>
<text text-anchor="middle" x="27.5" y="-13" font-family="Helvetica,sans-Serif" font-size="10.00">fstream</text>
</a>
</g>
</g>
<!-- Node1&#45;&gt;Node3 -->
<g id="edge2" class="edge">
<title>Node1&#45;&gt;Node3</title>
<path fill="none" stroke="midnightblue" d="M690.16,-123.29C690.07,-106.92 687.11,-80.53 670.5,-67 618.11,-24.34 129.42,-45.81 63.5,-31 60.66,-30.36 57.76,-29.53 54.9,-28.58"/>
<polygon fill="midnightblue" stroke="midnightblue" points="56.04,-25.27 45.45,-25.05 53.59,-31.83 56.04,-25.27"/>
</g>
<!-- Node4 -->
<g id="node4" class="node">
<title>Node4</title>
<g id="a_node4"><a xlink:href="lab-05_2include_2poisson_8h.html" target="_top" xlink:title=" ">
<polygon fill="none" stroke="black" points="1452,-67.5 1452,-86.5 1515,-86.5 1515,-67.5 1452,-67.5"/>
<text text-anchor="middle" x="1483.5" y="-74.5" font-family="Helvetica,sans-Serif" font-size="10.00">poisson.h</text>
</a>
</g>
</g>
<!-- Node1&#45;&gt;Node4 -->
<g id="edge3" class="edge">
<title>Node1&#45;&gt;Node4</title>
<path fill="none" stroke="midnightblue" d="M744.07,-133.41C893.66,-122.2 1307.92,-91.16 1441.44,-81.15"/>
<polygon fill="midnightblue" stroke="midnightblue" points="1441.95,-84.62 1451.66,-80.39 1441.43,-77.64 1441.95,-84.62"/>
</g>
<!-- Node4&#45;&gt;Node3 -->
<g id="edge25" class="edge">
<title>Node4&#45;&gt;Node3</title>
<path fill="none" stroke="midnightblue" d="M1451.77,-75.66C1254.85,-73.46 203.42,-60.43 63.5,-31 60.59,-30.39 57.62,-29.56 54.69,-28.6"/>
<polygon fill="midnightblue" stroke="midnightblue" points="55.65,-25.22 45.06,-25 53.2,-31.78 55.65,-25.22"/>
</g>
<!-- Node5 -->
<g id="node5" class="node">
<title>Node5</title>
<g id="a_node5"><a xlink:href="http://www.dealii.org/developer/doxygen/deal.II/function_8h.html.html" xlink:title=" ">
<polygon fill="none" stroke="black" points="73,-6 73,-25 198,-25 198,-6 73,-6"/>
<text text-anchor="middle" x="135.5" y="-13" font-family="Helvetica,sans-Serif" font-size="10.00">deal.II/base/function.h</text>
</a>
</g>
</g>
<!-- Node4&#45;&gt;Node5 -->
<g id="edge4" class="edge">
<title>Node4&#45;&gt;Node5</title>
<path fill="none" stroke="midnightblue" d="M1451.76,-75.58C1279.91,-73.23 459.3,-60.59 207.5,-31 199.22,-30.03 190.47,-28.6 182.03,-27.03"/>
<polygon fill="midnightblue" stroke="midnightblue" points="182.43,-23.54 171.94,-25.04 181.08,-30.41 182.43,-23.54"/>
</g>
<!-- Node6 -->
<g id="node6" class="node">
<title>Node6</title>
<g id="a_node6"><a xlink:href="http://www.dealii.org/developer/doxygen/deal.II/function__parser_8h.html.html" xlink:title=" ">
<polygon fill="none" stroke="black" points="216.5,-0.5 216.5,-30.5 332.5,-30.5 332.5,-0.5 216.5,-0.5"/>
<text text-anchor="start" x="224.5" y="-18.5" font-family="Helvetica,sans-Serif" font-size="10.00">deal.II/base/function</text>
<text text-anchor="middle" x="274.5" y="-7.5" font-family="Helvetica,sans-Serif" font-size="10.00">_parser.h</text>
</a>
</g>
</g>
<!-- Node4&#45;&gt;Node6 -->
<g id="edge5" class="edge">
<title>Node4&#45;&gt;Node6</title>
<path fill="none" stroke="midnightblue" d="M1451.99,-75.5C1293.91,-72.87 585.62,-59.77 343.02,-31"/>
<polygon fill="midnightblue" stroke="midnightblue" points="343.21,-27.5 332.86,-29.76 342.36,-34.45 343.21,-27.5"/>
</g>
<!-- Node7 -->
<g id="node7" class="node">
<title>Node7</title>
<g id="a_node7"><a xlink:href="http://www.dealii.org/developer/doxygen/deal.II/parameter__acceptor_8h.html.html" xlink:title=" ">
<polygon fill="none" stroke="black" points="351,-0.5 351,-30.5 478,-30.5 478,-0.5 351,-0.5"/>
<text text-anchor="start" x="359" y="-18.5" font-family="Helvetica,sans-Serif" font-size="10.00">deal.II/base/parameter</text>
<text text-anchor="middle" x="414.5" y="-7.5" font-family="Helvetica,sans-Serif" font-size="10.00">_acceptor.h</text>
</a>
</g>
</g>
<!-- Node4&#45;&gt;Node7 -->
<g id="edge6" class="edge">
<title>Node4&#45;&gt;Node7</title>
<path fill="none" stroke="midnightblue" d="M1451.92,-76.33C1329.26,-77.26 872.55,-77.3 488.22,-31.08"/>
<polygon fill="midnightblue" stroke="midnightblue" points="488.37,-27.57 478.02,-29.84 487.52,-34.52 488.37,-27.57"/>
</g>
<!-- Node8 -->
<g id="node8" class="node">
<title>Node8</title>
<g id="a_node8"><a xlink:href="http://www.dealii.org/developer/doxygen/deal.II/parsed__convergence__table_8h.html.html" xlink:title=" ">
<polygon fill="none" stroke="black" points="496,-0.5 496,-30.5 619,-30.5 619,-0.5 496,-0.5"/>
<text text-anchor="start" x="504" y="-18.5" font-family="Helvetica,sans-Serif" font-size="10.00">deal.II/base/parsed</text>
<text text-anchor="middle" x="557.5" y="-7.5" font-family="Helvetica,sans-Serif" font-size="10.00">_convergence_table.h</text>
</a>
</g>
</g>
<!-- Node4&#45;&gt;Node8 -->
<g id="edge7" class="edge">
<title>Node4&#45;&gt;Node8</title>
<path fill="none" stroke="midnightblue" d="M1451.86,-76.06C1340.39,-75.92 955.41,-72.37 629.36,-31.12"/>
<polygon fill="midnightblue" stroke="midnightblue" points="629.61,-27.62 619.25,-29.82 628.73,-34.56 629.61,-27.62"/>
</g>
<!-- Node9 -->
<g id="node9" class="node">
<title>Node9</title>
<g id="a_node9"><a xlink:href="http://www.dealii.org/developer/doxygen/deal.II/quadrature__lib_8h.html.html" xlink:title=" ">
<polygon fill="none" stroke="black" points="637,-0.5 637,-30.5 766,-30.5 766,-0.5 637,-0.5"/>
<text text-anchor="start" x="645" y="-18.5" font-family="Helvetica,sans-Serif" font-size="10.00">deal.II/base/quadrature</text>
<text text-anchor="middle" x="701.5" y="-7.5" font-family="Helvetica,sans-Serif" font-size="10.00">_lib.h</text>
</a>
</g>
</g>
<!-- Node4&#45;&gt;Node9 -->
<g id="edge8" class="edge">
<title>Node4&#45;&gt;Node9</title>
<path fill="none" stroke="midnightblue" d="M1451.96,-75.46C1353.56,-73.45 1043.38,-64.8 776.66,-31.03"/>
<polygon fill="midnightblue" stroke="midnightblue" points="776.76,-27.51 766.39,-29.71 775.87,-34.45 776.76,-27.51"/>
</g>
<!-- Node10 -->
<g id="node10" class="node">
<title>Node10</title>
<g id="a_node10"><a xlink:href="http://www.dealii.org/developer/doxygen/deal.II/dofs_2dof__handler_8h.html.html" xlink:title=" ">
<polygon fill="none" stroke="black" points="784.5,-6 784.5,-25 924.5,-25 924.5,-6 784.5,-6"/>
<text text-anchor="middle" x="854.5" y="-13" font-family="Helvetica,sans-Serif" font-size="10.00">deal.II/dofs/dof_handler.h</text>
</a>
</g>
</g>
<!-- Node4&#45;&gt;Node10 -->
<g id="edge9" class="edge">
<title>Node4&#45;&gt;Node10</title>
<path fill="none" stroke="midnightblue" d="M1451.76,-74.51C1367.21,-70.32 1129.63,-56.96 933.5,-31 924.76,-29.84 915.52,-28.37 906.56,-26.82"/>
<polygon fill="midnightblue" stroke="midnightblue" points="907.07,-23.35 896.61,-25.03 905.83,-30.24 907.07,-23.35"/>
</g>
<!-- Node11 -->
<g id="node11" class="node">
<title>Node11</title>
<g id="a_node11"><a xlink:href="http://www.dealii.org/developer/doxygen/deal.II/dof__tools_8h.html.html" xlink:title=" ">
<polygon fill="none" stroke="black" points="942.5,-6 942.5,-25 1070.5,-25 1070.5,-6 942.5,-6"/>
<text text-anchor="middle" x="1006.5" y="-13" font-family="Helvetica,sans-Serif" font-size="10.00">deal.II/dofs/dof_tools.h</text>
</a>
</g>
</g>
<!-- Node4&#45;&gt;Node11 -->
<g id="edge10" class="edge">
<title>Node4&#45;&gt;Node11</title>
<path fill="none" stroke="midnightblue" d="M1451.95,-73.41C1383.75,-67.6 1217.59,-52.37 1079.5,-31 1071.95,-29.83 1064,-28.43 1056.23,-26.97"/>
<polygon fill="midnightblue" stroke="midnightblue" points="1056.66,-23.48 1046.17,-25.02 1055.32,-30.36 1056.66,-23.48"/>
</g>
<!-- Node12 -->
<g id="node12" class="node">
<title>Node12</title>
<g id="a_node12"><a xlink:href="http://www.dealii.org/developer/doxygen/deal.II/fe__q_8h.html.html" xlink:title=" ">
<polygon fill="none" stroke="black" points="1088.5,-6 1088.5,-25 1180.5,-25 1180.5,-6 1088.5,-6"/>
<text text-anchor="middle" x="1134.5" y="-13" font-family="Helvetica,sans-Serif" font-size="10.00">deal.II/fe/fe_q.h</text>
</a>
</g>
</g>
<!-- Node4&#45;&gt;Node12 -->
<g id="edge11" class="edge">
<title>Node4&#45;&gt;Node12</title>
<path fill="none" stroke="midnightblue" d="M1451.98,-72.29C1397.94,-65.68 1284.29,-50.69 1189.5,-31 1184.68,-30 1179.65,-28.84 1174.67,-27.62"/>
<polygon fill="midnightblue" stroke="midnightblue" points="1175.18,-24.13 1164.62,-25.06 1173.45,-30.92 1175.18,-24.13"/>
</g>
<!-- Node13 -->
<g id="node13" class="node">
<title>Node13</title>
<g id="a_node13"><a xlink:href="http://www.dealii.org/developer/doxygen/deal.II/fe_2fe__values_8h.html.html" xlink:title=" ">
<polygon fill="none" stroke="black" points="1199,-6 1199,-25 1318,-25 1318,-6 1199,-6"/>
<text text-anchor="middle" x="1258.5" y="-13" font-family="Helvetica,sans-Serif" font-size="10.00">deal.II/fe/fe_values.h</text>
</a>
</g>
</g>
<!-- Node4&#45;&gt;Node13 -->
<g id="edge12" class="edge">
<title>Node4&#45;&gt;Node13</title>
<path fill="none" stroke="midnightblue" d="M1451.74,-67.6C1412.18,-57.14 1344.47,-39.24 1300.62,-27.64"/>
<polygon fill="midnightblue" stroke="midnightblue" points="1301.39,-24.22 1290.83,-25.05 1299.6,-30.99 1301.39,-24.22"/>
</g>
<!-- Node14 -->
<g id="node14" class="node">
<title>Node14</title>
<g id="a_node14"><a xlink:href="http://www.dealii.org/developer/doxygen/deal.II/grid__generator_8h.html.html" xlink:title=" ">
<polygon fill="none" stroke="black" points="1336.5,-6 1336.5,-25 1488.5,-25 1488.5,-6 1336.5,-6"/>
<text text-anchor="middle" x="1412.5" y="-13" font-family="Helvetica,sans-Serif" font-size="10.00">deal.II/grid/grid_generator.h</text>
</a>
</g>
</g>
<!-- Node4&#45;&gt;Node14 -->
<g id="edge13" class="edge">
<title>Node4&#45;&gt;Node14</title>
<path fill="none" stroke="midnightblue" d="M1473.33,-67.48C1462.15,-58.11 1443.98,-42.88 1430.41,-31.51"/>
<polygon fill="midnightblue" stroke="midnightblue" points="1432.57,-28.75 1422.65,-25.01 1428.07,-34.11 1432.57,-28.75"/>
</g>
<!-- Node15 -->
<g id="node15" class="node">
<title>Node15</title>
<g id="a_node15"><a xlink:href="http://www.dealii.org/developer/doxygen/deal.II/grid_2tria_8h.html.html" xlink:title=" ">
<polygon fill="none" stroke="black" points="1507,-6 1507,-25 1604,-25 1604,-6 1507,-6"/>
<text text-anchor="middle" x="1555.5" y="-13" font-family="Helvetica,sans-Serif" font-size="10.00">deal.II/grid/tria.h</text>
</a>
</g>
</g>
<!-- Node4&#45;&gt;Node15 -->
<g id="edge14" class="edge">
<title>Node4&#45;&gt;Node15</title>
<path fill="none" stroke="midnightblue" d="M1493.82,-67.48C1505.15,-58.11 1523.57,-42.88 1537.34,-31.51"/>
<polygon fill="midnightblue" stroke="midnightblue" points="1539.72,-34.08 1545.2,-25.01 1535.27,-28.68 1539.72,-34.08"/>
</g>
<!-- Node16 -->
<g id="node16" class="node">
<title>Node16</title>
<g id="a_node16"><a xlink:href="http://www.dealii.org/developer/doxygen/deal.II/affine__constraints_8h.html.html" xlink:title=" ">
<polygon fill="none" stroke="black" points="1622,-0.5 1622,-30.5 1717,-30.5 1717,-0.5 1622,-0.5"/>
<text text-anchor="start" x="1630" y="-18.5" font-family="Helvetica,sans-Serif" font-size="10.00">deal.II/lac/affine</text>
<text text-anchor="middle" x="1669.5" y="-7.5" font-family="Helvetica,sans-Serif" font-size="10.00">_constraints.h</text>
</a>
</g>
</g>
<!-- Node4&#45;&gt;Node16 -->
<g id="edge15" class="edge">
<title>Node4&#45;&gt;Node16</title>
<path fill="none" stroke="midnightblue" d="M1510.15,-67.48C1537.69,-58.66 1581.44,-44.67 1616.14,-33.57"/>
<polygon fill="midnightblue" stroke="midnightblue" points="1617.21,-36.9 1625.66,-30.52 1615.07,-30.24 1617.21,-36.9"/>
</g>
<!-- Node17 -->
<g id="node17" class="node">
<title>Node17</title>
<g id="a_node17"><a xlink:href="http://www.dealii.org/developer/doxygen/deal.II/dynamic__sparsity__pattern_8h.html.html" xlink:title=" ">
<polygon fill="none" stroke="black" points="1735.5,-0.5 1735.5,-30.5 1845.5,-30.5 1845.5,-0.5 1735.5,-0.5"/>
<text text-anchor="start" x="1743.5" y="-18.5" font-family="Helvetica,sans-Serif" font-size="10.00">deal.II/lac/dynamic</text>
<text text-anchor="middle" x="1790.5" y="-7.5" font-family="Helvetica,sans-Serif" font-size="10.00">_sparsity_pattern.h</text>
</a>
</g>
</g>
<!-- Node4&#45;&gt;Node17 -->
<g id="edge16" class="edge">
<title>Node4&#45;&gt;Node17</title>
<path fill="none" stroke="midnightblue" d="M1515.03,-70.57C1559.64,-62.81 1643.94,-47.8 1725.45,-31.17"/>
<polygon fill="midnightblue" stroke="midnightblue" points="1726.28,-34.57 1735.37,-29.14 1724.87,-27.72 1726.28,-34.57"/>
</g>
<!-- Node18 -->
<g id="node18" class="node">
<title>Node18</title>
<g id="a_node18"><a xlink:href="http://www.dealii.org/developer/doxygen/deal.II/full__matrix_8h.html.html" xlink:title=" ">
<polygon fill="none" stroke="black" points="1864,-6 1864,-25 1993,-25 1993,-6 1864,-6"/>
<text text-anchor="middle" x="1928.5" y="-13" font-family="Helvetica,sans-Serif" font-size="10.00">deal.II/lac/full_matrix.h</text>
</a>
</g>
</g>
<!-- Node4&#45;&gt;Node18 -->
<g id="edge17" class="edge">
<title>Node4&#45;&gt;Node18</title>
<path fill="none" stroke="midnightblue" d="M1515.37,-72.92C1579.69,-66.54 1729.54,-50.79 1854.5,-31 1862.14,-29.79 1870.19,-28.37 1878.06,-26.89"/>
<polygon fill="midnightblue" stroke="midnightblue" points="1878.72,-30.33 1887.88,-25.01 1877.4,-23.45 1878.72,-30.33"/>
</g>
<!-- Node19 -->
<g id="node19" class="node">
<title>Node19</title>
<g id="a_node19"><a xlink:href="http://www.dealii.org/developer/doxygen/deal.II/precondition_8h.html.html" xlink:title=" ">
<polygon fill="none" stroke="black" points="2011,-6 2011,-25 2148,-25 2148,-6 2011,-6"/>
<text text-anchor="middle" x="2079.5" y="-13" font-family="Helvetica,sans-Serif" font-size="10.00">deal.II/lac/precondition.h</text>
</a>
</g>
</g>
<!-- Node4&#45;&gt;Node19 -->
<g id="edge18" class="edge">
<title>Node4&#45;&gt;Node19</title>
<path fill="none" stroke="midnightblue" d="M1515.22,-74.35C1596.5,-69.89 1818.81,-56.19 2002.5,-31 2010.93,-29.84 2019.83,-28.39 2028.48,-26.85"/>
<polygon fill="midnightblue" stroke="midnightblue" points="2029.26,-30.26 2038.46,-25.01 2028,-23.38 2029.26,-30.26"/>
</g>
<!-- Node20 -->
<g id="node20" class="node">
<title>Node20</title>
<g id="a_node20"><a xlink:href="http://www.dealii.org/developer/doxygen/deal.II/solver__cg_8h.html.html" xlink:title=" ">
<polygon fill="none" stroke="black" points="2166.5,-6 2166.5,-25 2288.5,-25 2288.5,-6 2166.5,-6"/>
<text text-anchor="middle" x="2227.5" y="-13" font-family="Helvetica,sans-Serif" font-size="10.00">deal.II/lac/solver_cg.h</text>
</a>
</g>
</g>
<!-- Node4&#45;&gt;Node20 -->
<g id="edge19" class="edge">
<title>Node4&#45;&gt;Node20</title>
<path fill="none" stroke="midnightblue" d="M1515.24,-75.43C1612.01,-73.36 1911.74,-64.5 2157.5,-31 2165.11,-29.96 2173.13,-28.58 2180.92,-27.08"/>
<polygon fill="midnightblue" stroke="midnightblue" points="2181.86,-30.46 2190.97,-25.06 2180.48,-23.6 2181.86,-30.46"/>
</g>
<!-- Node21 -->
<g id="node21" class="node">
<title>Node21</title>
<g id="a_node21"><a xlink:href="http://www.dealii.org/developer/doxygen/deal.II/sparse__matrix_8h.html.html" xlink:title=" ">
<polygon fill="none" stroke="black" points="2307,-0.5 2307,-30.5 2406,-30.5 2406,-0.5 2307,-0.5"/>
<text text-anchor="start" x="2315" y="-18.5" font-family="Helvetica,sans-Serif" font-size="10.00">deal.II/lac/sparse</text>
<text text-anchor="middle" x="2356.5" y="-7.5" font-family="Helvetica,sans-Serif" font-size="10.00">_matrix.h</text>
</a>
</g>
</g>
<!-- Node4&#45;&gt;Node21 -->
<g id="edge20" class="edge">
<title>Node4&#45;&gt;Node21</title>
<path fill="none" stroke="midnightblue" d="M1515.14,-76.35C1623.2,-77.12 1987.54,-76.08 2296.69,-30.91"/>
<polygon fill="midnightblue" stroke="midnightblue" points="2297.36,-34.35 2306.74,-29.42 2296.33,-27.42 2297.36,-34.35"/>
</g>
<!-- Node22 -->
<g id="node22" class="node">
<title>Node22</title>
<g id="a_node22"><a xlink:href="http://www.dealii.org/developer/doxygen/deal.II/vector_8h.html.html" xlink:title=" ">
<polygon fill="none" stroke="black" points="2424,-6 2424,-25 2531,-25 2531,-6 2424,-6"/>
<text text-anchor="middle" x="2477.5" y="-13" font-family="Helvetica,sans-Serif" font-size="10.00">deal.II/lac/vector.h</text>
</a>
</g>
</g>
<!-- Node4&#45;&gt;Node22 -->
<g id="edge21" class="edge">
<title>Node4&#45;&gt;Node22</title>
<path fill="none" stroke="midnightblue" d="M1515.12,-75.24C1657.02,-71.74 2235.82,-56.14 2415.5,-31 2422.19,-30.06 2429.23,-28.75 2436.05,-27.29"/>
<polygon fill="midnightblue" stroke="midnightblue" points="2436.87,-30.69 2445.85,-25.07 2435.32,-23.86 2436.87,-30.69"/>
</g>
<!-- Node23 -->
<g id="node23" class="node">
<title>Node23</title>
<g id="a_node23"><a xlink:href="http://www.dealii.org/developer/doxygen/deal.II/numerics_2data__out_8h.html.html" xlink:title=" ">
<polygon fill="none" stroke="black" points="2549,-0.5 2549,-30.5 2668,-30.5 2668,-0.5 2549,-0.5"/>
<text text-anchor="start" x="2557" y="-18.5" font-family="Helvetica,sans-Serif" font-size="10.00">deal.II/numerics/data</text>
<text text-anchor="middle" x="2608.5" y="-7.5" font-family="Helvetica,sans-Serif" font-size="10.00">_out.h</text>
</a>
</g>
</g>
<!-- Node4&#45;&gt;Node23 -->
<g id="edge22" class="edge">
<title>Node4&#45;&gt;Node23</title>
<path fill="none" stroke="midnightblue" d="M1515.16,-75.37C1666.14,-72.25 2314.55,-57.6 2538.85,-31.03"/>
<polygon fill="midnightblue" stroke="midnightblue" points="2539.39,-34.49 2548.89,-29.8 2538.54,-27.55 2539.39,-34.49"/>
</g>
<!-- Node24 -->
<g id="node24" class="node">
<title>Node24</title>
<g id="a_node24"><a xlink:href="http://www.dealii.org/developer/doxygen/deal.II/matrix__tools_8h.html.html" xlink:title=" ">
<polygon fill="none" stroke="black" points="2686.5,-0.5 2686.5,-30.5 2816.5,-30.5 2816.5,-0.5 2686.5,-0.5"/>
<text text-anchor="start" x="2694.5" y="-18.5" font-family="Helvetica,sans-Serif" font-size="10.00">deal.II/numerics/matrix</text>
<text text-anchor="middle" x="2751.5" y="-7.5" font-family="Helvetica,sans-Serif" font-size="10.00">_tools.h</text>
</a>
</g>
</g>
<!-- Node4&#45;&gt;Node24 -->
<g id="edge23" class="edge">
<title>Node4&#45;&gt;Node24</title>
<path fill="none" stroke="midnightblue" d="M1515.07,-75.48C1677.6,-72.68 2421.98,-58.65 2675.94,-31.02"/>
<polygon fill="midnightblue" stroke="midnightblue" points="2676.67,-34.46 2686.22,-29.86 2675.89,-27.51 2676.67,-34.46"/>
</g>
<!-- Node25 -->
<g id="node25" class="node">
<title>Node25</title>
<g id="a_node25"><a xlink:href="http://www.dealii.org/developer/doxygen/deal.II/vector__tools_8h.html.html" xlink:title=" ">
<polygon fill="none" stroke="black" points="2834.5,-0.5 2834.5,-30.5 2962.5,-30.5 2962.5,-0.5 2834.5,-0.5"/>
<text text-anchor="start" x="2842.5" y="-18.5" font-family="Helvetica,sans-Serif" font-size="10.00">deal.II/numerics/vector</text>
<text text-anchor="middle" x="2898.5" y="-7.5" font-family="Helvetica,sans-Serif" font-size="10.00">_tools.h</text>
</a>
</g>
</g>
<!-- Node4&#45;&gt;Node25 -->
<g id="edge24" class="edge">
<title>Node4&#45;&gt;Node25</title>
<path fill="none" stroke="midnightblue" d="M1515.12,-75.64C1689.78,-73.54 2538.67,-61.93 2824.17,-30.98"/>
<polygon fill="midnightblue" stroke="midnightblue" points="2824.95,-34.42 2834.5,-29.82 2824.17,-27.46 2824.95,-34.42"/>
</g>
<!-- Node26 -->
<g id="node26" class="node">
<title>Node26</title>
<g id="a_node26"><a xlink:title=" ">
<polygon fill="none" stroke="#bfbfbf" points="2980.5,-6 2980.5,-25 3040.5,-25 3040.5,-6 2980.5,-6"/>
<text text-anchor="middle" x="3010.5" y="-13" font-family="Helvetica,sans-Serif" font-size="10.00">iostream</text>
</a>
</g>
</g>
<!-- Node4&#45;&gt;Node26 -->
<g id="edge26" class="edge">
<title>Node4&#45;&gt;Node26</title>
<path fill="none" stroke="midnightblue" d="M1515.09,-75.66C1717.08,-73.41 2824.07,-59.83 2971.5,-31 2974.94,-30.33 2978.47,-29.39 2981.94,-28.31"/>
<polygon fill="midnightblue" stroke="midnightblue" points="2983.13,-31.6 2991.42,-25.01 2980.82,-25 2983.13,-31.6"/>
</g>
</g>
</svg>
