<?xml version="1.0" encoding="UTF-8" standalone="no"?>
<!DOCTYPE svg PUBLIC "-//W3C//DTD SVG 1.1//EN"
 "http://www.w3.org/Graphics/SVG/1.1/DTD/svg11.dtd">
<!-- Generated by graphviz version 2.43.0 (0)
 -->
<!-- Title: labs/lab&#45;06/include/poisson.h Pages: 1 -->
<svg width="3925pt" height="106pt"
 viewBox="0.00 0.00 3924.50 106.00" xmlns="http://www.w3.org/2000/svg" xmlns:xlink="http://www.w3.org/1999/xlink">
<g id="graph0" class="graph" transform="scale(1 1) rotate(0) translate(4 102)">
<title>labs/lab&#45;06/include/poisson.h</title>
<!-- Node1 -->
<g id="node1" class="node">
<title>Node1</title>
<g id="a_node1"><a xlink:title=" ">
<polygon fill="#bfbfbf" stroke="black" points="1982,-67.5 1982,-97.5 2091,-97.5 2091,-67.5 1982,-67.5"/>
<text text-anchor="start" x="1990" y="-85.5" font-family="Helvetica,sans-Serif" font-size="10.00">labs/lab&#45;06/include</text>
<text text-anchor="middle" x="2036.5" y="-74.5" font-family="Helvetica,sans-Serif" font-size="10.00">/poisson.h</text>
</a>
</g>
</g>
<!-- Node2 -->
<g id="node2" class="node">
<title>Node2</title>
<g id="a_node2"><a xlink:href="http://www.dealii.org/developer/doxygen/deal.II/function_8h.html.html" xlink:title=" ">
<polygon fill="none" stroke="black" points="0,-6 0,-25 125,-25 125,-6 0,-6"/>
<text text-anchor="middle" x="62.5" y="-13" font-family="Helvetica,sans-Serif" font-size="10.00">deal.II/base/function.h</text>
</a>
</g>
</g>
<!-- Node1&#45;&gt;Node2 -->
<g id="edge1" class="edge">
<title>Node1&#45;&gt;Node2</title>
<path fill="none" stroke="midnightblue" d="M1981.81,-81.32C1710.4,-80.23 506.43,-73.07 134.5,-31 126.03,-30.04 117.08,-28.6 108.47,-26.98"/>
<polygon fill="midnightblue" stroke="midnightblue" points="109.05,-23.53 98.57,-25.03 107.7,-30.4 109.05,-23.53"/>
</g>
<!-- Node3 -->
<g id="node3" class="node">
<title>Node3</title>
<g id="a_node3"><a xlink:href="http://www.dealii.org/developer/doxygen/deal.II/function__parser_8h.html.html" xlink:title=" ">
<polygon fill="none" stroke="black" points="143.5,-0.5 143.5,-30.5 259.5,-30.5 259.5,-0.5 143.5,-0.5"/>
<text text-anchor="start" x="151.5" y="-18.5" font-family="Helvetica,sans-Serif" font-size="10.00">deal.II/base/function</text>
<text text-anchor="middle" x="201.5" y="-7.5" font-family="Helvetica,sans-Serif" font-size="10.00">_parser.h</text>
</a>
</g>
</g>
<!-- Node1&#45;&gt;Node3 -->
<g id="edge2" class="edge">
<title>Node1&#45;&gt;Node3</title>
<path fill="none" stroke="midnightblue" d="M1981.83,-81.3C1724.62,-80.14 632.72,-72.87 269.86,-30.98"/>
<polygon fill="midnightblue" stroke="midnightblue" points="270.2,-27.5 259.86,-29.79 269.38,-34.45 270.2,-27.5"/>
</g>
<!-- Node4 -->
<g id="node4" class="node">
<title>Node4</title>
<g id="a_node4"><a xlink:href="http://www.dealii.org/developer/doxygen/deal.II/parameter__acceptor_8h.html.html" xlink:title=" ">
<polygon fill="none" stroke="black" points="278,-0.5 278,-30.5 405,-30.5 405,-0.5 278,-0.5"/>
<text text-anchor="start" x="286" y="-18.5" font-family="Helvetica,sans-Serif" font-size="10.00">deal.II/base/parameter</text>
<text text-anchor="middle" x="341.5" y="-7.5" font-family="Helvetica,sans-Serif" font-size="10.00">_acceptor.h</text>
</a>
</g>
</g>
<!-- Node1&#45;&gt;Node4 -->
<g id="edge3" class="edge">
<title>Node1&#45;&gt;Node4</title>
<path fill="none" stroke="midnightblue" d="M1981.88,-81.03C1738.17,-78.75 747.93,-67.46 415.14,-31.03"/>
<polygon fill="midnightblue" stroke="midnightblue" points="415.34,-27.53 405.01,-29.89 414.56,-34.49 415.34,-27.53"/>
</g>
<!-- Node5 -->
<g id="node5" class="node">
<title>Node5</title>
<g id="a_node5"><a xlink:href="http://www.dealii.org/developer/doxygen/deal.II/parsed__convergence__table_8h.html.html" xlink:title=" ">
<polygon fill="none" stroke="black" points="423,-0.5 423,-30.5 546,-30.5 546,-0.5 423,-0.5"/>
<text text-anchor="start" x="431" y="-18.5" font-family="Helvetica,sans-Serif" font-size="10.00">deal.II/base/parsed</text>
<text text-anchor="middle" x="484.5" y="-7.5" font-family="Helvetica,sans-Serif" font-size="10.00">_convergence_table.h</text>
</a>
</g>
</g>
<!-- Node1&#45;&gt;Node5 -->
<g id="edge4" class="edge">
<title>Node1&#45;&gt;Node5</title>
<path fill="none" stroke="midnightblue" d="M1981.62,-80.88C1751.06,-78.09 859.22,-65.34 556.33,-31.06"/>
<polygon fill="midnightblue" stroke="midnightblue" points="556.58,-27.57 546.24,-29.88 555.77,-34.52 556.58,-27.57"/>
</g>
<!-- Node6 -->
<g id="node6" class="node">
<title>Node6</title>
<g id="a_node6"><a xlink:href="http://www.dealii.org/developer/doxygen/deal.II/quadrature__lib_8h.html.html" xlink:title=" ">
<polygon fill="none" stroke="black" points="564,-0.5 564,-30.5 693,-30.5 693,-0.5 564,-0.5"/>
<text text-anchor="start" x="572" y="-18.5" font-family="Helvetica,sans-Serif" font-size="10.00">deal.II/base/quadrature</text>
<text text-anchor="middle" x="628.5" y="-7.5" font-family="Helvetica,sans-Serif" font-size="10.00">_lib.h</text>
</a>
</g>
</g>
<!-- Node1&#45;&gt;Node6 -->
<g id="edge5" class="edge">
<title>Node1&#45;&gt;Node6</title>
<path fill="none" stroke="midnightblue" d="M1982,-80.59C1766.95,-76.82 976.18,-61.27 703.55,-31.09"/>
<polygon fill="midnightblue" stroke="midnightblue" points="703.63,-27.58 693.29,-29.92 702.83,-34.53 703.63,-27.58"/>
</g>
<!-- Node7 -->
<g id="node7" class="node">
<title>Node7</title>
<g id="a_node7"><a xlink:href="http://www.dealii.org/developer/doxygen/deal.II/timer_8h.html.html" xlink:title=" ">
<polygon fill="none" stroke="black" points="711,-6 711,-25 822,-25 822,-6 711,-6"/>
<text text-anchor="middle" x="766.5" y="-13" font-family="Helvetica,sans-Serif" font-size="10.00">deal.II/base/timer.h</text>
</a>
</g>
</g>
<!-- Node1&#45;&gt;Node7 -->
<g id="edge6" class="edge">
<title>Node1&#45;&gt;Node7</title>
<path fill="none" stroke="midnightblue" d="M1981.76,-80.52C1777.19,-76.67 1057.7,-61.24 830.5,-31 823.52,-30.07 816.18,-28.75 809.06,-27.27"/>
<polygon fill="midnightblue" stroke="midnightblue" points="809.37,-23.75 798.85,-25.03 807.87,-30.59 809.37,-23.75"/>
</g>
<!-- Node8 -->
<g id="node8" class="node">
<title>Node8</title>
<g id="a_node8"><a xlink:href="http://www.dealii.org/developer/doxygen/deal.II/distributed_2grid__refinement_8h.html.html" xlink:title=" ">
<polygon fill="none" stroke="black" points="840,-0.5 840,-30.5 947,-30.5 947,-0.5 840,-0.5"/>
<text text-anchor="start" x="848" y="-18.5" font-family="Helvetica,sans-Serif" font-size="10.00">deal.II/distributed</text>
<text text-anchor="middle" x="893.5" y="-7.5" font-family="Helvetica,sans-Serif" font-size="10.00">/grid_refinement.h</text>
</a>
</g>
</g>
<!-- Node1&#45;&gt;Node8 -->
<g id="edge7" class="edge">
<title>Node1&#45;&gt;Node8</title>
<path fill="none" stroke="midnightblue" d="M1981.68,-80.24C1794.03,-75.72 1177.48,-59.17 957.51,-30.91"/>
<polygon fill="midnightblue" stroke="midnightblue" points="957.71,-27.41 947.34,-29.56 956.79,-34.35 957.71,-27.41"/>
</g>
<!-- Node9 -->
<g id="node9" class="node">
<title>Node9</title>
<g id="a_node9"><a xlink:href="http://www.dealii.org/developer/doxygen/deal.II/distributed_2tria_8h.html.html" xlink:title=" ">
<polygon fill="none" stroke="black" points="965.5,-0.5 965.5,-30.5 1067.5,-30.5 1067.5,-0.5 965.5,-0.5"/>
<text text-anchor="start" x="973.5" y="-18.5" font-family="Helvetica,sans-Serif" font-size="10.00">deal.II/distributed</text>
<text text-anchor="middle" x="1016.5" y="-7.5" font-family="Helvetica,sans-Serif" font-size="10.00">/tria.h</text>
</a>
</g>
</g>
<!-- Node1&#45;&gt;Node9 -->
<g id="edge8" class="edge">
<title>Node1&#45;&gt;Node9</title>
<path fill="none" stroke="midnightblue" d="M1981.76,-82.14C1835.94,-83.09 1426.06,-80.88 1077.79,-31"/>
<polygon fill="midnightblue" stroke="midnightblue" points="1078.16,-27.52 1067.77,-29.55 1077.16,-34.44 1078.16,-27.52"/>
</g>
<!-- Node10 -->
<g id="node10" class="node">
<title>Node10</title>
<g id="a_node10"><a xlink:href="http://www.dealii.org/developer/doxygen/deal.II/dofs_2dof__handler_8h.html.html" xlink:title=" ">
<polygon fill="none" stroke="black" points="1085.5,-6 1085.5,-25 1225.5,-25 1225.5,-6 1085.5,-6"/>
<text text-anchor="middle" x="1155.5" y="-13" font-family="Helvetica,sans-Serif" font-size="10.00">deal.II/dofs/dof_handler.h</text>
</a>
</g>
</g>
<!-- Node1&#45;&gt;Node10 -->
<g id="edge9" class="edge">
<title>Node1&#45;&gt;Node10</title>
<path fill="none" stroke="midnightblue" d="M1981.84,-80.29C1851.84,-76.94 1514.21,-65.35 1234.5,-31 1225.45,-29.89 1215.88,-28.4 1206.63,-26.8"/>
<polygon fill="midnightblue" stroke="midnightblue" points="1207.23,-23.35 1196.77,-25.03 1205.99,-30.24 1207.23,-23.35"/>
</g>
<!-- Node11 -->
<g id="node11" class="node">
<title>Node11</title>
<g id="a_node11"><a xlink:href="http://www.dealii.org/developer/doxygen/deal.II/dof__tools_8h.html.html" xlink:title=" ">
<polygon fill="none" stroke="black" points="1243.5,-6 1243.5,-25 1371.5,-25 1371.5,-6 1243.5,-6"/>
<text text-anchor="middle" x="1307.5" y="-13" font-family="Helvetica,sans-Serif" font-size="10.00">deal.II/dofs/dof_tools.h</text>
</a>
</g>
</g>
<!-- Node1&#45;&gt;Node11 -->
<g id="edge10" class="edge">
<title>Node1&#45;&gt;Node11</title>
<path fill="none" stroke="midnightblue" d="M1981.84,-79.5C1869,-74.88 1602.3,-61.45 1380.5,-31 1372.49,-29.9 1364.04,-28.47 1355.83,-26.94"/>
<polygon fill="midnightblue" stroke="midnightblue" points="1356.48,-23.5 1346,-25.04 1355.15,-30.37 1356.48,-23.5"/>
</g>
<!-- Node12 -->
<g id="node12" class="node">
<title>Node12</title>
<g id="a_node12"><a xlink:href="http://www.dealii.org/developer/doxygen/deal.II/fe__q_8h.html.html" xlink:title=" ">
<polygon fill="none" stroke="black" points="1389.5,-6 1389.5,-25 1481.5,-25 1481.5,-6 1389.5,-6"/>
<text text-anchor="middle" x="1435.5" y="-13" font-family="Helvetica,sans-Serif" font-size="10.00">deal.II/fe/fe_q.h</text>
</a>
</g>
</g>
<!-- Node1&#45;&gt;Node12 -->
<g id="edge11" class="edge">
<title>Node1&#45;&gt;Node12</title>
<path fill="none" stroke="midnightblue" d="M1981.85,-79.44C1883.1,-75.06 1668.61,-62.49 1490.5,-31 1485.09,-30.04 1479.44,-28.82 1473.9,-27.49"/>
<polygon fill="midnightblue" stroke="midnightblue" points="1474.68,-24.07 1464.13,-25.01 1472.96,-30.86 1474.68,-24.07"/>
</g>
<!-- Node13 -->
<g id="node13" class="node">
<title>Node13</title>
<g id="a_node13"><a xlink:href="http://www.dealii.org/developer/doxygen/deal.II/fe_2fe__values_8h.html.html" xlink:title=" ">
<polygon fill="none" stroke="black" points="1500,-6 1500,-25 1619,-25 1619,-6 1500,-6"/>
<text text-anchor="middle" x="1559.5" y="-13" font-family="Helvetica,sans-Serif" font-size="10.00">deal.II/fe/fe_values.h</text>
</a>
</g>
</g>
<!-- Node1&#45;&gt;Node13 -->
<g id="edge12" class="edge">
<title>Node1&#45;&gt;Node13</title>
<path fill="none" stroke="midnightblue" d="M1981.7,-76.27C1903.02,-68.41 1753.62,-52.19 1627.5,-31 1620.78,-29.87 1613.72,-28.54 1606.79,-27.14"/>
<polygon fill="midnightblue" stroke="midnightblue" points="1607.3,-23.67 1596.8,-25.07 1605.88,-30.52 1607.3,-23.67"/>
</g>
<!-- Node14 -->
<g id="node14" class="node">
<title>Node14</title>
<g id="a_node14"><a xlink:href="http://www.dealii.org/developer/doxygen/deal.II/mapping__q__generic_8h.html.html" xlink:title=" ">
<polygon fill="none" stroke="black" points="1637,-0.5 1637,-30.5 1742,-30.5 1742,-0.5 1637,-0.5"/>
<text text-anchor="start" x="1645" y="-18.5" font-family="Helvetica,sans-Serif" font-size="10.00">deal.II/fe/mapping</text>
<text text-anchor="middle" x="1689.5" y="-7.5" font-family="Helvetica,sans-Serif" font-size="10.00">_q_generic.h</text>
</a>
</g>
</g>
<!-- Node1&#45;&gt;Node14 -->
<g id="edge13" class="edge">
<title>Node1&#45;&gt;Node14</title>
<path fill="none" stroke="midnightblue" d="M1981.96,-72.74C1926.61,-63.65 1838.23,-48.57 1752.16,-31.07"/>
<polygon fill="midnightblue" stroke="midnightblue" points="1752.72,-27.61 1742.22,-29.04 1751.32,-34.47 1752.72,-27.61"/>
</g>
<!-- Node15 -->
<g id="node15" class="node">
<title>Node15</title>
<g id="a_node15"><a xlink:href="http://www.dealii.org/developer/doxygen/deal.II/grid__generator_8h.html.html" xlink:title=" ">
<polygon fill="none" stroke="black" points="1760.5,-6 1760.5,-25 1912.5,-25 1912.5,-6 1760.5,-6"/>
<text text-anchor="middle" x="1836.5" y="-13" font-family="Helvetica,sans-Serif" font-size="10.00">deal.II/grid/grid_generator.h</text>
</a>
</g>
</g>
<!-- Node1&#45;&gt;Node15 -->
<g id="edge14" class="edge">
<title>Node1&#45;&gt;Node15</title>
<path fill="none" stroke="midnightblue" d="M1993.1,-67.4C1957.08,-55.69 1906.44,-39.23 1872.6,-28.23"/>
<polygon fill="midnightblue" stroke="midnightblue" points="1873.27,-24.77 1862.68,-25.01 1871.1,-31.43 1873.27,-24.77"/>
</g>
<!-- Node16 -->
<g id="node16" class="node">
<title>Node16</title>
<g id="a_node16"><a xlink:href="http://www.dealii.org/developer/doxygen/deal.II/grid_2tria_8h.html.html" xlink:title=" ">
<polygon fill="none" stroke="black" points="1931,-6 1931,-25 2028,-25 2028,-6 1931,-6"/>
<text text-anchor="middle" x="1979.5" y="-13" font-family="Helvetica,sans-Serif" font-size="10.00">deal.II/grid/tria.h</text>
</a>
</g>
</g>
<!-- Node1&#45;&gt;Node16 -->
<g id="edge15" class="edge">
<title>Node1&#45;&gt;Node16</title>
<path fill="none" stroke="midnightblue" d="M2024.13,-67.4C2015.24,-57.26 2003.24,-43.57 1993.91,-32.94"/>
<polygon fill="midnightblue" stroke="midnightblue" points="1996.35,-30.41 1987.12,-25.19 1991.09,-35.02 1996.35,-30.41"/>
</g>
<!-- Node17 -->
<g id="node17" class="node">
<title>Node17</title>
<g id="a_node17"><a xlink:href="http://www.dealii.org/developer/doxygen/deal.II/affine__constraints_8h.html.html" xlink:title=" ">
<polygon fill="none" stroke="black" points="2046,-0.5 2046,-30.5 2141,-30.5 2141,-0.5 2046,-0.5"/>
<text text-anchor="start" x="2054" y="-18.5" font-family="Helvetica,sans-Serif" font-size="10.00">deal.II/lac/affine</text>
<text text-anchor="middle" x="2093.5" y="-7.5" font-family="Helvetica,sans-Serif" font-size="10.00">_constraints.h</text>
</a>
</g>
</g>
<!-- Node1&#45;&gt;Node17 -->
<g id="edge16" class="edge">
<title>Node1&#45;&gt;Node17</title>
<path fill="none" stroke="midnightblue" d="M2048.87,-67.4C2056.34,-58.88 2066.01,-47.85 2074.44,-38.23"/>
<polygon fill="midnightblue" stroke="midnightblue" points="2077.19,-40.4 2081.16,-30.58 2071.93,-35.79 2077.19,-40.4"/>
</g>
<!-- Node18 -->
<g id="node18" class="node">
<title>Node18</title>
<g id="a_node18"><a xlink:href="http://www.dealii.org/developer/doxygen/deal.II/dynamic__sparsity__pattern_8h.html.html" xlink:title=" ">
<polygon fill="none" stroke="black" points="2159.5,-0.5 2159.5,-30.5 2269.5,-30.5 2269.5,-0.5 2159.5,-0.5"/>
<text text-anchor="start" x="2167.5" y="-18.5" font-family="Helvetica,sans-Serif" font-size="10.00">deal.II/lac/dynamic</text>
<text text-anchor="middle" x="2214.5" y="-7.5" font-family="Helvetica,sans-Serif" font-size="10.00">_sparsity_pattern.h</text>
</a>
</g>
</g>
<!-- Node1&#45;&gt;Node18 -->
<g id="edge17" class="edge">
<title>Node1&#45;&gt;Node18</title>
<path fill="none" stroke="midnightblue" d="M2075.12,-67.4C2101.95,-57.6 2137.88,-44.48 2166.53,-34.02"/>
<polygon fill="midnightblue" stroke="midnightblue" points="2167.76,-37.29 2175.95,-30.58 2165.36,-30.72 2167.76,-37.29"/>
</g>
<!-- Node19 -->
<g id="node19" class="node">
<title>Node19</title>
<g id="a_node19"><a xlink:href="http://www.dealii.org/developer/doxygen/deal.II/full__matrix_8h.html.html" xlink:title=" ">
<polygon fill="none" stroke="black" points="2288,-6 2288,-25 2417,-25 2417,-6 2288,-6"/>
<text text-anchor="middle" x="2352.5" y="-13" font-family="Helvetica,sans-Serif" font-size="10.00">deal.II/lac/full_matrix.h</text>
</a>
</g>
</g>
<!-- Node1&#45;&gt;Node19 -->
<g id="edge18" class="edge">
<title>Node1&#45;&gt;Node19</title>
<path fill="none" stroke="midnightblue" d="M2091.18,-70.25C2150.17,-58.12 2243.38,-38.95 2301.08,-27.08"/>
<polygon fill="midnightblue" stroke="midnightblue" points="2301.98,-30.47 2311.07,-25.02 2300.57,-23.61 2301.98,-30.47"/>
</g>
<!-- Node20 -->
<g id="node20" class="node">
<title>Node20</title>
<g id="a_node20"><a xlink:href="http://www.dealii.org/developer/doxygen/deal.II/generic__linear__algebra_8h.html.html" xlink:title=" ">
<polygon fill="none" stroke="black" points="2435,-0.5 2435,-30.5 2538,-30.5 2538,-0.5 2435,-0.5"/>
<text text-anchor="start" x="2443" y="-18.5" font-family="Helvetica,sans-Serif" font-size="10.00">deal.II/lac/generic</text>
<text text-anchor="middle" x="2486.5" y="-7.5" font-family="Helvetica,sans-Serif" font-size="10.00">_linear_algebra.h</text>
</a>
</g>
</g>
<!-- Node1&#45;&gt;Node20 -->
<g id="edge19" class="edge">
<title>Node1&#45;&gt;Node20</title>
<path fill="none" stroke="midnightblue" d="M2091.05,-76.32C2164.73,-68.91 2300.28,-53.81 2424.78,-31.21"/>
<polygon fill="midnightblue" stroke="midnightblue" points="2425.66,-34.6 2434.87,-29.35 2424.4,-27.72 2425.66,-34.6"/>
</g>
<!-- Node21 -->
<g id="node21" class="node">
<title>Node21</title>
<g id="a_node21"><a xlink:href="http://www.dealii.org/developer/doxygen/deal.II/precondition_8h.html.html" xlink:title=" ">
<polygon fill="none" stroke="black" points="2556,-6 2556,-25 2693,-25 2693,-6 2556,-6"/>
<text text-anchor="middle" x="2624.5" y="-13" font-family="Helvetica,sans-Serif" font-size="10.00">deal.II/lac/precondition.h</text>
</a>
</g>
</g>
<!-- Node1&#45;&gt;Node21 -->
<g id="edge20" class="edge">
<title>Node1&#45;&gt;Node21</title>
<path fill="none" stroke="midnightblue" d="M2091.14,-77.68C2184.83,-70.78 2382.04,-54.71 2547.5,-31 2555.64,-29.83 2564.22,-28.41 2572.59,-26.92"/>
<polygon fill="midnightblue" stroke="midnightblue" points="2573.45,-30.32 2582.65,-25.07 2572.18,-23.43 2573.45,-30.32"/>
</g>
<!-- Node22 -->
<g id="node22" class="node">
<title>Node22</title>
<g id="a_node22"><a xlink:href="http://www.dealii.org/developer/doxygen/deal.II/solver__cg_8h.html.html" xlink:title=" ">
<polygon fill="none" stroke="black" points="2711.5,-6 2711.5,-25 2833.5,-25 2833.5,-6 2711.5,-6"/>
<text text-anchor="middle" x="2772.5" y="-13" font-family="Helvetica,sans-Serif" font-size="10.00">deal.II/lac/solver_cg.h</text>
</a>
</g>
</g>
<!-- Node1&#45;&gt;Node22 -->
<g id="edge21" class="edge">
<title>Node1&#45;&gt;Node22</title>
<path fill="none" stroke="midnightblue" d="M2091.14,-79.74C2205.23,-75.53 2476.87,-62.79 2702.5,-31 2710.02,-29.94 2717.94,-28.56 2725.65,-27.07"/>
<polygon fill="midnightblue" stroke="midnightblue" points="2726.49,-30.47 2735.6,-25.07 2725.11,-23.61 2726.49,-30.47"/>
</g>
<!-- Node23 -->
<g id="node23" class="node">
<title>Node23</title>
<g id="a_node23"><a xlink:href="http://www.dealii.org/developer/doxygen/deal.II/sparse__matrix_8h.html.html" xlink:title=" ">
<polygon fill="none" stroke="black" points="2852,-0.5 2852,-30.5 2951,-30.5 2951,-0.5 2852,-0.5"/>
<text text-anchor="start" x="2860" y="-18.5" font-family="Helvetica,sans-Serif" font-size="10.00">deal.II/lac/sparse</text>
<text text-anchor="middle" x="2901.5" y="-7.5" font-family="Helvetica,sans-Serif" font-size="10.00">_matrix.h</text>
</a>
</g>
</g>
<!-- Node1&#45;&gt;Node23 -->
<g id="edge22" class="edge">
<title>Node1&#45;&gt;Node23</title>
<path fill="none" stroke="midnightblue" d="M2091.1,-81.43C2220.19,-80.53 2554.24,-74.03 2841.53,-30.94"/>
<polygon fill="midnightblue" stroke="midnightblue" points="2842.37,-34.35 2851.73,-29.39 2841.32,-27.43 2842.37,-34.35"/>
</g>
<!-- Node24 -->
<g id="node24" class="node">
<title>Node24</title>
<g id="a_node24"><a xlink:href="http://www.dealii.org/developer/doxygen/deal.II/vector_8h.html.html" xlink:title=" ">
<polygon fill="none" stroke="black" points="2969,-6 2969,-25 3076,-25 3076,-6 2969,-6"/>
<text text-anchor="middle" x="3022.5" y="-13" font-family="Helvetica,sans-Serif" font-size="10.00">deal.II/lac/vector.h</text>
</a>
</g>
</g>
<!-- Node1&#45;&gt;Node24 -->
<g id="edge23" class="edge">
<title>Node1&#45;&gt;Node24</title>
<path fill="none" stroke="midnightblue" d="M2091.24,-81.84C2234.7,-82.01 2633.09,-77.86 2960.5,-31 2967.19,-30.04 2974.22,-28.72 2981.05,-27.25"/>
<polygon fill="midnightblue" stroke="midnightblue" points="2981.86,-30.65 2990.84,-25.03 2980.32,-23.83 2981.86,-30.65"/>
</g>
<!-- Node25 -->
<g id="node25" class="node">
<title>Node25</title>
<g id="a_node25"><a xlink:href="http://www.dealii.org/developer/doxygen/deal.II/copy__data_8h.html.html" xlink:title=" ">
<polygon fill="none" stroke="black" points="3094.5,-0.5 3094.5,-30.5 3204.5,-30.5 3204.5,-0.5 3094.5,-0.5"/>
<text text-anchor="start" x="3102.5" y="-18.5" font-family="Helvetica,sans-Serif" font-size="10.00">deal.II/meshworker</text>
<text text-anchor="middle" x="3149.5" y="-7.5" font-family="Helvetica,sans-Serif" font-size="10.00">/copy_data.h</text>
</a>
</g>
</g>
<!-- Node1&#45;&gt;Node25 -->
<g id="edge24" class="edge">
<title>Node1&#45;&gt;Node25</title>
<path fill="none" stroke="midnightblue" d="M2091.04,-80.13C2274.72,-75.34 2870.76,-58.16 3084.27,-30.96"/>
<polygon fill="midnightblue" stroke="midnightblue" points="3085,-34.39 3094.45,-29.61 3084.08,-27.45 3085,-34.39"/>
</g>
<!-- Node26 -->
<g id="node26" class="node">
<title>Node26</title>
<g id="a_node26"><a xlink:href="http://www.dealii.org/developer/doxygen/deal.II/scratch__data_8h.html.html" xlink:title=" ">
<polygon fill="none" stroke="black" points="3222.5,-0.5 3222.5,-30.5 3332.5,-30.5 3332.5,-0.5 3222.5,-0.5"/>
<text text-anchor="start" x="3230.5" y="-18.5" font-family="Helvetica,sans-Serif" font-size="10.00">deal.II/meshworker</text>
<text text-anchor="middle" x="3277.5" y="-7.5" font-family="Helvetica,sans-Serif" font-size="10.00">/scratch_data.h</text>
</a>
</g>
</g>
<!-- Node1&#45;&gt;Node26 -->
<g id="edge25" class="edge">
<title>Node1&#45;&gt;Node26</title>
<path fill="none" stroke="midnightblue" d="M2091.3,-80.46C2289.93,-76.48 2972.56,-61.01 3212.4,-30.94"/>
<polygon fill="midnightblue" stroke="midnightblue" points="3212.99,-34.39 3222.46,-29.63 3212.09,-27.45 3212.99,-34.39"/>
</g>
<!-- Node27 -->
<g id="node27" class="node">
<title>Node27</title>
<g id="a_node27"><a xlink:href="http://www.dealii.org/developer/doxygen/deal.II/numerics_2data__out_8h.html.html" xlink:title=" ">
<polygon fill="none" stroke="black" points="3351,-0.5 3351,-30.5 3470,-30.5 3470,-0.5 3351,-0.5"/>
<text text-anchor="start" x="3359" y="-18.5" font-family="Helvetica,sans-Serif" font-size="10.00">deal.II/numerics/data</text>
<text text-anchor="middle" x="3410.5" y="-7.5" font-family="Helvetica,sans-Serif" font-size="10.00">_out.h</text>
</a>
</g>
</g>
<!-- Node1&#45;&gt;Node27 -->
<g id="edge26" class="edge">
<title>Node1&#45;&gt;Node27</title>
<path fill="none" stroke="midnightblue" d="M2091.24,-80.61C2303.59,-76.98 3073.8,-62 3340.72,-30.9"/>
<polygon fill="midnightblue" stroke="midnightblue" points="3341.25,-34.36 3350.76,-29.7 3340.42,-27.41 3341.25,-34.36"/>
</g>
<!-- Node28 -->
<g id="node28" class="node">
<title>Node28</title>
<g id="a_node28"><a xlink:href="http://www.dealii.org/developer/doxygen/deal.II/matrix__tools_8h.html.html" xlink:title=" ">
<polygon fill="none" stroke="black" points="3488.5,-0.5 3488.5,-30.5 3618.5,-30.5 3618.5,-0.5 3488.5,-0.5"/>
<text text-anchor="start" x="3496.5" y="-18.5" font-family="Helvetica,sans-Serif" font-size="10.00">deal.II/numerics/matrix</text>
<text text-anchor="middle" x="3553.5" y="-7.5" font-family="Helvetica,sans-Serif" font-size="10.00">_tools.h</text>
</a>
</g>
</g>
<!-- Node1&#45;&gt;Node28 -->
<g id="edge27" class="edge">
<title>Node1&#45;&gt;Node28</title>
<path fill="none" stroke="midnightblue" d="M2091.08,-80.75C2317.24,-77.46 3182.3,-63.08 3477.94,-31.02"/>
<polygon fill="midnightblue" stroke="midnightblue" points="3478.67,-34.46 3488.22,-29.87 3477.89,-27.51 3478.67,-34.46"/>
</g>
<!-- Node29 -->
<g id="node29" class="node">
<title>Node29</title>
<g id="a_node29"><a xlink:href="http://www.dealii.org/developer/doxygen/deal.II/vector__tools_8h.html.html" xlink:title=" ">
<polygon fill="none" stroke="black" points="3636.5,-0.5 3636.5,-30.5 3764.5,-30.5 3764.5,-0.5 3636.5,-0.5"/>
<text text-anchor="start" x="3644.5" y="-18.5" font-family="Helvetica,sans-Serif" font-size="10.00">deal.II/numerics/vector</text>
<text text-anchor="middle" x="3700.5" y="-7.5" font-family="Helvetica,sans-Serif" font-size="10.00">_tools.h</text>
</a>
</g>
</g>
<!-- Node1&#45;&gt;Node29 -->
<g id="edge28" class="edge">
<title>Node1&#45;&gt;Node29</title>
<path fill="none" stroke="midnightblue" d="M2091.26,-80.97C2332.1,-78.46 3299.24,-66.4 3626.08,-30.99"/>
<polygon fill="midnightblue" stroke="midnightblue" points="3626.95,-34.42 3636.5,-29.83 3626.17,-27.46 3626.95,-34.42"/>
</g>
<!-- Node30 -->
<g id="node30" class="node">
<title>Node30</title>
<g id="a_node30"><a xlink:title=" ">
<polygon fill="none" stroke="#bfbfbf" points="3783,-6 3783,-25 3838,-25 3838,-6 3783,-6"/>
<text text-anchor="middle" x="3810.5" y="-13" font-family="Helvetica,sans-Serif" font-size="10.00">fstream</text>
</a>
</g>
</g>
<!-- Node1&#45;&gt;Node30 -->
<g id="edge29" class="edge">
<title>Node1&#45;&gt;Node30</title>
<path fill="none" stroke="midnightblue" d="M2091.4,-81.02C2368.38,-78.48 3605.66,-65.25 3773.5,-31 3776.58,-30.37 3779.73,-29.51 3782.84,-28.51"/>
<polygon fill="midnightblue" stroke="midnightblue" points="3784.24,-31.73 3792.44,-25.01 3781.84,-25.15 3784.24,-31.73"/>
</g>
<!-- Node31 -->
<g id="node31" class="node">
<title>Node31</title>
<g id="a_node31"><a xlink:title=" ">
<polygon fill="none" stroke="#bfbfbf" points="3856.5,-6 3856.5,-25 3916.5,-25 3916.5,-6 3856.5,-6"/>
<text text-anchor="middle" x="3886.5" y="-13" font-family="Helvetica,sans-Serif" font-size="10.00">iostream</text>
</a>
</g>
</g>
<!-- Node1&#45;&gt;Node31 -->
<g id="edge30" class="edge">
<title>Node1&#45;&gt;Node31</title>
<path fill="none" stroke="midnightblue" d="M2091.37,-81.04C2375.34,-78.51 3671.7,-65.16 3847.5,-31 3850.94,-30.33 3854.47,-29.4 3857.94,-28.32"/>
<polygon fill="midnightblue" stroke="midnightblue" points="3859.13,-31.61 3867.42,-25.01 3856.83,-25 3859.13,-31.61"/>
</g>
</g>
</svg>
