<?xml version="1.0" encoding="UTF-8" standalone="no"?>
<!DOCTYPE svg PUBLIC "-//W3C//DTD SVG 1.1//EN"
 "http://www.w3.org/Graphics/SVG/1.1/DTD/svg11.dtd">
<!-- Generated by graphviz version 2.43.0 (0)
 -->
<!-- Title: labs/lab&#45;06/source/poisson.cc Pages: 1 -->
<svg width="1460pt" height="106pt"
 viewBox="0.00 0.00 1460.00 106.00" xmlns="http://www.w3.org/2000/svg" xmlns:xlink="http://www.w3.org/1999/xlink">
<g id="graph0" class="graph" transform="scale(1 1) rotate(0) translate(4 102)">
<title>labs/lab&#45;06/source/poisson.cc</title>
<!-- Node1 -->
<g id="node1" class="node">
<title>Node1</title>
<g id="a_node1"><a xlink:title=" ">
<polygon fill="#bfbfbf" stroke="black" points="687.5,-67.5 687.5,-97.5 793.5,-97.5 793.5,-67.5 687.5,-67.5"/>
<text text-anchor="start" x="695.5" y="-85.5" font-family="Helvetica,sans-Serif" font-size="10.00">labs/lab&#45;06/source</text>
<text text-anchor="middle" x="740.5" y="-74.5" font-family="Helvetica,sans-Serif" font-size="10.00">/poisson.cc</text>
</a>
</g>
</g>
<!-- Node2 -->
<g id="node2" class="node">
<title>Node2</title>
<g id="a_node2"><a xlink:title=" ">
<polygon fill="none" stroke="#bfbfbf" points="0,-6 0,-25 63,-25 63,-6 0,-6"/>
<text text-anchor="middle" x="31.5" y="-13" font-family="Helvetica,sans-Serif" font-size="10.00">poisson.h</text>
</a>
</g>
</g>
<!-- Node1&#45;&gt;Node2 -->
<g id="edge1" class="edge">
<title>Node1&#45;&gt;Node2</title>
<path fill="none" stroke="midnightblue" d="M687.33,-82.36C573.17,-83.14 296.7,-79.37 71.5,-31 68.25,-30.3 64.91,-29.4 61.6,-28.39"/>
<polygon fill="midnightblue" stroke="midnightblue" points="62.54,-25.01 51.95,-25.12 60.3,-31.64 62.54,-25.01"/>
</g>
<!-- Node3 -->
<g id="node3" class="node">
<title>Node3</title>
<g id="a_node3"><a xlink:href="http://www.dealii.org/developer/doxygen/deal.II/multithread__info_8h.html.html" xlink:title=" ">
<polygon fill="none" stroke="black" points="81,-0.5 81,-30.5 214,-30.5 214,-0.5 81,-0.5"/>
<text text-anchor="start" x="89" y="-18.5" font-family="Helvetica,sans-Serif" font-size="10.00">deal.II/base/multithread</text>
<text text-anchor="middle" x="147.5" y="-7.5" font-family="Helvetica,sans-Serif" font-size="10.00">_info.h</text>
</a>
</g>
</g>
<!-- Node1&#45;&gt;Node3 -->
<g id="edge2" class="edge">
<title>Node1&#45;&gt;Node3</title>
<path fill="none" stroke="midnightblue" d="M687.36,-77.97C595.05,-71.48 398.96,-56.1 224,-31.14"/>
<polygon fill="midnightblue" stroke="midnightblue" points="224.5,-27.67 214.1,-29.71 223.5,-34.6 224.5,-27.67"/>
</g>
<!-- Node4 -->
<g id="node4" class="node">
<title>Node4</title>
<g id="a_node4"><a xlink:href="http://www.dealii.org/developer/doxygen/deal.II/thread__management_8h.html.html" xlink:title=" ">
<polygon fill="none" stroke="black" points="232,-0.5 232,-30.5 339,-30.5 339,-0.5 232,-0.5"/>
<text text-anchor="start" x="240" y="-18.5" font-family="Helvetica,sans-Serif" font-size="10.00">deal.II/base/thread</text>
<text text-anchor="middle" x="285.5" y="-7.5" font-family="Helvetica,sans-Serif" font-size="10.00">_management.h</text>
</a>
</g>
</g>
<!-- Node1&#45;&gt;Node4 -->
<g id="edge3" class="edge">
<title>Node1&#45;&gt;Node4</title>
<path fill="none" stroke="midnightblue" d="M687.48,-76.42C613.65,-68.97 475.57,-53.64 349.06,-31.18"/>
<polygon fill="midnightblue" stroke="midnightblue" points="349.66,-27.73 339.2,-29.41 348.42,-34.62 349.66,-27.73"/>
</g>
<!-- Node5 -->
<g id="node5" class="node">
<title>Node5</title>
<g id="a_node5"><a xlink:href="http://www.dealii.org/developer/doxygen/deal.II/work__stream_8h.html.html" xlink:title=" ">
<polygon fill="none" stroke="black" points="357,-6 357,-25 506,-25 506,-6 357,-6"/>
<text text-anchor="middle" x="431.5" y="-13" font-family="Helvetica,sans-Serif" font-size="10.00">deal.II/base/work_stream.h</text>
</a>
</g>
</g>
<!-- Node1&#45;&gt;Node5 -->
<g id="edge4" class="edge">
<title>Node1&#45;&gt;Node5</title>
<path fill="none" stroke="midnightblue" d="M687.38,-70.33C629.76,-58.2 538.45,-39 481.91,-27.1"/>
<polygon fill="midnightblue" stroke="midnightblue" points="482.62,-23.68 472.11,-25.04 481.18,-30.53 482.62,-23.68"/>
</g>
<!-- Node6 -->
<g id="node6" class="node">
<title>Node6</title>
<g id="a_node6"><a xlink:href="http://www.dealii.org/developer/doxygen/deal.II/grid__out_8h.html.html" xlink:title=" ">
<polygon fill="none" stroke="black" points="523.5,-6 523.5,-25 643.5,-25 643.5,-6 523.5,-6"/>
<text text-anchor="middle" x="583.5" y="-13" font-family="Helvetica,sans-Serif" font-size="10.00">deal.II/grid/grid_out.h</text>
</a>
</g>
</g>
<!-- Node1&#45;&gt;Node6 -->
<g id="edge5" class="edge">
<title>Node1&#45;&gt;Node6</title>
<path fill="none" stroke="midnightblue" d="M706.43,-67.4C678.76,-55.94 640.11,-39.94 613.58,-28.95"/>
<polygon fill="midnightblue" stroke="midnightblue" points="614.63,-25.6 604.05,-25.01 611.95,-32.07 614.63,-25.6"/>
</g>
<!-- Node7 -->
<g id="node7" class="node">
<title>Node7</title>
<g id="a_node7"><a xlink:href="http://www.dealii.org/developer/doxygen/deal.II/grid_2grid__refinement_8h.html.html" xlink:title=" ">
<polygon fill="none" stroke="black" points="661.5,-6 661.5,-25 819.5,-25 819.5,-6 661.5,-6"/>
<text text-anchor="middle" x="740.5" y="-13" font-family="Helvetica,sans-Serif" font-size="10.00">deal.II/grid/grid_refinement.h</text>
</a>
</g>
</g>
<!-- Node1&#45;&gt;Node7 -->
<g id="edge6" class="edge">
<title>Node1&#45;&gt;Node7</title>
<path fill="none" stroke="midnightblue" d="M740.5,-67.4C740.5,-58.06 740.5,-45.71 740.5,-35.52"/>
<polygon fill="midnightblue" stroke="midnightblue" points="744,-35.19 740.5,-25.19 737,-35.19 744,-35.19"/>
</g>
<!-- Node8 -->
<g id="node8" class="node">
<title>Node8</title>
<g id="a_node8"><a xlink:href="http://www.dealii.org/developer/doxygen/deal.II/sparse__direct_8h.html.html" xlink:title=" ">
<polygon fill="none" stroke="black" points="838,-0.5 838,-30.5 937,-30.5 937,-0.5 838,-0.5"/>
<text text-anchor="start" x="846" y="-18.5" font-family="Helvetica,sans-Serif" font-size="10.00">deal.II/lac/sparse</text>
<text text-anchor="middle" x="887.5" y="-7.5" font-family="Helvetica,sans-Serif" font-size="10.00">_direct.h</text>
</a>
</g>
</g>
<!-- Node1&#45;&gt;Node8 -->
<g id="edge7" class="edge">
<title>Node1&#45;&gt;Node8</title>
<path fill="none" stroke="midnightblue" d="M772.4,-67.4C794.07,-57.81 822.93,-45.05 846.34,-34.7"/>
<polygon fill="midnightblue" stroke="midnightblue" points="847.94,-37.82 855.67,-30.58 845.1,-31.42 847.94,-37.82"/>
</g>
<!-- Node9 -->
<g id="node9" class="node">
<title>Node9</title>
<g id="a_node9"><a xlink:href="http://www.dealii.org/developer/doxygen/deal.II/trilinos__precondition_8h.html.html" xlink:title=" ">
<polygon fill="none" stroke="black" points="955,-0.5 955,-30.5 1056,-30.5 1056,-0.5 955,-0.5"/>
<text text-anchor="start" x="963" y="-18.5" font-family="Helvetica,sans-Serif" font-size="10.00">deal.II/lac/trilinos</text>
<text text-anchor="middle" x="1005.5" y="-7.5" font-family="Helvetica,sans-Serif" font-size="10.00">_precondition.h</text>
</a>
</g>
</g>
<!-- Node1&#45;&gt;Node9 -->
<g id="edge8" class="edge">
<title>Node1&#45;&gt;Node9</title>
<path fill="none" stroke="midnightblue" d="M793.85,-68.43C833.17,-58.8 888.22,-45.3 945.09,-31.35"/>
<polygon fill="midnightblue" stroke="midnightblue" points="946.09,-34.7 954.97,-28.92 944.42,-27.91 946.09,-34.7"/>
</g>
<!-- Node10 -->
<g id="node10" class="node">
<title>Node10</title>
<g id="a_node10"><a xlink:href="http://www.dealii.org/developer/doxygen/deal.II/copy__data_8h.html.html" xlink:title=" ">
<polygon fill="none" stroke="black" points="1074.5,-0.5 1074.5,-30.5 1184.5,-30.5 1184.5,-0.5 1074.5,-0.5"/>
<text text-anchor="start" x="1082.5" y="-18.5" font-family="Helvetica,sans-Serif" font-size="10.00">deal.II/meshworker</text>
<text text-anchor="middle" x="1129.5" y="-7.5" font-family="Helvetica,sans-Serif" font-size="10.00">/copy_data.h</text>
</a>
</g>
</g>
<!-- Node1&#45;&gt;Node10 -->
<g id="edge9" class="edge">
<title>Node1&#45;&gt;Node10</title>
<path fill="none" stroke="midnightblue" d="M793.61,-74.39C856.04,-65.78 962.98,-50.23 1064.29,-31.15"/>
<polygon fill="midnightblue" stroke="midnightblue" points="1065.22,-34.54 1074.39,-29.24 1063.91,-27.66 1065.22,-34.54"/>
</g>
<!-- Node11 -->
<g id="node11" class="node">
<title>Node11</title>
<g id="a_node11"><a xlink:href="http://www.dealii.org/developer/doxygen/deal.II/scratch__data_8h.html.html" xlink:title=" ">
<polygon fill="none" stroke="black" points="1202.5,-0.5 1202.5,-30.5 1312.5,-30.5 1312.5,-0.5 1202.5,-0.5"/>
<text text-anchor="start" x="1210.5" y="-18.5" font-family="Helvetica,sans-Serif" font-size="10.00">deal.II/meshworker</text>
<text text-anchor="middle" x="1257.5" y="-7.5" font-family="Helvetica,sans-Serif" font-size="10.00">/scratch_data.h</text>
</a>
</g>
</g>
<!-- Node1&#45;&gt;Node11 -->
<g id="edge10" class="edge">
<title>Node1&#45;&gt;Node11</title>
<path fill="none" stroke="midnightblue" d="M793.77,-77.5C876.81,-70.85 1042.27,-55.88 1192.12,-31.11"/>
<polygon fill="midnightblue" stroke="midnightblue" points="1193.13,-34.49 1202.42,-29.39 1191.98,-27.59 1193.13,-34.49"/>
</g>
<!-- Node12 -->
<g id="node12" class="node">
<title>Node12</title>
<g id="a_node12"><a xlink:href="http://www.dealii.org/developer/doxygen/deal.II/error__estimator_8h.html.html" xlink:title=" ">
<polygon fill="none" stroke="black" points="1331,-0.5 1331,-30.5 1452,-30.5 1452,-0.5 1331,-0.5"/>
<text text-anchor="start" x="1339" y="-18.5" font-family="Helvetica,sans-Serif" font-size="10.00">deal.II/numerics/error</text>
<text text-anchor="middle" x="1391.5" y="-7.5" font-family="Helvetica,sans-Serif" font-size="10.00">_estimator.h</text>
</a>
</g>
</g>
<!-- Node1&#45;&gt;Node12 -->
<g id="edge11" class="edge">
<title>Node1&#45;&gt;Node12</title>
<path fill="none" stroke="midnightblue" d="M793.61,-78.98C894.41,-73.73 1120.49,-59.8 1320.75,-30.99"/>
<polygon fill="midnightblue" stroke="midnightblue" points="1321.48,-34.42 1330.87,-29.51 1320.47,-27.49 1321.48,-34.42"/>
</g>
</g>
</svg>
