<?xml version="1.0" encoding="UTF-8" standalone="no"?>
<!DOCTYPE svg PUBLIC "-//W3C//DTD SVG 1.1//EN"
 "http://www.w3.org/Graphics/SVG/1.1/DTD/svg11.dtd">
<!-- Generated by graphviz version 2.43.0 (0)
 -->
<!-- Title: labs/lab&#45;06/include/poisson_tester.h Pages: 1 -->
<svg width="3924pt" height="162pt"
 viewBox="0.00 0.00 3923.50 162.00" xmlns="http://www.w3.org/2000/svg" xmlns:xlink="http://www.w3.org/1999/xlink">
<g id="graph0" class="graph" transform="scale(1 1) rotate(0) translate(4 158)">
<title>labs/lab&#45;06/include/poisson_tester.h</title>
<!-- Node1 -->
<g id="node1" class="node">
<title>Node1</title>
<g id="a_node1"><a xlink:title=" ">
<polygon fill="#bfbfbf" stroke="black" points="884,-123.5 884,-153.5 993,-153.5 993,-123.5 884,-123.5"/>
<text text-anchor="start" x="892" y="-141.5" font-family="Helvetica,sans-Serif" font-size="10.00">labs/lab&#45;06/include</text>
<text text-anchor="middle" x="938.5" y="-130.5" font-family="Helvetica,sans-Serif" font-size="10.00">/poisson_tester.h</text>
</a>
</g>
</g>
<!-- Node2 -->
<g id="node2" class="node">
<title>Node2</title>
<g id="a_node2"><a xlink:title=" ">
<polygon fill="none" stroke="#bfbfbf" points="832.5,-67.5 832.5,-86.5 910.5,-86.5 910.5,-67.5 832.5,-67.5"/>
<text text-anchor="middle" x="871.5" y="-74.5" font-family="Helvetica,sans-Serif" font-size="10.00">gtest/gtest.h</text>
</a>
</g>
</g>
<!-- Node1&#45;&gt;Node2 -->
<g id="edge1" class="edge">
<title>Node1&#45;&gt;Node2</title>
<path fill="none" stroke="midnightblue" d="M922.62,-123.4C912.48,-114.4 899.34,-102.72 888.91,-93.47"/>
<polygon fill="midnightblue" stroke="midnightblue" points="891.05,-90.68 881.25,-86.66 886.4,-95.92 891.05,-90.68"/>
</g>
<!-- Node3 -->
<g id="node3" class="node">
<title>Node3</title>
<g id="a_node3"><a xlink:title=" ">
<polygon fill="none" stroke="#bfbfbf" points="0,-6 0,-25 55,-25 55,-6 0,-6"/>
<text text-anchor="middle" x="27.5" y="-13" font-family="Helvetica,sans-Serif" font-size="10.00">fstream</text>
</a>
</g>
</g>
<!-- Node1&#45;&gt;Node3 -->
<g id="edge2" class="edge">
<title>Node1&#45;&gt;Node3</title>
<path fill="none" stroke="midnightblue" d="M939.2,-123.24C939.15,-106.82 936.23,-80.38 919.5,-67 845.17,-7.53 156.55,-51.07 63.5,-31 60.66,-30.39 57.75,-29.57 54.89,-28.63"/>
<polygon fill="midnightblue" stroke="midnightblue" points="56.03,-25.32 45.43,-25.12 53.59,-31.88 56.03,-25.32"/>
</g>
<!-- Node4 -->
<g id="node4" class="node">
<title>Node4</title>
<g id="a_node4"><a xlink:href="lab-06_2include_2poisson_8h.html" target="_top" xlink:title=" ">
<polygon fill="none" stroke="black" points="1878,-67.5 1878,-86.5 1941,-86.5 1941,-67.5 1878,-67.5"/>
<text text-anchor="middle" x="1909.5" y="-74.5" font-family="Helvetica,sans-Serif" font-size="10.00">poisson.h</text>
</a>
</g>
</g>
<!-- Node1&#45;&gt;Node4 -->
<g id="edge3" class="edge">
<title>Node1&#45;&gt;Node4</title>
<path fill="none" stroke="midnightblue" d="M993.14,-134.15C1168.05,-123.43 1711.85,-90.11 1867.49,-80.57"/>
<polygon fill="midnightblue" stroke="midnightblue" points="1867.83,-84.06 1877.59,-79.96 1867.4,-77.07 1867.83,-84.06"/>
</g>
<!-- Node4&#45;&gt;Node3 -->
<g id="edge32" class="edge">
<title>Node4&#45;&gt;Node3</title>
<path fill="none" stroke="midnightblue" d="M1877.66,-75.55C1640.49,-72.14 155.92,-50.08 63.5,-31 60.59,-30.4 57.62,-29.58 54.69,-28.62"/>
<polygon fill="midnightblue" stroke="midnightblue" points="55.64,-25.25 45.05,-25.03 53.2,-31.8 55.64,-25.25"/>
</g>
<!-- Node5 -->
<g id="node5" class="node">
<title>Node5</title>
<g id="a_node5"><a xlink:href="http://www.dealii.org/developer/doxygen/deal.II/function_8h.html.html" xlink:title=" ">
<polygon fill="none" stroke="black" points="73,-6 73,-25 198,-25 198,-6 73,-6"/>
<text text-anchor="middle" x="135.5" y="-13" font-family="Helvetica,sans-Serif" font-size="10.00">deal.II/base/function.h</text>
</a>
</g>
</g>
<!-- Node4&#45;&gt;Node5 -->
<g id="edge4" class="edge">
<title>Node4&#45;&gt;Node5</title>
<path fill="none" stroke="midnightblue" d="M1877.74,-75.91C1674.05,-75.2 548.95,-69.6 207.5,-31 199.03,-30.04 190.08,-28.6 181.47,-26.98"/>
<polygon fill="midnightblue" stroke="midnightblue" points="182.05,-23.53 171.57,-25.03 180.7,-30.4 182.05,-23.53"/>
</g>
<!-- Node6 -->
<g id="node6" class="node">
<title>Node6</title>
<g id="a_node6"><a xlink:href="http://www.dealii.org/developer/doxygen/deal.II/function__parser_8h.html.html" xlink:title=" ">
<polygon fill="none" stroke="black" points="216.5,-0.5 216.5,-30.5 332.5,-30.5 332.5,-0.5 216.5,-0.5"/>
<text text-anchor="start" x="224.5" y="-18.5" font-family="Helvetica,sans-Serif" font-size="10.00">deal.II/base/function</text>
<text text-anchor="middle" x="274.5" y="-7.5" font-family="Helvetica,sans-Serif" font-size="10.00">_parser.h</text>
</a>
</g>
</g>
<!-- Node4&#45;&gt;Node6 -->
<g id="edge5" class="edge">
<title>Node4&#45;&gt;Node6</title>
<path fill="none" stroke="midnightblue" d="M1877.76,-75.89C1685.62,-75.08 675.44,-69.15 342.97,-30.99"/>
<polygon fill="midnightblue" stroke="midnightblue" points="343.2,-27.49 332.86,-29.79 342.38,-34.44 343.2,-27.49"/>
</g>
<!-- Node7 -->
<g id="node7" class="node">
<title>Node7</title>
<g id="a_node7"><a xlink:href="http://www.dealii.org/developer/doxygen/deal.II/parameter__acceptor_8h.html.html" xlink:title=" ">
<polygon fill="none" stroke="black" points="351,-0.5 351,-30.5 478,-30.5 478,-0.5 351,-0.5"/>
<text text-anchor="start" x="359" y="-18.5" font-family="Helvetica,sans-Serif" font-size="10.00">deal.II/base/parameter</text>
<text text-anchor="middle" x="414.5" y="-7.5" font-family="Helvetica,sans-Serif" font-size="10.00">_acceptor.h</text>
</a>
</g>
</g>
<!-- Node4&#45;&gt;Node7 -->
<g id="edge6" class="edge">
<title>Node4&#45;&gt;Node7</title>
<path fill="none" stroke="midnightblue" d="M1877.78,-75.72C1696.55,-74 789.86,-63.93 488.06,-31.02"/>
<polygon fill="midnightblue" stroke="midnightblue" points="488.34,-27.53 478.01,-29.89 487.56,-34.49 488.34,-27.53"/>
</g>
<!-- Node8 -->
<g id="node8" class="node">
<title>Node8</title>
<g id="a_node8"><a xlink:href="http://www.dealii.org/developer/doxygen/deal.II/parsed__convergence__table_8h.html.html" xlink:title=" ">
<polygon fill="none" stroke="black" points="496,-0.5 496,-30.5 619,-30.5 619,-0.5 496,-0.5"/>
<text text-anchor="start" x="504" y="-18.5" font-family="Helvetica,sans-Serif" font-size="10.00">deal.II/base/parsed</text>
<text text-anchor="middle" x="557.5" y="-7.5" font-family="Helvetica,sans-Serif" font-size="10.00">_convergence_table.h</text>
</a>
</g>
</g>
<!-- Node4&#45;&gt;Node8 -->
<g id="edge7" class="edge">
<title>Node4&#45;&gt;Node8</title>
<path fill="none" stroke="midnightblue" d="M1877.89,-75.62C1708.03,-73.44 901.39,-61.73 629.46,-31.07"/>
<polygon fill="midnightblue" stroke="midnightblue" points="629.58,-27.56 619.24,-29.88 628.77,-34.51 629.58,-27.56"/>
</g>
<!-- Node9 -->
<g id="node9" class="node">
<title>Node9</title>
<g id="a_node9"><a xlink:href="http://www.dealii.org/developer/doxygen/deal.II/quadrature__lib_8h.html.html" xlink:title=" ">
<polygon fill="none" stroke="black" points="637,-0.5 637,-30.5 766,-30.5 766,-0.5 637,-0.5"/>
<text text-anchor="start" x="645" y="-18.5" font-family="Helvetica,sans-Serif" font-size="10.00">deal.II/base/quadrature</text>
<text text-anchor="middle" x="701.5" y="-7.5" font-family="Helvetica,sans-Serif" font-size="10.00">_lib.h</text>
</a>
</g>
</g>
<!-- Node4&#45;&gt;Node9 -->
<g id="edge8" class="edge">
<title>Node4&#45;&gt;Node9</title>
<path fill="none" stroke="midnightblue" d="M1877.93,-75.42C1720.33,-72.4 1017.21,-57.76 776.38,-31.07"/>
<polygon fill="midnightblue" stroke="midnightblue" points="776.63,-27.58 766.29,-29.92 775.83,-34.53 776.63,-27.58"/>
</g>
<!-- Node10 -->
<g id="node10" class="node">
<title>Node10</title>
<g id="a_node10"><a xlink:href="http://www.dealii.org/developer/doxygen/deal.II/timer_8h.html.html" xlink:title=" ">
<polygon fill="none" stroke="black" points="784,-6 784,-25 895,-25 895,-6 784,-6"/>
<text text-anchor="middle" x="839.5" y="-13" font-family="Helvetica,sans-Serif" font-size="10.00">deal.II/base/timer.h</text>
</a>
</g>
</g>
<!-- Node4&#45;&gt;Node10 -->
<g id="edge9" class="edge">
<title>Node4&#45;&gt;Node10</title>
<path fill="none" stroke="midnightblue" d="M1877.89,-75.34C1729.22,-72.15 1098.64,-57.26 903.5,-31 896.52,-30.06 889.18,-28.73 882.06,-27.25"/>
<polygon fill="midnightblue" stroke="midnightblue" points="882.37,-23.74 871.85,-25.01 880.87,-30.57 882.37,-23.74"/>
</g>
<!-- Node11 -->
<g id="node11" class="node">
<title>Node11</title>
<g id="a_node11"><a xlink:href="http://www.dealii.org/developer/doxygen/deal.II/distributed_2grid__refinement_8h.html.html" xlink:title=" ">
<polygon fill="none" stroke="black" points="913,-0.5 913,-30.5 1020,-30.5 1020,-0.5 913,-0.5"/>
<text text-anchor="start" x="921" y="-18.5" font-family="Helvetica,sans-Serif" font-size="10.00">deal.II/distributed</text>
<text text-anchor="middle" x="966.5" y="-7.5" font-family="Helvetica,sans-Serif" font-size="10.00">/grid_refinement.h</text>
</a>
</g>
</g>
<!-- Node4&#45;&gt;Node11 -->
<g id="edge10" class="edge">
<title>Node4&#45;&gt;Node11</title>
<path fill="none" stroke="midnightblue" d="M1877.74,-76.38C1764.02,-77.3 1366.52,-76.94 1030.27,-30.92"/>
<polygon fill="midnightblue" stroke="midnightblue" points="1030.73,-27.45 1020.34,-29.54 1029.77,-34.38 1030.73,-27.45"/>
</g>
<!-- Node12 -->
<g id="node12" class="node">
<title>Node12</title>
<g id="a_node12"><a xlink:href="http://www.dealii.org/developer/doxygen/deal.II/distributed_2tria_8h.html.html" xlink:title=" ">
<polygon fill="none" stroke="black" points="1038.5,-0.5 1038.5,-30.5 1140.5,-30.5 1140.5,-0.5 1038.5,-0.5"/>
<text text-anchor="start" x="1046.5" y="-18.5" font-family="Helvetica,sans-Serif" font-size="10.00">deal.II/distributed</text>
<text text-anchor="middle" x="1089.5" y="-7.5" font-family="Helvetica,sans-Serif" font-size="10.00">/tria.h</text>
</a>
</g>
</g>
<!-- Node4&#45;&gt;Node12 -->
<g id="edge11" class="edge">
<title>Node4&#45;&gt;Node12</title>
<path fill="none" stroke="midnightblue" d="M1877.8,-76.13C1774.4,-76.15 1437.6,-72.87 1150.94,-31.03"/>
<polygon fill="midnightblue" stroke="midnightblue" points="1151.17,-27.53 1140.77,-29.52 1150.15,-34.45 1151.17,-27.53"/>
</g>
<!-- Node13 -->
<g id="node13" class="node">
<title>Node13</title>
<g id="a_node13"><a xlink:href="http://www.dealii.org/developer/doxygen/deal.II/dofs_2dof__handler_8h.html.html" xlink:title=" ">
<polygon fill="none" stroke="black" points="1158.5,-6 1158.5,-25 1298.5,-25 1298.5,-6 1158.5,-6"/>
<text text-anchor="middle" x="1228.5" y="-13" font-family="Helvetica,sans-Serif" font-size="10.00">deal.II/dofs/dof_handler.h</text>
</a>
</g>
</g>
<!-- Node4&#45;&gt;Node13 -->
<g id="edge12" class="edge">
<title>Node4&#45;&gt;Node13</title>
<path fill="none" stroke="midnightblue" d="M1877.72,-74.82C1787.88,-71.24 1524.49,-58.94 1307.5,-31 1298.66,-29.86 1289.3,-28.39 1280.25,-26.82"/>
<polygon fill="midnightblue" stroke="midnightblue" points="1280.65,-23.33 1270.19,-25.01 1279.41,-30.22 1280.65,-23.33"/>
</g>
<!-- Node14 -->
<g id="node14" class="node">
<title>Node14</title>
<g id="a_node14"><a xlink:href="http://www.dealii.org/developer/doxygen/deal.II/dof__tools_8h.html.html" xlink:title=" ">
<polygon fill="none" stroke="black" points="1316.5,-6 1316.5,-25 1444.5,-25 1444.5,-6 1316.5,-6"/>
<text text-anchor="middle" x="1380.5" y="-13" font-family="Helvetica,sans-Serif" font-size="10.00">deal.II/dofs/dof_tools.h</text>
</a>
</g>
</g>
<!-- Node4&#45;&gt;Node14 -->
<g id="edge13" class="edge">
<title>Node4&#45;&gt;Node14</title>
<path fill="none" stroke="midnightblue" d="M1877.86,-73.95C1803.52,-68.89 1612.06,-54.51 1453.5,-31 1445.77,-29.85 1437.62,-28.44 1429.68,-26.95"/>
<polygon fill="midnightblue" stroke="midnightblue" points="1430.26,-23.5 1419.78,-25.03 1428.93,-30.37 1430.26,-23.5"/>
</g>
<!-- Node15 -->
<g id="node15" class="node">
<title>Node15</title>
<g id="a_node15"><a xlink:href="http://www.dealii.org/developer/doxygen/deal.II/fe__q_8h.html.html" xlink:title=" ">
<polygon fill="none" stroke="black" points="1462.5,-6 1462.5,-25 1554.5,-25 1554.5,-6 1462.5,-6"/>
<text text-anchor="middle" x="1508.5" y="-13" font-family="Helvetica,sans-Serif" font-size="10.00">deal.II/fe/fe_q.h</text>
</a>
</g>
</g>
<!-- Node4&#45;&gt;Node15 -->
<g id="edge14" class="edge">
<title>Node4&#45;&gt;Node15</title>
<path fill="none" stroke="midnightblue" d="M1877.79,-73.25C1816.63,-67.64 1678.23,-53.49 1563.5,-31 1558.42,-30 1553.12,-28.81 1547.89,-27.54"/>
<polygon fill="midnightblue" stroke="midnightblue" points="1548.58,-24.1 1538.02,-25.03 1546.85,-30.88 1548.58,-24.1"/>
</g>
<!-- Node16 -->
<g id="node16" class="node">
<title>Node16</title>
<g id="a_node16"><a xlink:href="http://www.dealii.org/developer/doxygen/deal.II/fe_2fe__values_8h.html.html" xlink:title=" ">
<polygon fill="none" stroke="black" points="1573,-6 1573,-25 1692,-25 1692,-6 1573,-6"/>
<text text-anchor="middle" x="1632.5" y="-13" font-family="Helvetica,sans-Serif" font-size="10.00">deal.II/fe/fe_values.h</text>
</a>
</g>
</g>
<!-- Node4&#45;&gt;Node16 -->
<g id="edge15" class="edge">
<title>Node4&#45;&gt;Node16</title>
<path fill="none" stroke="midnightblue" d="M1877.99,-69.23C1830.24,-58.97 1739.09,-39.4 1682.3,-27.2"/>
<polygon fill="midnightblue" stroke="midnightblue" points="1682.97,-23.76 1672.46,-25.08 1681.5,-30.6 1682.97,-23.76"/>
</g>
<!-- Node17 -->
<g id="node17" class="node">
<title>Node17</title>
<g id="a_node17"><a xlink:href="http://www.dealii.org/developer/doxygen/deal.II/mapping__q__generic_8h.html.html" xlink:title=" ">
<polygon fill="none" stroke="black" points="1710,-0.5 1710,-30.5 1815,-30.5 1815,-0.5 1710,-0.5"/>
<text text-anchor="start" x="1718" y="-18.5" font-family="Helvetica,sans-Serif" font-size="10.00">deal.II/fe/mapping</text>
<text text-anchor="middle" x="1762.5" y="-7.5" font-family="Helvetica,sans-Serif" font-size="10.00">_q_generic.h</text>
</a>
</g>
</g>
<!-- Node4&#45;&gt;Node17 -->
<g id="edge16" class="edge">
<title>Node4&#45;&gt;Node17</title>
<path fill="none" stroke="midnightblue" d="M1888.44,-67.48C1867.13,-58.85 1833.56,-45.26 1806.44,-34.29"/>
<polygon fill="midnightblue" stroke="midnightblue" points="1807.73,-31.03 1797.14,-30.52 1805.1,-37.52 1807.73,-31.03"/>
</g>
<!-- Node18 -->
<g id="node18" class="node">
<title>Node18</title>
<g id="a_node18"><a xlink:href="http://www.dealii.org/developer/doxygen/deal.II/grid__generator_8h.html.html" xlink:title=" ">
<polygon fill="none" stroke="black" points="1833.5,-6 1833.5,-25 1985.5,-25 1985.5,-6 1833.5,-6"/>
<text text-anchor="middle" x="1909.5" y="-13" font-family="Helvetica,sans-Serif" font-size="10.00">deal.II/grid/grid_generator.h</text>
</a>
</g>
</g>
<!-- Node4&#45;&gt;Node18 -->
<g id="edge17" class="edge">
<title>Node4&#45;&gt;Node18</title>
<path fill="none" stroke="midnightblue" d="M1909.5,-67.48C1909.5,-59.08 1909.5,-45.98 1909.5,-35.16"/>
<polygon fill="midnightblue" stroke="midnightblue" points="1913,-35.01 1909.5,-25.01 1906,-35.01 1913,-35.01"/>
</g>
<!-- Node19 -->
<g id="node19" class="node">
<title>Node19</title>
<g id="a_node19"><a xlink:href="http://www.dealii.org/developer/doxygen/deal.II/grid_2tria_8h.html.html" xlink:title=" ">
<polygon fill="none" stroke="black" points="2004,-6 2004,-25 2101,-25 2101,-6 2004,-6"/>
<text text-anchor="middle" x="2052.5" y="-13" font-family="Helvetica,sans-Serif" font-size="10.00">deal.II/grid/tria.h</text>
</a>
</g>
</g>
<!-- Node4&#45;&gt;Node19 -->
<g id="edge18" class="edge">
<title>Node4&#45;&gt;Node19</title>
<path fill="none" stroke="midnightblue" d="M1929.99,-67.48C1954.31,-57.36 1995.05,-40.4 2022.82,-28.85"/>
<polygon fill="midnightblue" stroke="midnightblue" points="2024.16,-32.08 2032.05,-25.01 2021.47,-25.62 2024.16,-32.08"/>
</g>
<!-- Node20 -->
<g id="node20" class="node">
<title>Node20</title>
<g id="a_node20"><a xlink:href="http://www.dealii.org/developer/doxygen/deal.II/affine__constraints_8h.html.html" xlink:title=" ">
<polygon fill="none" stroke="black" points="2119,-0.5 2119,-30.5 2214,-30.5 2214,-0.5 2119,-0.5"/>
<text text-anchor="start" x="2127" y="-18.5" font-family="Helvetica,sans-Serif" font-size="10.00">deal.II/lac/affine</text>
<text text-anchor="middle" x="2166.5" y="-7.5" font-family="Helvetica,sans-Serif" font-size="10.00">_constraints.h</text>
</a>
</g>
</g>
<!-- Node4&#45;&gt;Node20 -->
<g id="edge19" class="edge">
<title>Node4&#45;&gt;Node20</title>
<path fill="none" stroke="midnightblue" d="M1941.25,-69.23C1979,-61.11 2044.13,-46.87 2108.9,-31.35"/>
<polygon fill="midnightblue" stroke="midnightblue" points="2109.96,-34.69 2118.87,-28.95 2108.33,-27.89 2109.96,-34.69"/>
</g>
<!-- Node21 -->
<g id="node21" class="node">
<title>Node21</title>
<g id="a_node21"><a xlink:href="http://www.dealii.org/developer/doxygen/deal.II/dynamic__sparsity__pattern_8h.html.html" xlink:title=" ">
<polygon fill="none" stroke="black" points="2232.5,-0.5 2232.5,-30.5 2342.5,-30.5 2342.5,-0.5 2232.5,-0.5"/>
<text text-anchor="start" x="2240.5" y="-18.5" font-family="Helvetica,sans-Serif" font-size="10.00">deal.II/lac/dynamic</text>
<text text-anchor="middle" x="2287.5" y="-7.5" font-family="Helvetica,sans-Serif" font-size="10.00">_sparsity_pattern.h</text>
</a>
</g>
</g>
<!-- Node4&#45;&gt;Node21 -->
<g id="edge20" class="edge">
<title>Node4&#45;&gt;Node21</title>
<path fill="none" stroke="midnightblue" d="M1941.28,-72.3C1996.41,-65.71 2113.5,-50.88 2222.24,-31.14"/>
<polygon fill="midnightblue" stroke="midnightblue" points="2223.2,-34.53 2232.4,-29.28 2221.93,-27.64 2223.2,-34.53"/>
</g>
<!-- Node22 -->
<g id="node22" class="node">
<title>Node22</title>
<g id="a_node22"><a xlink:href="http://www.dealii.org/developer/doxygen/deal.II/full__matrix_8h.html.html" xlink:title=" ">
<polygon fill="none" stroke="black" points="2361,-6 2361,-25 2490,-25 2490,-6 2361,-6"/>
<text text-anchor="middle" x="2425.5" y="-13" font-family="Helvetica,sans-Serif" font-size="10.00">deal.II/lac/full_matrix.h</text>
</a>
</g>
</g>
<!-- Node4&#45;&gt;Node22 -->
<g id="edge21" class="edge">
<title>Node4&#45;&gt;Node22</title>
<path fill="none" stroke="midnightblue" d="M1941.25,-73.78C2014.05,-68.46 2198.53,-53.72 2351.5,-31 2359.33,-29.84 2367.59,-28.41 2375.64,-26.92"/>
<polygon fill="midnightblue" stroke="midnightblue" points="2376.51,-30.32 2385.68,-25 2375.2,-23.44 2376.51,-30.32"/>
</g>
<!-- Node23 -->
<g id="node23" class="node">
<title>Node23</title>
<g id="a_node23"><a xlink:href="http://www.dealii.org/developer/doxygen/deal.II/generic__linear__algebra_8h.html.html" xlink:title=" ">
<polygon fill="none" stroke="black" points="2508,-0.5 2508,-30.5 2611,-30.5 2611,-0.5 2508,-0.5"/>
<text text-anchor="start" x="2516" y="-18.5" font-family="Helvetica,sans-Serif" font-size="10.00">deal.II/lac/generic</text>
<text text-anchor="middle" x="2559.5" y="-7.5" font-family="Helvetica,sans-Serif" font-size="10.00">_linear_algebra.h</text>
</a>
</g>
</g>
<!-- Node4&#45;&gt;Node23 -->
<g id="edge22" class="edge">
<title>Node4&#45;&gt;Node23</title>
<path fill="none" stroke="midnightblue" d="M1941.05,-75.38C2028.28,-73.28 2280.15,-64.68 2497.88,-31.1"/>
<polygon fill="midnightblue" stroke="midnightblue" points="2498.56,-34.53 2507.9,-29.53 2497.47,-27.62 2498.56,-34.53"/>
</g>
<!-- Node24 -->
<g id="node24" class="node">
<title>Node24</title>
<g id="a_node24"><a xlink:href="http://www.dealii.org/developer/doxygen/deal.II/precondition_8h.html.html" xlink:title=" ">
<polygon fill="none" stroke="black" points="2629,-6 2629,-25 2766,-25 2766,-6 2629,-6"/>
<text text-anchor="middle" x="2697.5" y="-13" font-family="Helvetica,sans-Serif" font-size="10.00">deal.II/lac/precondition.h</text>
</a>
</g>
</g>
<!-- Node4&#45;&gt;Node24 -->
<g id="edge23" class="edge">
<title>Node4&#45;&gt;Node24</title>
<path fill="none" stroke="midnightblue" d="M1941.17,-75.38C2041.22,-73.14 2359.4,-63.72 2620.5,-31 2629.23,-29.91 2638.46,-28.44 2647.38,-26.86"/>
<polygon fill="midnightblue" stroke="midnightblue" points="2648.08,-30.29 2657.28,-25.04 2646.82,-23.4 2648.08,-30.29"/>
</g>
<!-- Node25 -->
<g id="node25" class="node">
<title>Node25</title>
<g id="a_node25"><a xlink:href="http://www.dealii.org/developer/doxygen/deal.II/solver__cg_8h.html.html" xlink:title=" ">
<polygon fill="none" stroke="black" points="2784.5,-6 2784.5,-25 2906.5,-25 2906.5,-6 2784.5,-6"/>
<text text-anchor="middle" x="2845.5" y="-13" font-family="Helvetica,sans-Serif" font-size="10.00">deal.II/lac/solver_cg.h</text>
</a>
</g>
</g>
<!-- Node4&#45;&gt;Node25 -->
<g id="edge24" class="edge">
<title>Node4&#45;&gt;Node25</title>
<path fill="none" stroke="midnightblue" d="M1941.11,-76.09C2054.54,-76.05 2451.48,-72.73 2775.5,-31 2783.38,-29.99 2791.69,-28.57 2799.73,-27.02"/>
<polygon fill="midnightblue" stroke="midnightblue" points="2800.6,-30.42 2809.71,-25.01 2799.21,-23.56 2800.6,-30.42"/>
</g>
<!-- Node26 -->
<g id="node26" class="node">
<title>Node26</title>
<g id="a_node26"><a xlink:href="http://www.dealii.org/developer/doxygen/deal.II/sparse__matrix_8h.html.html" xlink:title=" ">
<polygon fill="none" stroke="black" points="2925,-0.5 2925,-30.5 3024,-30.5 3024,-0.5 2925,-0.5"/>
<text text-anchor="start" x="2933" y="-18.5" font-family="Helvetica,sans-Serif" font-size="10.00">deal.II/lac/sparse</text>
<text text-anchor="middle" x="2974.5" y="-7.5" font-family="Helvetica,sans-Serif" font-size="10.00">_matrix.h</text>
</a>
</g>
</g>
<!-- Node4&#45;&gt;Node26 -->
<g id="edge25" class="edge">
<title>Node4&#45;&gt;Node26</title>
<path fill="none" stroke="midnightblue" d="M1941.12,-75.42C2087.44,-72.62 2700.4,-59.46 2914.55,-30.87"/>
<polygon fill="midnightblue" stroke="midnightblue" points="2915.32,-34.3 2924.74,-29.46 2914.36,-27.37 2915.32,-34.3"/>
</g>
<!-- Node27 -->
<g id="node27" class="node">
<title>Node27</title>
<g id="a_node27"><a xlink:href="http://www.dealii.org/developer/doxygen/deal.II/vector_8h.html.html" xlink:title=" ">
<polygon fill="none" stroke="black" points="3042,-6 3042,-25 3149,-25 3149,-6 3042,-6"/>
<text text-anchor="middle" x="3095.5" y="-13" font-family="Helvetica,sans-Serif" font-size="10.00">deal.II/lac/vector.h</text>
</a>
</g>
</g>
<!-- Node4&#45;&gt;Node27 -->
<g id="edge26" class="edge">
<title>Node4&#45;&gt;Node27</title>
<path fill="none" stroke="midnightblue" d="M1941.05,-75.55C2099.97,-73.14 2813.85,-60.81 3033.5,-31 3040.27,-30.08 3047.39,-28.76 3054.29,-27.29"/>
<polygon fill="midnightblue" stroke="midnightblue" points="3055.2,-30.67 3064.17,-25.04 3053.65,-23.84 3055.2,-30.67"/>
</g>
<!-- Node28 -->
<g id="node28" class="node">
<title>Node28</title>
<g id="a_node28"><a xlink:href="http://www.dealii.org/developer/doxygen/deal.II/copy__data_8h.html.html" xlink:title=" ">
<polygon fill="none" stroke="black" points="3167.5,-0.5 3167.5,-30.5 3277.5,-30.5 3277.5,-0.5 3167.5,-0.5"/>
<text text-anchor="start" x="3175.5" y="-18.5" font-family="Helvetica,sans-Serif" font-size="10.00">deal.II/meshworker</text>
<text text-anchor="middle" x="3222.5" y="-7.5" font-family="Helvetica,sans-Serif" font-size="10.00">/copy_data.h</text>
</a>
</g>
</g>
<!-- Node4&#45;&gt;Node28 -->
<g id="edge27" class="edge">
<title>Node4&#45;&gt;Node28</title>
<path fill="none" stroke="midnightblue" d="M1941.13,-75.66C2108.46,-73.75 2892.41,-63.26 3157.49,-30.91"/>
<polygon fill="midnightblue" stroke="midnightblue" points="3157.98,-34.38 3167.46,-29.66 3157.1,-27.44 3157.98,-34.38"/>
</g>
<!-- Node29 -->
<g id="node29" class="node">
<title>Node29</title>
<g id="a_node29"><a xlink:href="http://www.dealii.org/developer/doxygen/deal.II/scratch__data_8h.html.html" xlink:title=" ">
<polygon fill="none" stroke="black" points="3295.5,-0.5 3295.5,-30.5 3405.5,-30.5 3405.5,-0.5 3295.5,-0.5"/>
<text text-anchor="start" x="3303.5" y="-18.5" font-family="Helvetica,sans-Serif" font-size="10.00">deal.II/meshworker</text>
<text text-anchor="middle" x="3350.5" y="-7.5" font-family="Helvetica,sans-Serif" font-size="10.00">/scratch_data.h</text>
</a>
</g>
</g>
<!-- Node4&#45;&gt;Node29 -->
<g id="edge28" class="edge">
<title>Node4&#45;&gt;Node29</title>
<path fill="none" stroke="midnightblue" d="M1941.08,-75.78C2118.45,-74.45 2992.98,-66.22 3285.31,-30.93"/>
<polygon fill="midnightblue" stroke="midnightblue" points="3285.97,-34.38 3295.46,-29.67 3285.1,-27.43 3285.97,-34.38"/>
</g>
<!-- Node30 -->
<g id="node30" class="node">
<title>Node30</title>
<g id="a_node30"><a xlink:href="http://www.dealii.org/developer/doxygen/deal.II/numerics_2data__out_8h.html.html" xlink:title=" ">
<polygon fill="none" stroke="black" points="3424,-0.5 3424,-30.5 3543,-30.5 3543,-0.5 3424,-0.5"/>
<text text-anchor="start" x="3432" y="-18.5" font-family="Helvetica,sans-Serif" font-size="10.00">deal.II/numerics/data</text>
<text text-anchor="middle" x="3483.5" y="-7.5" font-family="Helvetica,sans-Serif" font-size="10.00">_out.h</text>
</a>
</g>
</g>
<!-- Node4&#45;&gt;Node30 -->
<g id="edge29" class="edge">
<title>Node4&#45;&gt;Node30</title>
<path fill="none" stroke="midnightblue" d="M1941.18,-75.82C2128.5,-74.63 3093.65,-66.87 3413.58,-30.91"/>
<polygon fill="midnightblue" stroke="midnightblue" points="3414.24,-34.36 3423.77,-29.73 3413.43,-27.4 3414.24,-34.36"/>
</g>
<!-- Node31 -->
<g id="node31" class="node">
<title>Node31</title>
<g id="a_node31"><a xlink:href="http://www.dealii.org/developer/doxygen/deal.II/matrix__tools_8h.html.html" xlink:title=" ">
<polygon fill="none" stroke="black" points="3561.5,-0.5 3561.5,-30.5 3691.5,-30.5 3691.5,-0.5 3561.5,-0.5"/>
<text text-anchor="start" x="3569.5" y="-18.5" font-family="Helvetica,sans-Serif" font-size="10.00">deal.II/numerics/matrix</text>
<text text-anchor="middle" x="3626.5" y="-7.5" font-family="Helvetica,sans-Serif" font-size="10.00">_tools.h</text>
</a>
</g>
</g>
<!-- Node4&#45;&gt;Node31 -->
<g id="edge30" class="edge">
<title>Node4&#45;&gt;Node31</title>
<path fill="none" stroke="midnightblue" d="M1941.12,-75.85C2138.33,-74.82 3202.26,-67.64 3551.11,-30.99"/>
<polygon fill="midnightblue" stroke="midnightblue" points="3551.65,-34.46 3561.22,-29.9 3550.9,-27.5 3551.65,-34.46"/>
</g>
<!-- Node32 -->
<g id="node32" class="node">
<title>Node32</title>
<g id="a_node32"><a xlink:href="http://www.dealii.org/developer/doxygen/deal.II/vector__tools_8h.html.html" xlink:title=" ">
<polygon fill="none" stroke="black" points="3709.5,-0.5 3709.5,-30.5 3837.5,-30.5 3837.5,-0.5 3709.5,-0.5"/>
<text text-anchor="start" x="3717.5" y="-18.5" font-family="Helvetica,sans-Serif" font-size="10.00">deal.II/numerics/vector</text>
<text text-anchor="middle" x="3773.5" y="-7.5" font-family="Helvetica,sans-Serif" font-size="10.00">_tools.h</text>
</a>
</g>
</g>
<!-- Node4&#45;&gt;Node32 -->
<g id="edge31" class="edge">
<title>Node4&#45;&gt;Node32</title>
<path fill="none" stroke="midnightblue" d="M1941.21,-75.94C2148.98,-75.47 3318.76,-71.1 3698.91,-31.02"/>
<polygon fill="midnightblue" stroke="midnightblue" points="3699.54,-34.47 3709.11,-29.91 3698.79,-27.51 3699.54,-34.47"/>
</g>
<!-- Node33 -->
<g id="node33" class="node">
<title>Node33</title>
<g id="a_node33"><a xlink:title=" ">
<polygon fill="none" stroke="#bfbfbf" points="3855.5,-6 3855.5,-25 3915.5,-25 3915.5,-6 3855.5,-6"/>
<text text-anchor="middle" x="3885.5" y="-13" font-family="Helvetica,sans-Serif" font-size="10.00">iostream</text>
</a>
</g>
</g>
<!-- Node4&#45;&gt;Node33 -->
<g id="edge33" class="edge">
<title>Node4&#45;&gt;Node33</title>
<path fill="none" stroke="midnightblue" d="M1941.03,-75.9C2176.15,-75.06 3652.01,-68.32 3846.5,-31 3849.94,-30.34 3853.47,-29.41 3856.94,-28.34"/>
<polygon fill="midnightblue" stroke="midnightblue" points="3858.13,-31.63 3866.42,-25.03 3855.83,-25.02 3858.13,-31.63"/>
</g>
</g>
</svg>
