<?xml version="1.0" encoding="UTF-8" standalone="no"?>
<!DOCTYPE svg PUBLIC "-//W3C//DTD SVG 1.1//EN"
 "http://www.w3.org/Graphics/SVG/1.1/DTD/svg11.dtd">
<!-- Generated by graphviz version 2.43.0 (0)
 -->
<!-- Title: labs/lab&#45;06/include/poisson.h Pages: 1 -->
<svg width="1018pt" height="173pt"
 viewBox="0.00 0.00 1018.00 173.00" xmlns="http://www.w3.org/2000/svg" xmlns:xlink="http://www.w3.org/1999/xlink">
<g id="graph0" class="graph" transform="scale(1 1) rotate(0) translate(4 169)">
<title>labs/lab&#45;06/include/poisson.h</title>
<!-- Node1 -->
<g id="node1" class="node">
<title>Node1</title>
<g id="a_node1"><a xlink:title=" ">
<polygon fill="#bfbfbf" stroke="black" points="464.5,-134.5 464.5,-164.5 573.5,-164.5 573.5,-134.5 464.5,-134.5"/>
<text text-anchor="start" x="472.5" y="-152.5" font-family="Helvetica,sans-Serif" font-size="10.00">labs/lab&#45;06/include</text>
<text text-anchor="middle" x="519" y="-141.5" font-family="Helvetica,sans-Serif" font-size="10.00">/poisson.h</text>
</a>
</g>
</g>
<!-- Node2 -->
<g id="node2" class="node">
<title>Node2</title>
<g id="a_node2"><a xlink:href="lab-04_2source_2main_8cc.html" target="_top" xlink:title=" ">
<polygon fill="none" stroke="black" points="0,-67.5 0,-97.5 106,-97.5 106,-67.5 0,-67.5"/>
<text text-anchor="start" x="8" y="-85.5" font-family="Helvetica,sans-Serif" font-size="10.00">labs/lab&#45;04/source</text>
<text text-anchor="middle" x="53" y="-74.5" font-family="Helvetica,sans-Serif" font-size="10.00">/main.cc</text>
</a>
</g>
</g>
<!-- Node1&#45;&gt;Node2 -->
<g id="edge1" class="edge">
<title>Node1&#45;&gt;Node2</title>
<path fill="none" stroke="midnightblue" d="M454.07,-142.51C373.99,-134.64 233.86,-119.27 115,-98 112.06,-97.47 109.05,-96.9 106.02,-96.29"/>
<polygon fill="midnightblue" stroke="midnightblue" points="454.2,-146.04 464.49,-143.53 454.88,-139.07 454.2,-146.04"/>
</g>
<!-- Node3 -->
<g id="node3" class="node">
<title>Node3</title>
<g id="a_node3"><a xlink:href="lab-04_2source_2poisson_8cc.html" target="_top" xlink:title=" ">
<polygon fill="none" stroke="black" points="124,-67.5 124,-97.5 230,-97.5 230,-67.5 124,-67.5"/>
<text text-anchor="start" x="132" y="-85.5" font-family="Helvetica,sans-Serif" font-size="10.00">labs/lab&#45;04/source</text>
<text text-anchor="middle" x="177" y="-74.5" font-family="Helvetica,sans-Serif" font-size="10.00">/poisson.cc</text>
</a>
</g>
</g>
<!-- Node1&#45;&gt;Node3 -->
<g id="edge2" class="edge">
<title>Node1&#45;&gt;Node3</title>
<path fill="none" stroke="midnightblue" d="M454.45,-137.82C397.58,-128.19 312.58,-113.23 239,-98 236.08,-97.4 233.08,-96.76 230.06,-96.1"/>
<polygon fill="midnightblue" stroke="midnightblue" points="453.93,-141.29 464.38,-139.5 455.1,-134.39 453.93,-141.29"/>
</g>
<!-- Node4 -->
<g id="node4" class="node">
<title>Node4</title>
<g id="a_node4"><a xlink:href="poisson-tester_8cc.html" target="_top" xlink:title=" ">
<polygon fill="none" stroke="black" points="248,-67.5 248,-97.5 386,-97.5 386,-67.5 248,-67.5"/>
<text text-anchor="start" x="256" y="-85.5" font-family="Helvetica,sans-Serif" font-size="10.00">labs/lab&#45;04/tests/poisson</text>
<text text-anchor="middle" x="317" y="-74.5" font-family="Helvetica,sans-Serif" font-size="10.00">&#45;tester.cc</text>
</a>
</g>
</g>
<!-- Node1&#45;&gt;Node4 -->
<g id="edge3" class="edge">
<title>Node1&#45;&gt;Node4</title>
<path fill="none" stroke="midnightblue" d="M465.32,-131.23C432.65,-120.71 391.43,-107.45 360.75,-97.58"/>
<polygon fill="midnightblue" stroke="midnightblue" points="464.58,-134.66 475.17,-134.4 466.72,-128 464.58,-134.66"/>
</g>
<!-- Node5 -->
<g id="node5" class="node">
<title>Node5</title>
<g id="a_node5"><a xlink:href="lab-05_2source_2main_8cc.html" target="_top" xlink:title=" ">
<polygon fill="none" stroke="black" points="404,-67.5 404,-97.5 510,-97.5 510,-67.5 404,-67.5"/>
<text text-anchor="start" x="412" y="-85.5" font-family="Helvetica,sans-Serif" font-size="10.00">labs/lab&#45;05/source</text>
<text text-anchor="middle" x="457" y="-74.5" font-family="Helvetica,sans-Serif" font-size="10.00">/main.cc</text>
</a>
</g>
</g>
<!-- Node1&#45;&gt;Node5 -->
<g id="edge4" class="edge">
<title>Node1&#45;&gt;Node5</title>
<path fill="none" stroke="midnightblue" d="M498.52,-127.02C489.28,-117.34 478.63,-106.17 470.43,-97.58"/>
<polygon fill="midnightblue" stroke="midnightblue" points="496.11,-129.58 505.55,-134.4 501.18,-124.74 496.11,-129.58"/>
</g>
<!-- Node6 -->
<g id="node6" class="node">
<title>Node6</title>
<g id="a_node6"><a xlink:href="lab-05_2source_2poisson_8cc.html" target="_top" xlink:title=" ">
<polygon fill="none" stroke="black" points="528,-67.5 528,-97.5 634,-97.5 634,-67.5 528,-67.5"/>
<text text-anchor="start" x="536" y="-85.5" font-family="Helvetica,sans-Serif" font-size="10.00">labs/lab&#45;05/source</text>
<text text-anchor="middle" x="581" y="-74.5" font-family="Helvetica,sans-Serif" font-size="10.00">/poisson.cc</text>
</a>
</g>
</g>
<!-- Node1&#45;&gt;Node6 -->
<g id="edge5" class="edge">
<title>Node1&#45;&gt;Node6</title>
<path fill="none" stroke="midnightblue" d="M539.48,-127.02C548.72,-117.34 559.37,-106.17 567.57,-97.58"/>
<polygon fill="midnightblue" stroke="midnightblue" points="536.82,-124.74 532.45,-134.4 541.89,-129.58 536.82,-124.74"/>
</g>
<!-- Node7 -->
<g id="node7" class="node">
<title>Node7</title>
<g id="a_node7"><a xlink:href="lab-06_2include_2poisson__tester_8h.html" target="_top" xlink:title=" ">
<polygon fill="none" stroke="black" points="652.5,-67.5 652.5,-97.5 761.5,-97.5 761.5,-67.5 652.5,-67.5"/>
<text text-anchor="start" x="660.5" y="-85.5" font-family="Helvetica,sans-Serif" font-size="10.00">labs/lab&#45;06/include</text>
<text text-anchor="middle" x="707" y="-74.5" font-family="Helvetica,sans-Serif" font-size="10.00">/poisson_tester.h</text>
</a>
</g>
</g>
<!-- Node1&#45;&gt;Node7 -->
<g id="edge6" class="edge">
<title>Node1&#45;&gt;Node7</title>
<path fill="none" stroke="midnightblue" d="M569.35,-131.09C599.7,-120.6 637.85,-107.41 666.29,-97.58"/>
<polygon fill="midnightblue" stroke="midnightblue" points="568.1,-127.82 559.79,-134.4 570.39,-134.44 568.1,-127.82"/>
</g>
<!-- Node10 -->
<g id="node10" class="node">
<title>Node10</title>
<g id="a_node10"><a xlink:href="lab-06_2source_2main_8cc.html" target="_top" xlink:title=" ">
<polygon fill="none" stroke="black" points="780,-67.5 780,-97.5 886,-97.5 886,-67.5 780,-67.5"/>
<text text-anchor="start" x="788" y="-85.5" font-family="Helvetica,sans-Serif" font-size="10.00">labs/lab&#45;06/source</text>
<text text-anchor="middle" x="833" y="-74.5" font-family="Helvetica,sans-Serif" font-size="10.00">/main.cc</text>
</a>
</g>
</g>
<!-- Node1&#45;&gt;Node10 -->
<g id="edge9" class="edge">
<title>Node1&#45;&gt;Node10</title>
<path fill="none" stroke="midnightblue" d="M583.56,-136.15C634.54,-126.26 707.43,-111.8 771,-98 773.92,-97.37 776.91,-96.71 779.93,-96.03"/>
<polygon fill="midnightblue" stroke="midnightblue" points="582.82,-132.73 573.67,-138.07 584.15,-139.6 582.82,-132.73"/>
</g>
<!-- Node11 -->
<g id="node11" class="node">
<title>Node11</title>
<g id="a_node11"><a xlink:href="lab-06_2source_2poisson_8cc.html" target="_top" xlink:title=" ">
<polygon fill="none" stroke="black" points="904,-67.5 904,-97.5 1010,-97.5 1010,-67.5 904,-67.5"/>
<text text-anchor="start" x="912" y="-85.5" font-family="Helvetica,sans-Serif" font-size="10.00">labs/lab&#45;06/source</text>
<text text-anchor="middle" x="957" y="-74.5" font-family="Helvetica,sans-Serif" font-size="10.00">/poisson.cc</text>
</a>
</g>
</g>
<!-- Node1&#45;&gt;Node11 -->
<g id="edge10" class="edge">
<title>Node1&#45;&gt;Node11</title>
<path fill="none" stroke="midnightblue" d="M584,-141.69C659.2,-133.37 786.57,-117.91 895,-98 897.94,-97.46 900.94,-96.87 903.97,-96.26"/>
<polygon fill="midnightblue" stroke="midnightblue" points="583.3,-138.25 573.74,-142.82 584.07,-145.21 583.3,-138.25"/>
</g>
<!-- Node8 -->
<g id="node8" class="node">
<title>Node8</title>
<g id="a_node8"><a xlink:href="lab-05_2tests_2poisson__tester_8cc.html" target="_top" xlink:title=" ">
<polygon fill="none" stroke="black" points="560,-0.5 560,-30.5 698,-30.5 698,-0.5 560,-0.5"/>
<text text-anchor="start" x="568" y="-18.5" font-family="Helvetica,sans-Serif" font-size="10.00">labs/lab&#45;05/tests/poisson</text>
<text text-anchor="middle" x="629" y="-7.5" font-family="Helvetica,sans-Serif" font-size="10.00">_tester.cc</text>
</a>
</g>
</g>
<!-- Node7&#45;&gt;Node8 -->
<g id="edge7" class="edge">
<title>Node7&#45;&gt;Node8</title>
<path fill="none" stroke="midnightblue" d="M682.26,-60.88C670.41,-51.01 656.52,-39.43 645.89,-30.58"/>
<polygon fill="midnightblue" stroke="midnightblue" points="680.15,-63.68 690.08,-67.4 684.63,-58.31 680.15,-63.68"/>
</g>
<!-- Node9 -->
<g id="node9" class="node">
<title>Node9</title>
<g id="a_node9"><a xlink:href="lab-06_2tests_2poisson__tester_8cc.html" target="_top" xlink:title=" ">
<polygon fill="none" stroke="black" points="716,-0.5 716,-30.5 854,-30.5 854,-0.5 716,-0.5"/>
<text text-anchor="start" x="724" y="-18.5" font-family="Helvetica,sans-Serif" font-size="10.00">labs/lab&#45;06/tests/poisson</text>
<text text-anchor="middle" x="785" y="-7.5" font-family="Helvetica,sans-Serif" font-size="10.00">_tester.cc</text>
</a>
</g>
</g>
<!-- Node7&#45;&gt;Node9 -->
<g id="edge8" class="edge">
<title>Node7&#45;&gt;Node9</title>
<path fill="none" stroke="midnightblue" d="M731.74,-60.88C743.59,-51.01 757.48,-39.43 768.11,-30.58"/>
<polygon fill="midnightblue" stroke="midnightblue" points="729.37,-58.31 723.92,-67.4 733.85,-63.68 729.37,-58.31"/>
</g>
</g>
</svg>
