<?xml version="1.0" encoding="UTF-8" standalone="no"?>
<!DOCTYPE svg PUBLIC "-//W3C//DTD SVG 1.1//EN"
 "http://www.w3.org/Graphics/SVG/1.1/DTD/svg11.dtd">
<!-- Generated by graphviz version 2.43.0 (0)
 -->
<!-- Title: labs/lab&#45;05/include/poisson.h Pages: 1 -->
<svg width="3050pt" height="106pt"
 viewBox="0.00 0.00 3049.50 106.00" xmlns="http://www.w3.org/2000/svg" xmlns:xlink="http://www.w3.org/1999/xlink">
<g id="graph0" class="graph" transform="scale(1 1) rotate(0) translate(4 102)">
<title>labs/lab&#45;05/include/poisson.h</title>
<!-- Node1 -->
<g id="node1" class="node">
<title>Node1</title>
<g id="a_node1"><a xlink:title=" ">
<polygon fill="#bfbfbf" stroke="black" points="1542,-67.5 1542,-97.5 1651,-97.5 1651,-67.5 1542,-67.5"/>
<text text-anchor="start" x="1550" y="-85.5" font-family="Helvetica,sans-Serif" font-size="10.00">labs/lab&#45;05/include</text>
<text text-anchor="middle" x="1596.5" y="-74.5" font-family="Helvetica,sans-Serif" font-size="10.00">/poisson.h</text>
</a>
</g>
</g>
<!-- Node2 -->
<g id="node2" class="node">
<title>Node2</title>
<g id="a_node2"><a xlink:href="http://www.dealii.org/developer/doxygen/deal.II/function_8h.html.html" xlink:title=" ">
<polygon fill="none" stroke="black" points="0,-6 0,-25 125,-25 125,-6 0,-6"/>
<text text-anchor="middle" x="62.5" y="-13" font-family="Helvetica,sans-Serif" font-size="10.00">deal.II/base/function.h</text>
</a>
</g>
</g>
<!-- Node1&#45;&gt;Node2 -->
<g id="edge1" class="edge">
<title>Node1&#45;&gt;Node2</title>
<path fill="none" stroke="midnightblue" d="M1541.97,-80.82C1311.34,-77.74 414.97,-63.86 134.5,-31 126.22,-30.03 117.47,-28.61 109.03,-27.03"/>
<polygon fill="midnightblue" stroke="midnightblue" points="109.43,-23.54 98.94,-25.05 108.08,-30.41 109.43,-23.54"/>
</g>
<!-- Node3 -->
<g id="node3" class="node">
<title>Node3</title>
<g id="a_node3"><a xlink:href="http://www.dealii.org/developer/doxygen/deal.II/function__parser_8h.html.html" xlink:title=" ">
<polygon fill="none" stroke="black" points="143.5,-0.5 143.5,-30.5 259.5,-30.5 259.5,-0.5 143.5,-0.5"/>
<text text-anchor="start" x="151.5" y="-18.5" font-family="Helvetica,sans-Serif" font-size="10.00">deal.II/base/function</text>
<text text-anchor="middle" x="201.5" y="-7.5" font-family="Helvetica,sans-Serif" font-size="10.00">_parser.h</text>
</a>
</g>
</g>
<!-- Node1&#45;&gt;Node3 -->
<g id="edge2" class="edge">
<title>Node1&#45;&gt;Node3</title>
<path fill="none" stroke="midnightblue" d="M1541.9,-80.7C1327.39,-77.36 541.32,-63.24 270.07,-31.01"/>
<polygon fill="midnightblue" stroke="midnightblue" points="270.21,-27.5 259.86,-29.76 269.36,-34.45 270.21,-27.5"/>
</g>
<!-- Node4 -->
<g id="node4" class="node">
<title>Node4</title>
<g id="a_node4"><a xlink:href="http://www.dealii.org/developer/doxygen/deal.II/parameter__acceptor_8h.html.html" xlink:title=" ">
<polygon fill="none" stroke="black" points="278,-0.5 278,-30.5 405,-30.5 405,-0.5 278,-0.5"/>
<text text-anchor="start" x="286" y="-18.5" font-family="Helvetica,sans-Serif" font-size="10.00">deal.II/base/parameter</text>
<text text-anchor="middle" x="341.5" y="-7.5" font-family="Helvetica,sans-Serif" font-size="10.00">_acceptor.h</text>
</a>
</g>
</g>
<!-- Node1&#45;&gt;Node4 -->
<g id="edge3" class="edge">
<title>Node1&#45;&gt;Node4</title>
<path fill="none" stroke="midnightblue" d="M1541.79,-80.3C1342.67,-75.76 656.15,-58.52 415.12,-31.04"/>
<polygon fill="midnightblue" stroke="midnightblue" points="415.36,-27.54 405.02,-29.85 414.54,-34.5 415.36,-27.54"/>
</g>
<!-- Node5 -->
<g id="node5" class="node">
<title>Node5</title>
<g id="a_node5"><a xlink:href="http://www.dealii.org/developer/doxygen/deal.II/parsed__convergence__table_8h.html.html" xlink:title=" ">
<polygon fill="none" stroke="black" points="423,-0.5 423,-30.5 546,-30.5 546,-0.5 423,-0.5"/>
<text text-anchor="start" x="431" y="-18.5" font-family="Helvetica,sans-Serif" font-size="10.00">deal.II/base/parsed</text>
<text text-anchor="middle" x="484.5" y="-7.5" font-family="Helvetica,sans-Serif" font-size="10.00">_convergence_table.h</text>
</a>
</g>
</g>
<!-- Node1&#45;&gt;Node5 -->
<g id="edge4" class="edge">
<title>Node1&#45;&gt;Node5</title>
<path fill="none" stroke="midnightblue" d="M1541.72,-81.84C1387.72,-82.17 937.79,-78.73 556.38,-31.11"/>
<polygon fill="midnightblue" stroke="midnightblue" points="556.61,-27.61 546.25,-29.83 555.73,-34.56 556.61,-27.61"/>
</g>
<!-- Node6 -->
<g id="node6" class="node">
<title>Node6</title>
<g id="a_node6"><a xlink:href="http://www.dealii.org/developer/doxygen/deal.II/quadrature__lib_8h.html.html" xlink:title=" ">
<polygon fill="none" stroke="black" points="564,-0.5 564,-30.5 693,-30.5 693,-0.5 564,-0.5"/>
<text text-anchor="start" x="572" y="-18.5" font-family="Helvetica,sans-Serif" font-size="10.00">deal.II/base/quadrature</text>
<text text-anchor="middle" x="628.5" y="-7.5" font-family="Helvetica,sans-Serif" font-size="10.00">_lib.h</text>
</a>
</g>
</g>
<!-- Node1&#45;&gt;Node6 -->
<g id="edge5" class="edge">
<title>Node1&#45;&gt;Node6</title>
<path fill="none" stroke="midnightblue" d="M1541.84,-81.02C1403.2,-79.23 1026.53,-70.89 703.42,-30.99"/>
<polygon fill="midnightblue" stroke="midnightblue" points="703.75,-27.5 693.39,-29.74 702.88,-34.45 703.75,-27.5"/>
</g>
<!-- Node7 -->
<g id="node7" class="node">
<title>Node7</title>
<g id="a_node7"><a xlink:href="http://www.dealii.org/developer/doxygen/deal.II/dofs_2dof__handler_8h.html.html" xlink:title=" ">
<polygon fill="none" stroke="black" points="711.5,-6 711.5,-25 851.5,-25 851.5,-6 711.5,-6"/>
<text text-anchor="middle" x="781.5" y="-13" font-family="Helvetica,sans-Serif" font-size="10.00">deal.II/dofs/dof_handler.h</text>
</a>
</g>
</g>
<!-- Node1&#45;&gt;Node7 -->
<g id="edge6" class="edge">
<title>Node1&#45;&gt;Node7</title>
<path fill="none" stroke="midnightblue" d="M1541.82,-79.86C1419.38,-75.73 1114.02,-62.86 860.5,-31 851.65,-29.89 842.3,-28.43 833.24,-26.86"/>
<polygon fill="midnightblue" stroke="midnightblue" points="833.64,-23.38 823.18,-25.06 832.41,-30.27 833.64,-23.38"/>
</g>
<!-- Node8 -->
<g id="node8" class="node">
<title>Node8</title>
<g id="a_node8"><a xlink:href="http://www.dealii.org/developer/doxygen/deal.II/dof__tools_8h.html.html" xlink:title=" ">
<polygon fill="none" stroke="black" points="869.5,-6 869.5,-25 997.5,-25 997.5,-6 869.5,-6"/>
<text text-anchor="middle" x="933.5" y="-13" font-family="Helvetica,sans-Serif" font-size="10.00">deal.II/dofs/dof_tools.h</text>
</a>
</g>
</g>
<!-- Node1&#45;&gt;Node8 -->
<g id="edge7" class="edge">
<title>Node1&#45;&gt;Node8</title>
<path fill="none" stroke="midnightblue" d="M1541.77,-78.84C1437.31,-73.33 1202.44,-58.76 1006.5,-31 998.67,-29.89 990.42,-28.48 982.39,-26.99"/>
<polygon fill="midnightblue" stroke="midnightblue" points="982.87,-23.51 972.39,-25.05 981.54,-30.39 982.87,-23.51"/>
</g>
<!-- Node9 -->
<g id="node9" class="node">
<title>Node9</title>
<g id="a_node9"><a xlink:href="http://www.dealii.org/developer/doxygen/deal.II/fe__q_8h.html.html" xlink:title=" ">
<polygon fill="none" stroke="black" points="1015.5,-6 1015.5,-25 1107.5,-25 1107.5,-6 1015.5,-6"/>
<text text-anchor="middle" x="1061.5" y="-13" font-family="Helvetica,sans-Serif" font-size="10.00">deal.II/fe/fe_q.h</text>
</a>
</g>
</g>
<!-- Node1&#45;&gt;Node9 -->
<g id="edge8" class="edge">
<title>Node1&#45;&gt;Node9</title>
<path fill="none" stroke="midnightblue" d="M1541.76,-78.47C1452.24,-72.91 1269.18,-58.99 1116.5,-31 1111.29,-30.05 1105.85,-28.85 1100.51,-27.57"/>
<polygon fill="midnightblue" stroke="midnightblue" points="1100.98,-24.08 1090.43,-25.01 1099.26,-30.86 1100.98,-24.08"/>
</g>
<!-- Node10 -->
<g id="node10" class="node">
<title>Node10</title>
<g id="a_node10"><a xlink:href="http://www.dealii.org/developer/doxygen/deal.II/fe_2fe__values_8h.html.html" xlink:title=" ">
<polygon fill="none" stroke="black" points="1126,-6 1126,-25 1245,-25 1245,-6 1126,-6"/>
<text text-anchor="middle" x="1185.5" y="-13" font-family="Helvetica,sans-Serif" font-size="10.00">deal.II/fe/fe_values.h</text>
</a>
</g>
</g>
<!-- Node1&#45;&gt;Node10 -->
<g id="edge9" class="edge">
<title>Node1&#45;&gt;Node10</title>
<path fill="none" stroke="midnightblue" d="M1541.84,-74.47C1474.19,-65.52 1355.53,-49.06 1254.5,-31 1247.86,-29.81 1240.88,-28.47 1234.02,-27.08"/>
<polygon fill="midnightblue" stroke="midnightblue" points="1234.6,-23.63 1224.1,-25.04 1233.19,-30.48 1234.6,-23.63"/>
</g>
<!-- Node11 -->
<g id="node11" class="node">
<title>Node11</title>
<g id="a_node11"><a xlink:href="http://www.dealii.org/developer/doxygen/deal.II/grid__generator_8h.html.html" xlink:title=" ">
<polygon fill="none" stroke="black" points="1263.5,-6 1263.5,-25 1415.5,-25 1415.5,-6 1263.5,-6"/>
<text text-anchor="middle" x="1339.5" y="-13" font-family="Helvetica,sans-Serif" font-size="10.00">deal.II/grid/grid_generator.h</text>
</a>
</g>
</g>
<!-- Node1&#45;&gt;Node11 -->
<g id="edge10" class="edge">
<title>Node1&#45;&gt;Node11</title>
<path fill="none" stroke="midnightblue" d="M1542,-67.72C1494.7,-55.75 1427.11,-38.66 1383.27,-27.57"/>
<polygon fill="midnightblue" stroke="midnightblue" points="1384.03,-24.15 1373.48,-25.09 1382.31,-30.94 1384.03,-24.15"/>
</g>
<!-- Node12 -->
<g id="node12" class="node">
<title>Node12</title>
<g id="a_node12"><a xlink:href="http://www.dealii.org/developer/doxygen/deal.II/grid_2tria_8h.html.html" xlink:title=" ">
<polygon fill="none" stroke="black" points="1434,-6 1434,-25 1531,-25 1531,-6 1434,-6"/>
<text text-anchor="middle" x="1482.5" y="-13" font-family="Helvetica,sans-Serif" font-size="10.00">deal.II/grid/tria.h</text>
</a>
</g>
</g>
<!-- Node1&#45;&gt;Node12 -->
<g id="edge11" class="edge">
<title>Node1&#45;&gt;Node12</title>
<path fill="none" stroke="midnightblue" d="M1571.76,-67.4C1552.29,-56.29 1525.33,-40.92 1506.15,-29.98"/>
<polygon fill="midnightblue" stroke="midnightblue" points="1507.84,-26.92 1497.42,-25.01 1504.37,-33 1507.84,-26.92"/>
</g>
<!-- Node13 -->
<g id="node13" class="node">
<title>Node13</title>
<g id="a_node13"><a xlink:href="http://www.dealii.org/developer/doxygen/deal.II/affine__constraints_8h.html.html" xlink:title=" ">
<polygon fill="none" stroke="black" points="1549,-0.5 1549,-30.5 1644,-30.5 1644,-0.5 1549,-0.5"/>
<text text-anchor="start" x="1557" y="-18.5" font-family="Helvetica,sans-Serif" font-size="10.00">deal.II/lac/affine</text>
<text text-anchor="middle" x="1596.5" y="-7.5" font-family="Helvetica,sans-Serif" font-size="10.00">_constraints.h</text>
</a>
</g>
</g>
<!-- Node1&#45;&gt;Node13 -->
<g id="edge12" class="edge">
<title>Node1&#45;&gt;Node13</title>
<path fill="none" stroke="midnightblue" d="M1596.5,-67.4C1596.5,-59.64 1596.5,-49.81 1596.5,-40.86"/>
<polygon fill="midnightblue" stroke="midnightblue" points="1600,-40.58 1596.5,-30.58 1593,-40.58 1600,-40.58"/>
</g>
<!-- Node14 -->
<g id="node14" class="node">
<title>Node14</title>
<g id="a_node14"><a xlink:href="http://www.dealii.org/developer/doxygen/deal.II/dynamic__sparsity__pattern_8h.html.html" xlink:title=" ">
<polygon fill="none" stroke="black" points="1662.5,-0.5 1662.5,-30.5 1772.5,-30.5 1772.5,-0.5 1662.5,-0.5"/>
<text text-anchor="start" x="1670.5" y="-18.5" font-family="Helvetica,sans-Serif" font-size="10.00">deal.II/lac/dynamic</text>
<text text-anchor="middle" x="1717.5" y="-7.5" font-family="Helvetica,sans-Serif" font-size="10.00">_sparsity_pattern.h</text>
</a>
</g>
</g>
<!-- Node1&#45;&gt;Node14 -->
<g id="edge13" class="edge">
<title>Node1&#45;&gt;Node14</title>
<path fill="none" stroke="midnightblue" d="M1622.76,-67.4C1640.2,-58.03 1663.3,-45.62 1682.33,-35.39"/>
<polygon fill="midnightblue" stroke="midnightblue" points="1684.14,-38.39 1691.3,-30.58 1680.83,-32.23 1684.14,-38.39"/>
</g>
<!-- Node15 -->
<g id="node15" class="node">
<title>Node15</title>
<g id="a_node15"><a xlink:href="http://www.dealii.org/developer/doxygen/deal.II/full__matrix_8h.html.html" xlink:title=" ">
<polygon fill="none" stroke="black" points="1791,-6 1791,-25 1920,-25 1920,-6 1791,-6"/>
<text text-anchor="middle" x="1855.5" y="-13" font-family="Helvetica,sans-Serif" font-size="10.00">deal.II/lac/full_matrix.h</text>
</a>
</g>
</g>
<!-- Node1&#45;&gt;Node15 -->
<g id="edge14" class="edge">
<title>Node1&#45;&gt;Node15</title>
<path fill="none" stroke="midnightblue" d="M1651.11,-67.79C1698.89,-55.8 1767.39,-38.61 1811.66,-27.5"/>
<polygon fill="midnightblue" stroke="midnightblue" points="1812.7,-30.85 1821.55,-25.02 1811,-24.06 1812.7,-30.85"/>
</g>
<!-- Node16 -->
<g id="node16" class="node">
<title>Node16</title>
<g id="a_node16"><a xlink:href="http://www.dealii.org/developer/doxygen/deal.II/precondition_8h.html.html" xlink:title=" ">
<polygon fill="none" stroke="black" points="1938,-6 1938,-25 2075,-25 2075,-6 1938,-6"/>
<text text-anchor="middle" x="2006.5" y="-13" font-family="Helvetica,sans-Serif" font-size="10.00">deal.II/lac/precondition.h</text>
</a>
</g>
</g>
<!-- Node1&#45;&gt;Node16 -->
<g id="edge15" class="edge">
<title>Node1&#45;&gt;Node16</title>
<path fill="none" stroke="midnightblue" d="M1651.1,-73.83C1717.15,-64.41 1831.64,-47.63 1929.5,-31 1936.96,-29.73 1944.81,-28.33 1952.54,-26.91"/>
<polygon fill="midnightblue" stroke="midnightblue" points="1953.38,-30.32 1962.57,-25.05 1952.1,-23.44 1953.38,-30.32"/>
</g>
<!-- Node17 -->
<g id="node17" class="node">
<title>Node17</title>
<g id="a_node17"><a xlink:href="http://www.dealii.org/developer/doxygen/deal.II/solver__cg_8h.html.html" xlink:title=" ">
<polygon fill="none" stroke="black" points="2093.5,-6 2093.5,-25 2215.5,-25 2215.5,-6 2093.5,-6"/>
<text text-anchor="middle" x="2154.5" y="-13" font-family="Helvetica,sans-Serif" font-size="10.00">deal.II/lac/solver_cg.h</text>
</a>
</g>
</g>
<!-- Node1&#45;&gt;Node17 -->
<g id="edge16" class="edge">
<title>Node1&#45;&gt;Node17</title>
<path fill="none" stroke="midnightblue" d="M1651.26,-77.65C1741.77,-70.88 1928.15,-55.22 2084.5,-31 2091.75,-29.88 2099.39,-28.5 2106.84,-27.04"/>
<polygon fill="midnightblue" stroke="midnightblue" points="2107.73,-30.43 2116.85,-25.03 2106.35,-23.57 2107.73,-30.43"/>
</g>
<!-- Node18 -->
<g id="node18" class="node">
<title>Node18</title>
<g id="a_node18"><a xlink:href="http://www.dealii.org/developer/doxygen/deal.II/sparse__matrix_8h.html.html" xlink:title=" ">
<polygon fill="none" stroke="black" points="2234,-0.5 2234,-30.5 2333,-30.5 2333,-0.5 2234,-0.5"/>
<text text-anchor="start" x="2242" y="-18.5" font-family="Helvetica,sans-Serif" font-size="10.00">deal.II/lac/sparse</text>
<text text-anchor="middle" x="2283.5" y="-7.5" font-family="Helvetica,sans-Serif" font-size="10.00">_matrix.h</text>
</a>
</g>
</g>
<!-- Node1&#45;&gt;Node18 -->
<g id="edge17" class="edge">
<title>Node1&#45;&gt;Node18</title>
<path fill="none" stroke="midnightblue" d="M1651.03,-80.06C1758.78,-76.58 2006.57,-65.41 2223.73,-30.94"/>
<polygon fill="midnightblue" stroke="midnightblue" points="2224.4,-34.37 2233.72,-29.33 2223.29,-27.46 2224.4,-34.37"/>
</g>
<!-- Node19 -->
<g id="node19" class="node">
<title>Node19</title>
<g id="a_node19"><a xlink:href="http://www.dealii.org/developer/doxygen/deal.II/vector_8h.html.html" xlink:title=" ">
<polygon fill="none" stroke="black" points="2351,-6 2351,-25 2458,-25 2458,-6 2351,-6"/>
<text text-anchor="middle" x="2404.5" y="-13" font-family="Helvetica,sans-Serif" font-size="10.00">deal.II/lac/vector.h</text>
</a>
</g>
</g>
<!-- Node1&#45;&gt;Node19 -->
<g id="edge18" class="edge">
<title>Node1&#45;&gt;Node19</title>
<path fill="none" stroke="midnightblue" d="M1651.12,-80.83C1774.85,-78.65 2085.74,-69.45 2342.5,-31 2348.96,-30.03 2355.73,-28.74 2362.34,-27.32"/>
<polygon fill="midnightblue" stroke="midnightblue" points="2363.53,-30.64 2372.51,-25.02 2361.99,-23.82 2363.53,-30.64"/>
</g>
<!-- Node20 -->
<g id="node20" class="node">
<title>Node20</title>
<g id="a_node20"><a xlink:href="http://www.dealii.org/developer/doxygen/deal.II/numerics_2data__out_8h.html.html" xlink:title=" ">
<polygon fill="none" stroke="black" points="2476,-0.5 2476,-30.5 2595,-30.5 2595,-0.5 2476,-0.5"/>
<text text-anchor="start" x="2484" y="-18.5" font-family="Helvetica,sans-Serif" font-size="10.00">deal.II/numerics/data</text>
<text text-anchor="middle" x="2535.5" y="-7.5" font-family="Helvetica,sans-Serif" font-size="10.00">_out.h</text>
</a>
</g>
</g>
<!-- Node1&#45;&gt;Node20 -->
<g id="edge19" class="edge">
<title>Node1&#45;&gt;Node20</title>
<path fill="none" stroke="midnightblue" d="M1651.05,-81.21C1787.16,-79.88 2152.74,-72.52 2465.71,-31.11"/>
<polygon fill="midnightblue" stroke="midnightblue" points="2466.44,-34.54 2475.89,-29.75 2465.51,-27.6 2466.44,-34.54"/>
</g>
<!-- Node21 -->
<g id="node21" class="node">
<title>Node21</title>
<g id="a_node21"><a xlink:href="http://www.dealii.org/developer/doxygen/deal.II/matrix__tools_8h.html.html" xlink:title=" ">
<polygon fill="none" stroke="black" points="2613.5,-0.5 2613.5,-30.5 2743.5,-30.5 2743.5,-0.5 2613.5,-0.5"/>
<text text-anchor="start" x="2621.5" y="-18.5" font-family="Helvetica,sans-Serif" font-size="10.00">deal.II/numerics/matrix</text>
<text text-anchor="middle" x="2678.5" y="-7.5" font-family="Helvetica,sans-Serif" font-size="10.00">_tools.h</text>
</a>
</g>
</g>
<!-- Node1&#45;&gt;Node21 -->
<g id="edge20" class="edge">
<title>Node1&#45;&gt;Node21</title>
<path fill="none" stroke="midnightblue" d="M1651.1,-81.51C1801.5,-80.95 2234.61,-75.4 2603.15,-31.04"/>
<polygon fill="midnightblue" stroke="midnightblue" points="2603.71,-34.5 2613.21,-29.82 2602.86,-27.55 2603.71,-34.5"/>
</g>
<!-- Node22 -->
<g id="node22" class="node">
<title>Node22</title>
<g id="a_node22"><a xlink:href="http://www.dealii.org/developer/doxygen/deal.II/vector__tools_8h.html.html" xlink:title=" ">
<polygon fill="none" stroke="black" points="2761.5,-0.5 2761.5,-30.5 2889.5,-30.5 2889.5,-0.5 2761.5,-0.5"/>
<text text-anchor="start" x="2769.5" y="-18.5" font-family="Helvetica,sans-Serif" font-size="10.00">deal.II/numerics/vector</text>
<text text-anchor="middle" x="2825.5" y="-7.5" font-family="Helvetica,sans-Serif" font-size="10.00">_tools.h</text>
</a>
</g>
</g>
<!-- Node1&#45;&gt;Node22 -->
<g id="edge21" class="edge">
<title>Node1&#45;&gt;Node22</title>
<path fill="none" stroke="midnightblue" d="M1651.2,-82.06C1816.12,-83.12 2322.92,-81.8 2751.39,-31"/>
<polygon fill="midnightblue" stroke="midnightblue" points="2751.98,-34.45 2761.49,-29.79 2751.15,-27.5 2751.98,-34.45"/>
</g>
<!-- Node23 -->
<g id="node23" class="node">
<title>Node23</title>
<g id="a_node23"><a xlink:title=" ">
<polygon fill="none" stroke="#bfbfbf" points="2908,-6 2908,-25 2963,-25 2963,-6 2908,-6"/>
<text text-anchor="middle" x="2935.5" y="-13" font-family="Helvetica,sans-Serif" font-size="10.00">fstream</text>
</a>
</g>
</g>
<!-- Node1&#45;&gt;Node23 -->
<g id="edge22" class="edge">
<title>Node1&#45;&gt;Node23</title>
<path fill="none" stroke="midnightblue" d="M1651.32,-81.8C1866.65,-82.62 2654.66,-81.99 2898.5,-31 2901.51,-30.37 2904.59,-29.52 2907.63,-28.55"/>
<polygon fill="midnightblue" stroke="midnightblue" points="2908.84,-31.83 2917.05,-25.13 2906.46,-25.25 2908.84,-31.83"/>
</g>
<!-- Node24 -->
<g id="node24" class="node">
<title>Node24</title>
<g id="a_node24"><a xlink:title=" ">
<polygon fill="none" stroke="#bfbfbf" points="2981.5,-6 2981.5,-25 3041.5,-25 3041.5,-6 2981.5,-6"/>
<text text-anchor="middle" x="3011.5" y="-13" font-family="Helvetica,sans-Serif" font-size="10.00">iostream</text>
</a>
</g>
</g>
<!-- Node1&#45;&gt;Node24 -->
<g id="edge23" class="edge">
<title>Node1&#45;&gt;Node24</title>
<path fill="none" stroke="midnightblue" d="M1651.34,-81.81C1874.29,-82.72 2713.13,-82.58 2972.5,-31 2975.76,-30.35 2979.11,-29.47 2982.4,-28.46"/>
<polygon fill="midnightblue" stroke="midnightblue" points="2983.71,-31.71 2992.02,-25.13 2981.42,-25.09 2983.71,-31.71"/>
</g>
</g>
</svg>
