<?xml version="1.0" encoding="UTF-8" standalone="no"?>
<!DOCTYPE svg PUBLIC "-//W3C//DTD SVG 1.1//EN"
 "http://www.w3.org/Graphics/SVG/1.1/DTD/svg11.dtd">
<!-- Generated by graphviz version 2.43.0 (0)
 -->
<!-- Title: labs/lab&#45;06/source/mpihello.cc Pages: 1 -->
<svg width="418pt" height="95pt"
 viewBox="0.00 0.00 417.50 95.00" xmlns="http://www.w3.org/2000/svg" xmlns:xlink="http://www.w3.org/1999/xlink">
<g id="graph0" class="graph" transform="scale(1 1) rotate(0) translate(4 91)">
<title>labs/lab&#45;06/source/mpihello.cc</title>
<!-- Node1 -->
<g id="node1" class="node">
<title>Node1</title>
<g id="a_node1"><a xlink:title=" ">
<polygon fill="#bfbfbf" stroke="black" points="159,-56.5 159,-86.5 265,-86.5 265,-56.5 159,-56.5"/>
<text text-anchor="start" x="167" y="-74.5" font-family="Helvetica,sans-Serif" font-size="10.00">labs/lab&#45;06/source</text>
<text text-anchor="middle" x="212" y="-63.5" font-family="Helvetica,sans-Serif" font-size="10.00">/mpihello.cc</text>
</a>
</g>
</g>
<!-- Node2 -->
<g id="node2" class="node">
<title>Node2</title>
<g id="a_node2"><a xlink:href="http://www.dealii.org/developer/doxygen/deal.II/mpi_8h.html.html" xlink:title=" ">
<polygon fill="none" stroke="black" points="0,-0.5 0,-19.5 44,-19.5 44,-0.5 0,-0.5"/>
<text text-anchor="middle" x="22" y="-7.5" font-family="Helvetica,sans-Serif" font-size="10.00">mpi.h</text>
</a>
</g>
</g>
<!-- Node1&#45;&gt;Node2 -->
<g id="edge1" class="edge">
<title>Node1&#45;&gt;Node2</title>
<path fill="none" stroke="midnightblue" d="M166.97,-56.4C132.17,-45.5 84.86,-30.68 53.89,-20.99"/>
<polygon fill="midnightblue" stroke="midnightblue" points="54.64,-17.55 44.05,-17.91 52.55,-24.23 54.64,-17.55"/>
</g>
<!-- Node3 -->
<g id="node3" class="node">
<title>Node3</title>
<g id="a_node3"><a xlink:title=" ">
<polygon fill="none" stroke="#bfbfbf" points="62,-0.5 62,-19.5 126,-19.5 126,-0.5 62,-0.5"/>
<text text-anchor="middle" x="94" y="-7.5" font-family="Helvetica,sans-Serif" font-size="10.00">algorithm</text>
</a>
</g>
</g>
<!-- Node1&#45;&gt;Node3 -->
<g id="edge2" class="edge">
<title>Node1&#45;&gt;Node3</title>
<path fill="none" stroke="midnightblue" d="M184.04,-56.4C164.68,-46.64 139.09,-33.74 120.14,-24.18"/>
<polygon fill="midnightblue" stroke="midnightblue" points="121.67,-21.04 111.17,-19.66 118.52,-27.29 121.67,-21.04"/>
</g>
<!-- Node4 -->
<g id="node4" class="node">
<title>Node4</title>
<g id="a_node4"><a xlink:title=" ">
<polygon fill="none" stroke="#bfbfbf" points="144,-0.5 144,-19.5 204,-19.5 204,-0.5 144,-0.5"/>
<text text-anchor="middle" x="174" y="-7.5" font-family="Helvetica,sans-Serif" font-size="10.00">iostream</text>
</a>
</g>
</g>
<!-- Node1&#45;&gt;Node4 -->
<g id="edge3" class="edge">
<title>Node1&#45;&gt;Node4</title>
<path fill="none" stroke="midnightblue" d="M202.99,-56.4C197.59,-47.93 190.67,-37.1 184.95,-28.14"/>
<polygon fill="midnightblue" stroke="midnightblue" points="187.86,-26.2 179.53,-19.66 181.96,-29.97 187.86,-26.2"/>
</g>
<!-- Node5 -->
<g id="node5" class="node">
<title>Node5</title>
<g id="a_node5"><a xlink:title=" ">
<polygon fill="none" stroke="#bfbfbf" points="222,-0.5 222,-19.5 278,-19.5 278,-0.5 222,-0.5"/>
<text text-anchor="middle" x="250" y="-7.5" font-family="Helvetica,sans-Serif" font-size="10.00">numeric</text>
</a>
</g>
</g>
<!-- Node1&#45;&gt;Node5 -->
<g id="edge4" class="edge">
<title>Node1&#45;&gt;Node5</title>
<path fill="none" stroke="midnightblue" d="M221.01,-56.4C226.41,-47.93 233.33,-37.1 239.05,-28.14"/>
<polygon fill="midnightblue" stroke="midnightblue" points="242.04,-29.97 244.47,-19.66 236.14,-26.2 242.04,-29.97"/>
</g>
<!-- Node6 -->
<g id="node6" class="node">
<title>Node6</title>
<g id="a_node6"><a xlink:title=" ">
<polygon fill="none" stroke="#bfbfbf" points="296,-0.5 296,-19.5 344,-19.5 344,-0.5 296,-0.5"/>
<text text-anchor="middle" x="320" y="-7.5" font-family="Helvetica,sans-Serif" font-size="10.00">thread</text>
</a>
</g>
</g>
<!-- Node1&#45;&gt;Node6 -->
<g id="edge5" class="edge">
<title>Node1&#45;&gt;Node6</title>
<path fill="none" stroke="midnightblue" d="M237.59,-56.4C255.07,-46.77 278.09,-34.09 295.36,-24.58"/>
<polygon fill="midnightblue" stroke="midnightblue" points="297.22,-27.55 304.29,-19.66 293.84,-21.42 297.22,-27.55"/>
</g>
<!-- Node7 -->
<g id="node7" class="node">
<title>Node7</title>
<g id="a_node7"><a xlink:title=" ">
<polygon fill="none" stroke="#bfbfbf" points="362.5,-0.5 362.5,-19.5 409.5,-19.5 409.5,-0.5 362.5,-0.5"/>
<text text-anchor="middle" x="386" y="-7.5" font-family="Helvetica,sans-Serif" font-size="10.00">vector</text>
</a>
</g>
</g>
<!-- Node1&#45;&gt;Node7 -->
<g id="edge6" class="edge">
<title>Node1&#45;&gt;Node7</title>
<path fill="none" stroke="midnightblue" d="M253.24,-56.4C283.49,-46.05 324.06,-32.18 352.36,-22.5"/>
<polygon fill="midnightblue" stroke="midnightblue" points="353.86,-25.69 362.19,-19.14 351.6,-19.07 353.86,-25.69"/>
</g>
</g>
</svg>
