<?xml version="1.0" encoding="UTF-8" standalone="no"?>
<!DOCTYPE svg PUBLIC "-//W3C//DTD SVG 1.1//EN"
 "http://www.w3.org/Graphics/SVG/1.1/DTD/svg11.dtd">
<!-- Generated by graphviz version 2.43.0 (0)
 -->
<!-- Title: labs/lab&#45;04/include/poisson.h Pages: 1 -->
<svg width="394pt" height="106pt"
 viewBox="0.00 0.00 394.00 106.00" xmlns="http://www.w3.org/2000/svg" xmlns:xlink="http://www.w3.org/1999/xlink">
<g id="graph0" class="graph" transform="scale(1 1) rotate(0) translate(4 102)">
<title>labs/lab&#45;04/include/poisson.h</title>
<!-- Node1 -->
<g id="node1" class="node">
<title>Node1</title>
<g id="a_node1"><a xlink:title=" ">
<polygon fill="#bfbfbf" stroke="black" points="122.5,-67.5 122.5,-97.5 231.5,-97.5 231.5,-67.5 122.5,-67.5"/>
<text text-anchor="start" x="130.5" y="-85.5" font-family="Helvetica,sans-Serif" font-size="10.00">labs/lab&#45;04/include</text>
<text text-anchor="middle" x="177" y="-74.5" font-family="Helvetica,sans-Serif" font-size="10.00">/poisson.h</text>
</a>
</g>
</g>
<!-- Node2 -->
<g id="node2" class="node">
<title>Node2</title>
<g id="a_node2"><a xlink:href="lab-04_2source_2main_8cc.html" target="_top" xlink:title=" ">
<polygon fill="none" stroke="black" points="0,-0.5 0,-30.5 106,-30.5 106,-0.5 0,-0.5"/>
<text text-anchor="start" x="8" y="-18.5" font-family="Helvetica,sans-Serif" font-size="10.00">labs/lab&#45;04/source</text>
<text text-anchor="middle" x="53" y="-7.5" font-family="Helvetica,sans-Serif" font-size="10.00">/main.cc</text>
</a>
</g>
</g>
<!-- Node1&#45;&gt;Node2 -->
<g id="edge1" class="edge">
<title>Node1&#45;&gt;Node2</title>
<path fill="none" stroke="midnightblue" d="M141.16,-62.71C121.61,-52.46 97.8,-39.98 79.85,-30.58"/>
<polygon fill="midnightblue" stroke="midnightblue" points="139.61,-65.85 150.09,-67.4 142.86,-59.65 139.61,-65.85"/>
</g>
<!-- Node3 -->
<g id="node3" class="node">
<title>Node3</title>
<g id="a_node3"><a xlink:href="poisson_8cc.html" target="_top" xlink:title=" ">
<polygon fill="none" stroke="black" points="124,-0.5 124,-30.5 230,-30.5 230,-0.5 124,-0.5"/>
<text text-anchor="start" x="132" y="-18.5" font-family="Helvetica,sans-Serif" font-size="10.00">labs/lab&#45;04/source</text>
<text text-anchor="middle" x="177" y="-7.5" font-family="Helvetica,sans-Serif" font-size="10.00">/poisson.cc</text>
</a>
</g>
</g>
<!-- Node1&#45;&gt;Node3 -->
<g id="edge2" class="edge">
<title>Node1&#45;&gt;Node3</title>
<path fill="none" stroke="midnightblue" d="M177,-57.11C177,-48.15 177,-38.32 177,-30.58"/>
<polygon fill="midnightblue" stroke="midnightblue" points="173.5,-57.4 177,-67.4 180.5,-57.4 173.5,-57.4"/>
</g>
<!-- Node4 -->
<g id="node4" class="node">
<title>Node4</title>
<g id="a_node4"><a xlink:href="poisson-tester_8cc.html" target="_top" xlink:title=" ">
<polygon fill="none" stroke="black" points="248,-0.5 248,-30.5 386,-30.5 386,-0.5 248,-0.5"/>
<text text-anchor="start" x="256" y="-18.5" font-family="Helvetica,sans-Serif" font-size="10.00">labs/lab&#45;04/tests/poisson</text>
<text text-anchor="middle" x="317" y="-7.5" font-family="Helvetica,sans-Serif" font-size="10.00">&#45;tester.cc</text>
</a>
</g>
</g>
<!-- Node1&#45;&gt;Node4 -->
<g id="edge3" class="edge">
<title>Node1&#45;&gt;Node4</title>
<path fill="none" stroke="midnightblue" d="M216.57,-63.13C238.81,-52.8 266.15,-40.11 286.68,-30.58"/>
<polygon fill="midnightblue" stroke="midnightblue" points="214.97,-60.01 207.38,-67.4 217.92,-66.36 214.97,-60.01"/>
</g>
</g>
</svg>
