<?xml version="1.0" encoding="UTF-8" standalone="no"?>
<!DOCTYPE svg PUBLIC "-//W3C//DTD SVG 1.1//EN"
 "http://www.w3.org/Graphics/SVG/1.1/DTD/svg11.dtd">
<!-- Generated by graphviz version 2.43.0 (0)
 -->
<!-- Title: labs/lab&#45;04/tests/poisson&#45;tester.cc Pages: 1 -->
<svg width="2515pt" height="162pt"
 viewBox="0.00 0.00 2514.50 162.00" xmlns="http://www.w3.org/2000/svg" xmlns:xlink="http://www.w3.org/1999/xlink">
<g id="graph0" class="graph" transform="scale(1 1) rotate(0) translate(4 158)">
<title>labs/lab&#45;04/tests/poisson&#45;tester.cc</title>
<!-- Node1 -->
<g id="node1" class="node">
<title>Node1</title>
<g id="a_node1"><a xlink:title=" ">
<polygon fill="#bfbfbf" stroke="black" points="481.5,-123.5 481.5,-153.5 619.5,-153.5 619.5,-123.5 481.5,-123.5"/>
<text text-anchor="start" x="489.5" y="-141.5" font-family="Helvetica,sans-Serif" font-size="10.00">labs/lab&#45;04/tests/poisson</text>
<text text-anchor="middle" x="550.5" y="-130.5" font-family="Helvetica,sans-Serif" font-size="10.00">&#45;tester.cc</text>
</a>
</g>
</g>
<!-- Node2 -->
<g id="node2" class="node">
<title>Node2</title>
<g id="a_node2"><a xlink:title=" ">
<polygon fill="none" stroke="#bfbfbf" points="444.5,-67.5 444.5,-86.5 522.5,-86.5 522.5,-67.5 444.5,-67.5"/>
<text text-anchor="middle" x="483.5" y="-74.5" font-family="Helvetica,sans-Serif" font-size="10.00">gtest/gtest.h</text>
</a>
</g>
</g>
<!-- Node1&#45;&gt;Node2 -->
<g id="edge1" class="edge">
<title>Node1&#45;&gt;Node2</title>
<path fill="none" stroke="midnightblue" d="M534.62,-123.4C524.48,-114.4 511.34,-102.72 500.91,-93.47"/>
<polygon fill="midnightblue" stroke="midnightblue" points="503.05,-90.68 493.25,-86.66 498.4,-95.92 503.05,-90.68"/>
</g>
<!-- Node3 -->
<g id="node3" class="node">
<title>Node3</title>
<g id="a_node3"><a xlink:title=" ">
<polygon fill="none" stroke="#bfbfbf" points="0,-6 0,-25 55,-25 55,-6 0,-6"/>
<text text-anchor="middle" x="27.5" y="-13" font-family="Helvetica,sans-Serif" font-size="10.00">fstream</text>
</a>
</g>
</g>
<!-- Node1&#45;&gt;Node3 -->
<g id="edge2" class="edge">
<title>Node1&#45;&gt;Node3</title>
<path fill="none" stroke="midnightblue" d="M551.12,-123.34C550.99,-107.02 547.99,-80.67 531.5,-67 451.2,-0.43 165.06,-54.76 63.5,-31 60.82,-30.37 58.09,-29.58 55.38,-28.69"/>
<polygon fill="midnightblue" stroke="midnightblue" points="56.42,-25.34 45.83,-25.14 53.99,-31.9 56.42,-25.34"/>
</g>
<!-- Node4 -->
<g id="node4" class="node">
<title>Node4</title>
<g id="a_node4"><a xlink:href="poisson_8h.html" target="_top" xlink:title=" ">
<polygon fill="none" stroke="black" points="1164,-67.5 1164,-86.5 1227,-86.5 1227,-67.5 1164,-67.5"/>
<text text-anchor="middle" x="1195.5" y="-74.5" font-family="Helvetica,sans-Serif" font-size="10.00">poisson.h</text>
</a>
</g>
</g>
<!-- Node1&#45;&gt;Node4 -->
<g id="edge3" class="edge">
<title>Node1&#45;&gt;Node4</title>
<path fill="none" stroke="midnightblue" d="M619.53,-131.13C753.51,-118.77 1045.17,-91.87 1153.71,-81.86"/>
<polygon fill="midnightblue" stroke="midnightblue" points="1154.29,-85.32 1163.93,-80.91 1153.65,-78.35 1154.29,-85.32"/>
</g>
<!-- Node4&#45;&gt;Node3 -->
<g id="edge21" class="edge">
<title>Node4&#45;&gt;Node3</title>
<path fill="none" stroke="midnightblue" d="M1163.77,-75.39C991.64,-71.97 173.54,-54.6 63.5,-31 60.66,-30.39 57.75,-29.57 54.89,-28.64"/>
<polygon fill="midnightblue" stroke="midnightblue" points="56.02,-25.33 45.43,-25.13 53.59,-31.89 56.02,-25.33"/>
</g>
<!-- Node5 -->
<g id="node5" class="node">
<title>Node5</title>
<g id="a_node5"><a xlink:href="http://www.dealii.org/developer/doxygen/deal.II/function_8h.html.html" xlink:title=" ">
<polygon fill="none" stroke="black" points="73,-6 73,-25 198,-25 198,-6 73,-6"/>
<text text-anchor="middle" x="135.5" y="-13" font-family="Helvetica,sans-Serif" font-size="10.00">deal.II/base/function.h</text>
</a>
</g>
</g>
<!-- Node4&#45;&gt;Node5 -->
<g id="edge4" class="edge">
<title>Node4&#45;&gt;Node5</title>
<path fill="none" stroke="midnightblue" d="M1163.75,-76.35C1040.35,-77.33 580.9,-77.46 206.5,-31 198.42,-30 189.89,-28.58 181.66,-27.01"/>
<polygon fill="midnightblue" stroke="midnightblue" points="182.3,-23.57 171.8,-25.05 180.93,-30.43 182.3,-23.57"/>
</g>
<!-- Node6 -->
<g id="node6" class="node">
<title>Node6</title>
<g id="a_node6"><a xlink:href="http://www.dealii.org/developer/doxygen/deal.II/quadrature__lib_8h.html.html" xlink:title=" ">
<polygon fill="none" stroke="black" points="216,-0.5 216,-30.5 345,-30.5 345,-0.5 216,-0.5"/>
<text text-anchor="start" x="224" y="-18.5" font-family="Helvetica,sans-Serif" font-size="10.00">deal.II/base/quadrature</text>
<text text-anchor="middle" x="280.5" y="-7.5" font-family="Helvetica,sans-Serif" font-size="10.00">_lib.h</text>
</a>
</g>
</g>
<!-- Node4&#45;&gt;Node6 -->
<g id="edge5" class="edge">
<title>Node4&#45;&gt;Node6</title>
<path fill="none" stroke="midnightblue" d="M1163.66,-75.9C1053.2,-75.21 676.13,-70.05 355.34,-30.97"/>
<polygon fill="midnightblue" stroke="midnightblue" points="355.74,-27.5 345.39,-29.75 354.89,-34.44 355.74,-27.5"/>
</g>
<!-- Node7 -->
<g id="node7" class="node">
<title>Node7</title>
<g id="a_node7"><a xlink:href="http://www.dealii.org/developer/doxygen/deal.II/dofs_2dof__handler_8h.html.html" xlink:title=" ">
<polygon fill="none" stroke="black" points="363.5,-6 363.5,-25 503.5,-25 503.5,-6 363.5,-6"/>
<text text-anchor="middle" x="433.5" y="-13" font-family="Helvetica,sans-Serif" font-size="10.00">deal.II/dofs/dof_handler.h</text>
</a>
</g>
</g>
<!-- Node4&#45;&gt;Node7 -->
<g id="edge6" class="edge">
<title>Node4&#45;&gt;Node7</title>
<path fill="none" stroke="midnightblue" d="M1163.72,-75.21C1066.12,-72.52 762.21,-62.04 512.5,-31 503.46,-29.88 493.88,-28.38 484.63,-26.78"/>
<polygon fill="midnightblue" stroke="midnightblue" points="485.23,-23.33 474.77,-25.01 484,-30.22 485.23,-23.33"/>
</g>
<!-- Node8 -->
<g id="node8" class="node">
<title>Node8</title>
<g id="a_node8"><a xlink:href="http://www.dealii.org/developer/doxygen/deal.II/dof__tools_8h.html.html" xlink:title=" ">
<polygon fill="none" stroke="black" points="521.5,-6 521.5,-25 649.5,-25 649.5,-6 521.5,-6"/>
<text text-anchor="middle" x="585.5" y="-13" font-family="Helvetica,sans-Serif" font-size="10.00">deal.II/dofs/dof_tools.h</text>
</a>
</g>
</g>
<!-- Node4&#45;&gt;Node8 -->
<g id="edge7" class="edge">
<title>Node4&#45;&gt;Node8</title>
<path fill="none" stroke="midnightblue" d="M1163.89,-74.59C1080.77,-70.63 849.34,-57.86 658.5,-31 650.67,-29.9 642.42,-28.5 634.39,-27"/>
<polygon fill="midnightblue" stroke="midnightblue" points="634.87,-23.53 624.38,-25.07 633.54,-30.4 634.87,-23.53"/>
</g>
<!-- Node9 -->
<g id="node9" class="node">
<title>Node9</title>
<g id="a_node9"><a xlink:href="http://www.dealii.org/developer/doxygen/deal.II/fe__q_8h.html.html" xlink:title=" ">
<polygon fill="none" stroke="black" points="667.5,-6 667.5,-25 759.5,-25 759.5,-6 667.5,-6"/>
<text text-anchor="middle" x="713.5" y="-13" font-family="Helvetica,sans-Serif" font-size="10.00">deal.II/fe/fe_q.h</text>
</a>
</g>
</g>
<!-- Node4&#45;&gt;Node9 -->
<g id="edge8" class="edge">
<title>Node4&#45;&gt;Node9</title>
<path fill="none" stroke="midnightblue" d="M1163.93,-74.33C1092.83,-70.2 914.96,-57.86 768.5,-31 763.29,-30.04 757.85,-28.85 752.51,-27.57"/>
<polygon fill="midnightblue" stroke="midnightblue" points="752.98,-24.08 742.43,-25.01 751.26,-30.86 752.98,-24.08"/>
</g>
<!-- Node10 -->
<g id="node10" class="node">
<title>Node10</title>
<g id="a_node10"><a xlink:href="http://www.dealii.org/developer/doxygen/deal.II/fe_2fe__values_8h.html.html" xlink:title=" ">
<polygon fill="none" stroke="black" points="778,-6 778,-25 897,-25 897,-6 778,-6"/>
<text text-anchor="middle" x="837.5" y="-13" font-family="Helvetica,sans-Serif" font-size="10.00">deal.II/fe/fe_values.h</text>
</a>
</g>
</g>
<!-- Node4&#45;&gt;Node10 -->
<g id="edge9" class="edge">
<title>Node4&#45;&gt;Node10</title>
<path fill="none" stroke="midnightblue" d="M1163.76,-71.62C1110.46,-64.13 999.66,-48.03 906.5,-31 899.95,-29.8 893.06,-28.46 886.28,-27.08"/>
<polygon fill="midnightblue" stroke="midnightblue" points="886.98,-23.65 876.47,-25.06 885.56,-30.51 886.98,-23.65"/>
</g>
<!-- Node11 -->
<g id="node11" class="node">
<title>Node11</title>
<g id="a_node11"><a xlink:href="http://www.dealii.org/developer/doxygen/deal.II/grid__generator_8h.html.html" xlink:title=" ">
<polygon fill="none" stroke="black" points="915.5,-6 915.5,-25 1067.5,-25 1067.5,-6 915.5,-6"/>
<text text-anchor="middle" x="991.5" y="-13" font-family="Helvetica,sans-Serif" font-size="10.00">deal.II/grid/grid_generator.h</text>
</a>
</g>
</g>
<!-- Node4&#45;&gt;Node11 -->
<g id="edge10" class="edge">
<title>Node4&#45;&gt;Node11</title>
<path fill="none" stroke="midnightblue" d="M1166.27,-67.48C1130.6,-57.07 1070.14,-39.44 1030.52,-27.88"/>
<polygon fill="midnightblue" stroke="midnightblue" points="1031.25,-24.45 1020.67,-25.01 1029.29,-31.17 1031.25,-24.45"/>
</g>
<!-- Node12 -->
<g id="node12" class="node">
<title>Node12</title>
<g id="a_node12"><a xlink:href="http://www.dealii.org/developer/doxygen/deal.II/grid_2tria_8h.html.html" xlink:title=" ">
<polygon fill="none" stroke="black" points="1086,-6 1086,-25 1183,-25 1183,-6 1086,-6"/>
<text text-anchor="middle" x="1134.5" y="-13" font-family="Helvetica,sans-Serif" font-size="10.00">deal.II/grid/tria.h</text>
</a>
</g>
</g>
<!-- Node4&#45;&gt;Node12 -->
<g id="edge11" class="edge">
<title>Node4&#45;&gt;Node12</title>
<path fill="none" stroke="midnightblue" d="M1186.76,-67.48C1177.34,-58.28 1162.14,-43.46 1150.55,-32.16"/>
<polygon fill="midnightblue" stroke="midnightblue" points="1152.83,-29.49 1143.22,-25.01 1147.94,-34.5 1152.83,-29.49"/>
</g>
<!-- Node13 -->
<g id="node13" class="node">
<title>Node13</title>
<g id="a_node13"><a xlink:href="http://www.dealii.org/developer/doxygen/deal.II/dynamic__sparsity__pattern_8h.html.html" xlink:title=" ">
<polygon fill="none" stroke="black" points="1201.5,-0.5 1201.5,-30.5 1311.5,-30.5 1311.5,-0.5 1201.5,-0.5"/>
<text text-anchor="start" x="1209.5" y="-18.5" font-family="Helvetica,sans-Serif" font-size="10.00">deal.II/lac/dynamic</text>
<text text-anchor="middle" x="1256.5" y="-7.5" font-family="Helvetica,sans-Serif" font-size="10.00">_sparsity_pattern.h</text>
</a>
</g>
</g>
<!-- Node4&#45;&gt;Node13 -->
<g id="edge12" class="edge">
<title>Node4&#45;&gt;Node13</title>
<path fill="none" stroke="midnightblue" d="M1204.24,-67.48C1212.19,-59.72 1224.26,-47.94 1234.8,-37.66"/>
<polygon fill="midnightblue" stroke="midnightblue" points="1237.41,-40.01 1242.12,-30.52 1232.52,-35 1237.41,-40.01"/>
</g>
<!-- Node14 -->
<g id="node14" class="node">
<title>Node14</title>
<g id="a_node14"><a xlink:href="http://www.dealii.org/developer/doxygen/deal.II/full__matrix_8h.html.html" xlink:title=" ">
<polygon fill="none" stroke="black" points="1330,-6 1330,-25 1459,-25 1459,-6 1330,-6"/>
<text text-anchor="middle" x="1394.5" y="-13" font-family="Helvetica,sans-Serif" font-size="10.00">deal.II/lac/full_matrix.h</text>
</a>
</g>
</g>
<!-- Node4&#45;&gt;Node14 -->
<g id="edge13" class="edge">
<title>Node4&#45;&gt;Node14</title>
<path fill="none" stroke="midnightblue" d="M1224.01,-67.48C1258.74,-57.09 1317.54,-39.51 1356.19,-27.95"/>
<polygon fill="midnightblue" stroke="midnightblue" points="1357.46,-31.23 1366.04,-25.01 1355.46,-24.52 1357.46,-31.23"/>
</g>
<!-- Node15 -->
<g id="node15" class="node">
<title>Node15</title>
<g id="a_node15"><a xlink:href="http://www.dealii.org/developer/doxygen/deal.II/precondition_8h.html.html" xlink:title=" ">
<polygon fill="none" stroke="black" points="1477,-6 1477,-25 1614,-25 1614,-6 1477,-6"/>
<text text-anchor="middle" x="1545.5" y="-13" font-family="Helvetica,sans-Serif" font-size="10.00">deal.II/lac/precondition.h</text>
</a>
</g>
</g>
<!-- Node4&#45;&gt;Node15 -->
<g id="edge14" class="edge">
<title>Node4&#45;&gt;Node15</title>
<path fill="none" stroke="midnightblue" d="M1227.07,-71.04C1277.95,-62.98 1381.22,-46.41 1468.5,-31 1475.86,-29.7 1483.6,-28.29 1491.23,-26.88"/>
<polygon fill="midnightblue" stroke="midnightblue" points="1491.96,-30.3 1501.15,-25.03 1490.68,-23.42 1491.96,-30.3"/>
</g>
<!-- Node16 -->
<g id="node16" class="node">
<title>Node16</title>
<g id="a_node16"><a xlink:href="http://www.dealii.org/developer/doxygen/deal.II/solver__cg_8h.html.html" xlink:title=" ">
<polygon fill="none" stroke="black" points="1632.5,-6 1632.5,-25 1754.5,-25 1754.5,-6 1632.5,-6"/>
<text text-anchor="middle" x="1693.5" y="-13" font-family="Helvetica,sans-Serif" font-size="10.00">deal.II/lac/solver_cg.h</text>
</a>
</g>
</g>
<!-- Node4&#45;&gt;Node16 -->
<g id="edge15" class="edge">
<title>Node4&#45;&gt;Node16</title>
<path fill="none" stroke="midnightblue" d="M1227.05,-73.76C1298.12,-68.49 1476.03,-53.97 1623.5,-31 1630.75,-29.87 1638.39,-28.49 1645.84,-27.03"/>
<polygon fill="midnightblue" stroke="midnightblue" points="1646.73,-30.42 1655.84,-25.02 1645.35,-23.56 1646.73,-30.42"/>
</g>
<!-- Node17 -->
<g id="node17" class="node">
<title>Node17</title>
<g id="a_node17"><a xlink:href="http://www.dealii.org/developer/doxygen/deal.II/sparse__matrix_8h.html.html" xlink:title=" ">
<polygon fill="none" stroke="black" points="1773,-0.5 1773,-30.5 1872,-30.5 1872,-0.5 1773,-0.5"/>
<text text-anchor="start" x="1781" y="-18.5" font-family="Helvetica,sans-Serif" font-size="10.00">deal.II/lac/sparse</text>
<text text-anchor="middle" x="1822.5" y="-7.5" font-family="Helvetica,sans-Serif" font-size="10.00">_matrix.h</text>
</a>
</g>
</g>
<!-- Node4&#45;&gt;Node17 -->
<g id="edge16" class="edge">
<title>Node4&#45;&gt;Node17</title>
<path fill="none" stroke="midnightblue" d="M1227.12,-75.29C1312.2,-72.99 1553.17,-63.99 1762.77,-30.93"/>
<polygon fill="midnightblue" stroke="midnightblue" points="1763.4,-34.37 1772.72,-29.33 1762.3,-27.46 1763.4,-34.37"/>
</g>
<!-- Node18 -->
<g id="node18" class="node">
<title>Node18</title>
<g id="a_node18"><a xlink:href="http://www.dealii.org/developer/doxygen/deal.II/vector_8h.html.html" xlink:title=" ">
<polygon fill="none" stroke="black" points="1890,-6 1890,-25 1997,-25 1997,-6 1890,-6"/>
<text text-anchor="middle" x="1943.5" y="-13" font-family="Helvetica,sans-Serif" font-size="10.00">deal.II/lac/vector.h</text>
</a>
</g>
</g>
<!-- Node4&#45;&gt;Node18 -->
<g id="edge17" class="edge">
<title>Node4&#45;&gt;Node18</title>
<path fill="none" stroke="midnightblue" d="M1227.15,-75.77C1325.01,-74.65 1631.22,-68.22 1881.5,-31 1887.96,-30.04 1894.74,-28.75 1901.34,-27.34"/>
<polygon fill="midnightblue" stroke="midnightblue" points="1902.53,-30.66 1911.51,-25.04 1900.99,-23.83 1902.53,-30.66"/>
</g>
<!-- Node19 -->
<g id="node19" class="node">
<title>Node19</title>
<g id="a_node19"><a xlink:href="http://www.dealii.org/developer/doxygen/deal.II/numerics_2data__out_8h.html.html" xlink:title=" ">
<polygon fill="none" stroke="black" points="2015,-0.5 2015,-30.5 2134,-30.5 2134,-0.5 2015,-0.5"/>
<text text-anchor="start" x="2023" y="-18.5" font-family="Helvetica,sans-Serif" font-size="10.00">deal.II/numerics/data</text>
<text text-anchor="middle" x="2074.5" y="-7.5" font-family="Helvetica,sans-Serif" font-size="10.00">_out.h</text>
</a>
</g>
</g>
<!-- Node4&#45;&gt;Node19 -->
<g id="edge18" class="edge">
<title>Node4&#45;&gt;Node19</title>
<path fill="none" stroke="midnightblue" d="M1227.35,-76C1335.33,-75.62 1697.39,-71.32 2004.89,-31.08"/>
<polygon fill="midnightblue" stroke="midnightblue" points="2005.43,-34.54 2014.89,-29.76 2004.51,-27.6 2005.43,-34.54"/>
</g>
<!-- Node20 -->
<g id="node20" class="node">
<title>Node20</title>
<g id="a_node20"><a xlink:href="http://www.dealii.org/developer/doxygen/deal.II/matrix__tools_8h.html.html" xlink:title=" ">
<polygon fill="none" stroke="black" points="2152.5,-0.5 2152.5,-30.5 2282.5,-30.5 2282.5,-0.5 2152.5,-0.5"/>
<text text-anchor="start" x="2160.5" y="-18.5" font-family="Helvetica,sans-Serif" font-size="10.00">deal.II/numerics/matrix</text>
<text text-anchor="middle" x="2217.5" y="-7.5" font-family="Helvetica,sans-Serif" font-size="10.00">_tools.h</text>
</a>
</g>
</g>
<!-- Node4&#45;&gt;Node20 -->
<g id="edge19" class="edge">
<title>Node4&#45;&gt;Node20</title>
<path fill="none" stroke="midnightblue" d="M1227.15,-76.17C1346.1,-76.46 1777.78,-74.35 2142.26,-31.02"/>
<polygon fill="midnightblue" stroke="midnightblue" points="2142.7,-34.5 2152.21,-29.83 2141.87,-27.55 2142.7,-34.5"/>
</g>
<!-- Node21 -->
<g id="node21" class="node">
<title>Node21</title>
<g id="a_node21"><a xlink:href="http://www.dealii.org/developer/doxygen/deal.II/vector__tools_8h.html.html" xlink:title=" ">
<polygon fill="none" stroke="black" points="2300.5,-0.5 2300.5,-30.5 2428.5,-30.5 2428.5,-0.5 2300.5,-0.5"/>
<text text-anchor="start" x="2308.5" y="-18.5" font-family="Helvetica,sans-Serif" font-size="10.00">deal.II/numerics/vector</text>
<text text-anchor="middle" x="2364.5" y="-7.5" font-family="Helvetica,sans-Serif" font-size="10.00">_tools.h</text>
</a>
</g>
</g>
<!-- Node4&#45;&gt;Node21 -->
<g id="edge20" class="edge">
<title>Node4&#45;&gt;Node21</title>
<path fill="none" stroke="midnightblue" d="M1227.02,-75.37C1381.13,-72.17 2057.01,-56.98 2290.38,-30.96"/>
<polygon fill="midnightblue" stroke="midnightblue" points="2290.96,-34.42 2300.5,-29.8 2290.16,-27.47 2290.96,-34.42"/>
</g>
<!-- Node22 -->
<g id="node22" class="node">
<title>Node22</title>
<g id="a_node22"><a xlink:title=" ">
<polygon fill="none" stroke="#bfbfbf" points="2446.5,-6 2446.5,-25 2506.5,-25 2506.5,-6 2446.5,-6"/>
<text text-anchor="middle" x="2476.5" y="-13" font-family="Helvetica,sans-Serif" font-size="10.00">iostream</text>
</a>
</g>
</g>
<!-- Node4&#45;&gt;Node22 -->
<g id="edge22" class="edge">
<title>Node4&#45;&gt;Node22</title>
<path fill="none" stroke="midnightblue" d="M1227.05,-76.22C1396.06,-77.17 2195.71,-79.03 2437.5,-31 2440.76,-30.35 2444.11,-29.47 2447.4,-28.46"/>
<polygon fill="midnightblue" stroke="midnightblue" points="2448.71,-31.71 2457.02,-25.13 2446.42,-25.09 2448.71,-31.71"/>
</g>
</g>
</svg>
