<?xml version="1.0" encoding="UTF-8" standalone="no"?>
<!DOCTYPE svg PUBLIC "-//W3C//DTD SVG 1.1//EN"
 "http://www.w3.org/Graphics/SVG/1.1/DTD/svg11.dtd">
<!-- Generated by graphviz version 2.43.0 (0)
 -->
<!-- Title: labs/lab&#45;05/tests/poisson_tester.cc Pages: 1 -->
<svg width="3049pt" height="218pt"
 viewBox="0.00 0.00 3049.00 218.00" xmlns="http://www.w3.org/2000/svg" xmlns:xlink="http://www.w3.org/1999/xlink">
<g id="graph0" class="graph" transform="scale(1 1) rotate(0) translate(4 214)">
<title>labs/lab&#45;05/tests/poisson_tester.cc</title>
<!-- Node1 -->
<g id="node1" class="node">
<title>Node1</title>
<g id="a_node1"><a xlink:title=" ">
<polygon fill="#bfbfbf" stroke="black" points="1707.5,-179.5 1707.5,-209.5 1845.5,-209.5 1845.5,-179.5 1707.5,-179.5"/>
<text text-anchor="start" x="1715.5" y="-197.5" font-family="Helvetica,sans-Serif" font-size="10.00">labs/lab&#45;05/tests/poisson</text>
<text text-anchor="middle" x="1776.5" y="-186.5" font-family="Helvetica,sans-Serif" font-size="10.00">_tester.cc</text>
</a>
</g>
</g>
<!-- Node2 -->
<g id="node2" class="node">
<title>Node2</title>
<g id="a_node2"><a xlink:href="poisson__tester_8h.html" target="_top" xlink:title=" ">
<polygon fill="none" stroke="black" points="1679,-123.5 1679,-142.5 1776,-142.5 1776,-123.5 1679,-123.5"/>
<text text-anchor="middle" x="1727.5" y="-130.5" font-family="Helvetica,sans-Serif" font-size="10.00">poisson_tester.h</text>
</a>
</g>
</g>
<!-- Node1&#45;&gt;Node2 -->
<g id="edge1" class="edge">
<title>Node1&#45;&gt;Node2</title>
<path fill="none" stroke="midnightblue" d="M1764.89,-179.4C1757.77,-170.75 1748.62,-159.64 1741.15,-150.58"/>
<polygon fill="midnightblue" stroke="midnightblue" points="1743.69,-148.15 1734.63,-142.66 1738.29,-152.6 1743.69,-148.15"/>
</g>
<!-- Node3 -->
<g id="node3" class="node">
<title>Node3</title>
<g id="a_node3"><a xlink:title=" ">
<polygon fill="none" stroke="#bfbfbf" points="1589.5,-67.5 1589.5,-86.5 1667.5,-86.5 1667.5,-67.5 1589.5,-67.5"/>
<text text-anchor="middle" x="1628.5" y="-74.5" font-family="Helvetica,sans-Serif" font-size="10.00">gtest/gtest.h</text>
</a>
</g>
</g>
<!-- Node1&#45;&gt;Node3 -->
<g id="edge28" class="edge">
<title>Node1&#45;&gt;Node3</title>
<path fill="none" stroke="midnightblue" d="M1733.84,-179.45C1713.11,-171.15 1688.8,-159.08 1670.5,-143 1655.56,-129.87 1643.85,-110.18 1636.63,-95.92"/>
<polygon fill="midnightblue" stroke="midnightblue" points="1639.67,-94.16 1632.19,-86.66 1633.36,-97.19 1639.67,-94.16"/>
</g>
<!-- Node4 -->
<g id="node4" class="node">
<title>Node4</title>
<g id="a_node4"><a xlink:title=" ">
<polygon fill="none" stroke="#bfbfbf" points="2986,-6 2986,-25 3041,-25 3041,-6 2986,-6"/>
<text text-anchor="middle" x="3013.5" y="-13" font-family="Helvetica,sans-Serif" font-size="10.00">fstream</text>
</a>
</g>
</g>
<!-- Node1&#45;&gt;Node4 -->
<g id="edge29" class="edge">
<title>Node1&#45;&gt;Node4</title>
<path fill="none" stroke="midnightblue" d="M1783.49,-179.49C1792.67,-162.79 1810.48,-135.55 1834.5,-123 2060.17,-5.12 2728.43,-88.28 2976.5,-31 2979.34,-30.35 2982.24,-29.51 2985.12,-28.58"/>
<polygon fill="midnightblue" stroke="midnightblue" points="2986.43,-31.82 2994.64,-25.12 2984.04,-25.25 2986.43,-31.82"/>
</g>
<!-- Node28 -->
<g id="node28" class="node">
<title>Node28</title>
<g id="a_node28"><a xlink:title=" ">
<polygon fill="none" stroke="#bfbfbf" points="1843.5,-123.5 1843.5,-142.5 1899.5,-142.5 1899.5,-123.5 1843.5,-123.5"/>
<text text-anchor="middle" x="1871.5" y="-130.5" font-family="Helvetica,sans-Serif" font-size="10.00">sstream</text>
</a>
</g>
</g>
<!-- Node1&#45;&gt;Node28 -->
<g id="edge30" class="edge">
<title>Node1&#45;&gt;Node28</title>
<path fill="none" stroke="midnightblue" d="M1799.01,-179.4C1814.1,-169.95 1833.89,-157.56 1848.97,-148.11"/>
<polygon fill="midnightblue" stroke="midnightblue" points="1851.06,-150.93 1857.68,-142.66 1847.34,-145 1851.06,-150.93"/>
</g>
<!-- Node2&#45;&gt;Node3 -->
<g id="edge2" class="edge">
<title>Node2&#45;&gt;Node3</title>
<path fill="none" stroke="midnightblue" d="M1711.59,-123.32C1695.86,-114.74 1671.56,-101.49 1653.29,-91.52"/>
<polygon fill="midnightblue" stroke="midnightblue" points="1654.82,-88.37 1644.37,-86.65 1651.47,-94.52 1654.82,-88.37"/>
</g>
<!-- Node2&#45;&gt;Node4 -->
<g id="edge3" class="edge">
<title>Node2&#45;&gt;Node4</title>
<path fill="none" stroke="midnightblue" d="M1734.06,-123.17C1745.7,-108.32 1771.59,-78.8 1801.5,-67 1923.01,-19.08 2848.54,-57.21 2976.5,-31 2979.58,-30.37 2982.73,-29.5 2985.84,-28.51"/>
<polygon fill="midnightblue" stroke="midnightblue" points="2987.24,-31.72 2995.43,-25.01 2984.84,-25.15 2987.24,-31.72"/>
</g>
<!-- Node5 -->
<g id="node5" class="node">
<title>Node5</title>
<g id="a_node5"><a xlink:href="lab-05_2include_2poisson_8h.html" target="_top" xlink:title=" ">
<polygon fill="none" stroke="black" points="1686,-67.5 1686,-86.5 1749,-86.5 1749,-67.5 1686,-67.5"/>
<text text-anchor="middle" x="1717.5" y="-74.5" font-family="Helvetica,sans-Serif" font-size="10.00">poisson.h</text>
</a>
</g>
</g>
<!-- Node2&#45;&gt;Node5 -->
<g id="edge4" class="edge">
<title>Node2&#45;&gt;Node5</title>
<path fill="none" stroke="midnightblue" d="M1725.85,-123.08C1724.52,-115.93 1722.62,-105.64 1720.96,-96.69"/>
<polygon fill="midnightblue" stroke="midnightblue" points="1724.38,-95.95 1719.12,-86.75 1717.5,-97.22 1724.38,-95.95"/>
</g>
<!-- Node5&#45;&gt;Node4 -->
<g id="edge26" class="edge">
<title>Node5&#45;&gt;Node4</title>
<path fill="none" stroke="midnightblue" d="M1749.07,-69.12C1753.88,-68.27 1758.81,-67.52 1763.5,-67 2031.5,-37.01 2712.29,-84.99 2976.5,-31 2979.58,-30.37 2982.73,-29.51 2985.84,-28.51"/>
<polygon fill="midnightblue" stroke="midnightblue" points="2987.24,-31.73 2995.44,-25.01 2984.84,-25.15 2987.24,-31.73"/>
</g>
<!-- Node6 -->
<g id="node6" class="node">
<title>Node6</title>
<g id="a_node6"><a xlink:href="http://www.dealii.org/developer/doxygen/deal.II/function_8h.html.html" xlink:title=" ">
<polygon fill="none" stroke="black" points="0,-6 0,-25 125,-25 125,-6 0,-6"/>
<text text-anchor="middle" x="62.5" y="-13" font-family="Helvetica,sans-Serif" font-size="10.00">deal.II/base/function.h</text>
</a>
</g>
</g>
<!-- Node5&#45;&gt;Node6 -->
<g id="edge5" class="edge">
<title>Node5&#45;&gt;Node6</title>
<path fill="none" stroke="midnightblue" d="M1685.82,-68.41C1682.68,-67.85 1679.54,-67.37 1676.5,-67 995.89,14.87 815.8,-106.96 134.5,-31 126.03,-30.06 117.07,-28.62 108.46,-27"/>
<polygon fill="midnightblue" stroke="midnightblue" points="109.05,-23.55 98.56,-25.05 107.7,-30.42 109.05,-23.55"/>
</g>
<!-- Node7 -->
<g id="node7" class="node">
<title>Node7</title>
<g id="a_node7"><a xlink:href="http://www.dealii.org/developer/doxygen/deal.II/function__parser_8h.html.html" xlink:title=" ">
<polygon fill="none" stroke="black" points="143.5,-0.5 143.5,-30.5 259.5,-30.5 259.5,-0.5 143.5,-0.5"/>
<text text-anchor="start" x="151.5" y="-18.5" font-family="Helvetica,sans-Serif" font-size="10.00">deal.II/base/function</text>
<text text-anchor="middle" x="201.5" y="-7.5" font-family="Helvetica,sans-Serif" font-size="10.00">_parser.h</text>
</a>
</g>
</g>
<!-- Node5&#45;&gt;Node7 -->
<g id="edge6" class="edge">
<title>Node5&#45;&gt;Node7</title>
<path fill="none" stroke="midnightblue" d="M1685.82,-68.42C1682.68,-67.86 1679.54,-67.37 1676.5,-67 1058.42,8.04 891.82,-104.31 269.97,-31.01"/>
<polygon fill="midnightblue" stroke="midnightblue" points="270.2,-27.51 259.86,-29.8 269.37,-34.46 270.2,-27.51"/>
</g>
<!-- Node8 -->
<g id="node8" class="node">
<title>Node8</title>
<g id="a_node8"><a xlink:href="http://www.dealii.org/developer/doxygen/deal.II/parameter__acceptor_8h.html.html" xlink:title=" ">
<polygon fill="none" stroke="black" points="278,-0.5 278,-30.5 405,-30.5 405,-0.5 278,-0.5"/>
<text text-anchor="start" x="286" y="-18.5" font-family="Helvetica,sans-Serif" font-size="10.00">deal.II/base/parameter</text>
<text text-anchor="middle" x="341.5" y="-7.5" font-family="Helvetica,sans-Serif" font-size="10.00">_acceptor.h</text>
</a>
</g>
</g>
<!-- Node5&#45;&gt;Node8 -->
<g id="edge7" class="edge">
<title>Node5&#45;&gt;Node8</title>
<path fill="none" stroke="midnightblue" d="M1685.82,-68.43C1682.68,-67.87 1679.54,-67.37 1676.5,-67 1122.53,1.08 973.26,-93.5 415.34,-31.07"/>
<polygon fill="midnightblue" stroke="midnightblue" points="415.34,-27.55 405.01,-29.9 414.55,-34.5 415.34,-27.55"/>
</g>
<!-- Node9 -->
<g id="node9" class="node">
<title>Node9</title>
<g id="a_node9"><a xlink:href="http://www.dealii.org/developer/doxygen/deal.II/parsed__convergence__table_8h.html.html" xlink:title=" ">
<polygon fill="none" stroke="black" points="423,-0.5 423,-30.5 546,-30.5 546,-0.5 423,-0.5"/>
<text text-anchor="start" x="431" y="-18.5" font-family="Helvetica,sans-Serif" font-size="10.00">deal.II/base/parsed</text>
<text text-anchor="middle" x="484.5" y="-7.5" font-family="Helvetica,sans-Serif" font-size="10.00">_convergence_table.h</text>
</a>
</g>
</g>
<!-- Node5&#45;&gt;Node9 -->
<g id="edge8" class="edge">
<title>Node5&#45;&gt;Node9</title>
<path fill="none" stroke="midnightblue" d="M1685.82,-68.44C1682.68,-67.88 1679.54,-67.38 1676.5,-67 1184.8,-5.67 1051.76,-88.67 556.52,-31.1"/>
<polygon fill="midnightblue" stroke="midnightblue" points="556.58,-27.58 546.24,-29.89 555.76,-34.53 556.58,-27.58"/>
</g>
<!-- Node10 -->
<g id="node10" class="node">
<title>Node10</title>
<g id="a_node10"><a xlink:href="http://www.dealii.org/developer/doxygen/deal.II/quadrature__lib_8h.html.html" xlink:title=" ">
<polygon fill="none" stroke="black" points="564,-0.5 564,-30.5 693,-30.5 693,-0.5 564,-0.5"/>
<text text-anchor="start" x="572" y="-18.5" font-family="Helvetica,sans-Serif" font-size="10.00">deal.II/base/quadrature</text>
<text text-anchor="middle" x="628.5" y="-7.5" font-family="Helvetica,sans-Serif" font-size="10.00">_lib.h</text>
</a>
</g>
</g>
<!-- Node5&#45;&gt;Node10 -->
<g id="edge9" class="edge">
<title>Node5&#45;&gt;Node10</title>
<path fill="none" stroke="midnightblue" d="M1685.81,-68.46C1682.68,-67.89 1679.54,-67.39 1676.5,-67 1250.13,-12.77 1134.61,-79.74 703.62,-30.98"/>
<polygon fill="midnightblue" stroke="midnightblue" points="703.72,-27.47 693.38,-29.81 702.92,-34.43 703.72,-27.47"/>
</g>
<!-- Node11 -->
<g id="node11" class="node">
<title>Node11</title>
<g id="a_node11"><a xlink:href="http://www.dealii.org/developer/doxygen/deal.II/dofs_2dof__handler_8h.html.html" xlink:title=" ">
<polygon fill="none" stroke="black" points="711.5,-6 711.5,-25 851.5,-25 851.5,-6 711.5,-6"/>
<text text-anchor="middle" x="781.5" y="-13" font-family="Helvetica,sans-Serif" font-size="10.00">deal.II/dofs/dof_handler.h</text>
</a>
</g>
</g>
<!-- Node5&#45;&gt;Node11 -->
<g id="edge10" class="edge">
<title>Node5&#45;&gt;Node11</title>
<path fill="none" stroke="midnightblue" d="M1685.81,-68.48C1682.68,-67.91 1679.53,-67.4 1676.5,-67 1316.55,-19.91 1221.21,-71.86 860.5,-31 851.24,-29.95 841.43,-28.46 831.99,-26.83"/>
<polygon fill="midnightblue" stroke="midnightblue" points="832.4,-23.35 821.94,-25.03 831.16,-30.24 832.4,-23.35"/>
</g>
<!-- Node12 -->
<g id="node12" class="node">
<title>Node12</title>
<g id="a_node12"><a xlink:href="http://www.dealii.org/developer/doxygen/deal.II/dof__tools_8h.html.html" xlink:title=" ">
<polygon fill="none" stroke="black" points="869.5,-6 869.5,-25 997.5,-25 997.5,-6 869.5,-6"/>
<text text-anchor="middle" x="933.5" y="-13" font-family="Helvetica,sans-Serif" font-size="10.00">deal.II/dofs/dof_tools.h</text>
</a>
</g>
</g>
<!-- Node5&#45;&gt;Node12 -->
<g id="edge11" class="edge">
<title>Node5&#45;&gt;Node12</title>
<path fill="none" stroke="midnightblue" d="M1685.81,-68.51C1682.67,-67.93 1679.53,-67.41 1676.5,-67 1381,-26.9 1302.39,-68.14 1006.5,-31 998.3,-29.97 989.63,-28.55 981.25,-27"/>
<polygon fill="midnightblue" stroke="midnightblue" points="981.7,-23.52 971.22,-25.06 980.37,-30.39 981.7,-23.52"/>
</g>
<!-- Node13 -->
<g id="node13" class="node">
<title>Node13</title>
<g id="a_node13"><a xlink:href="http://www.dealii.org/developer/doxygen/deal.II/fe__q_8h.html.html" xlink:title=" ">
<polygon fill="none" stroke="black" points="1015.5,-6 1015.5,-25 1107.5,-25 1107.5,-6 1015.5,-6"/>
<text text-anchor="middle" x="1061.5" y="-13" font-family="Helvetica,sans-Serif" font-size="10.00">deal.II/fe/fe_q.h</text>
</a>
</g>
</g>
<!-- Node5&#45;&gt;Node13 -->
<g id="edge12" class="edge">
<title>Node5&#45;&gt;Node13</title>
<path fill="none" stroke="midnightblue" d="M1685.8,-68.54C1682.67,-67.96 1679.53,-67.43 1676.5,-67 1429.54,-32.16 1362.68,-70.98 1116.5,-31 1110.96,-30.1 1105.16,-28.88 1099.5,-27.54"/>
<polygon fill="midnightblue" stroke="midnightblue" points="1100.09,-24.08 1089.54,-25.01 1098.37,-30.86 1100.09,-24.08"/>
</g>
<!-- Node14 -->
<g id="node14" class="node">
<title>Node14</title>
<g id="a_node14"><a xlink:href="http://www.dealii.org/developer/doxygen/deal.II/fe_2fe__values_8h.html.html" xlink:title=" ">
<polygon fill="none" stroke="black" points="1126,-6 1126,-25 1245,-25 1245,-6 1126,-6"/>
<text text-anchor="middle" x="1185.5" y="-13" font-family="Helvetica,sans-Serif" font-size="10.00">deal.II/fe/fe_values.h</text>
</a>
</g>
</g>
<!-- Node5&#45;&gt;Node14 -->
<g id="edge13" class="edge">
<title>Node5&#45;&gt;Node14</title>
<path fill="none" stroke="midnightblue" d="M1685.79,-68.61C1682.66,-68.01 1679.53,-67.46 1676.5,-67 1490.39,-38.76 1440.73,-58.41 1254.5,-31 1247.09,-29.91 1239.28,-28.51 1231.69,-27.02"/>
<polygon fill="midnightblue" stroke="midnightblue" points="1232.37,-23.59 1221.88,-25.01 1230.97,-30.44 1232.37,-23.59"/>
</g>
<!-- Node15 -->
<g id="node15" class="node">
<title>Node15</title>
<g id="a_node15"><a xlink:href="http://www.dealii.org/developer/doxygen/deal.II/grid__generator_8h.html.html" xlink:title=" ">
<polygon fill="none" stroke="black" points="1263.5,-6 1263.5,-25 1415.5,-25 1415.5,-6 1263.5,-6"/>
<text text-anchor="middle" x="1339.5" y="-13" font-family="Helvetica,sans-Serif" font-size="10.00">deal.II/grid/grid_generator.h</text>
</a>
</g>
</g>
<!-- Node5&#45;&gt;Node15 -->
<g id="edge14" class="edge">
<title>Node5&#45;&gt;Node15</title>
<path fill="none" stroke="midnightblue" d="M1685.76,-68.79C1682.64,-68.15 1679.51,-67.54 1676.5,-67 1565.17,-46.86 1536.27,-48.51 1424.5,-31 1415.9,-29.65 1406.83,-28.17 1397.94,-26.68"/>
<polygon fill="midnightblue" stroke="midnightblue" points="1398.45,-23.22 1388.01,-25.01 1397.29,-30.12 1398.45,-23.22"/>
</g>
<!-- Node16 -->
<g id="node16" class="node">
<title>Node16</title>
<g id="a_node16"><a xlink:href="http://www.dealii.org/developer/doxygen/deal.II/grid_2tria_8h.html.html" xlink:title=" ">
<polygon fill="none" stroke="black" points="1434,-6 1434,-25 1531,-25 1531,-6 1434,-6"/>
<text text-anchor="middle" x="1482.5" y="-13" font-family="Helvetica,sans-Serif" font-size="10.00">deal.II/grid/tria.h</text>
</a>
</g>
</g>
<!-- Node5&#45;&gt;Node16 -->
<g id="edge15" class="edge">
<title>Node5&#45;&gt;Node16</title>
<path fill="none" stroke="midnightblue" d="M1685.99,-68.05C1650.41,-59.07 1590.79,-44.01 1539.5,-31 1535.09,-29.88 1530.5,-28.72 1525.91,-27.55"/>
<polygon fill="midnightblue" stroke="midnightblue" points="1526.51,-24.09 1515.95,-25.02 1524.78,-30.87 1526.51,-24.09"/>
</g>
<!-- Node17 -->
<g id="node17" class="node">
<title>Node17</title>
<g id="a_node17"><a xlink:href="http://www.dealii.org/developer/doxygen/deal.II/affine__constraints_8h.html.html" xlink:title=" ">
<polygon fill="none" stroke="black" points="1549,-0.5 1549,-30.5 1644,-30.5 1644,-0.5 1549,-0.5"/>
<text text-anchor="start" x="1557" y="-18.5" font-family="Helvetica,sans-Serif" font-size="10.00">deal.II/lac/affine</text>
<text text-anchor="middle" x="1596.5" y="-7.5" font-family="Helvetica,sans-Serif" font-size="10.00">_constraints.h</text>
</a>
</g>
</g>
<!-- Node5&#45;&gt;Node17 -->
<g id="edge16" class="edge">
<title>Node5&#45;&gt;Node17</title>
<path fill="none" stroke="midnightblue" d="M1700.16,-67.48C1683.01,-59.04 1656.2,-45.86 1634.14,-35.01"/>
<polygon fill="midnightblue" stroke="midnightblue" points="1635.54,-31.79 1625.02,-30.52 1632.45,-38.08 1635.54,-31.79"/>
</g>
<!-- Node18 -->
<g id="node18" class="node">
<title>Node18</title>
<g id="a_node18"><a xlink:href="http://www.dealii.org/developer/doxygen/deal.II/dynamic__sparsity__pattern_8h.html.html" xlink:title=" ">
<polygon fill="none" stroke="black" points="1662.5,-0.5 1662.5,-30.5 1772.5,-30.5 1772.5,-0.5 1662.5,-0.5"/>
<text text-anchor="start" x="1670.5" y="-18.5" font-family="Helvetica,sans-Serif" font-size="10.00">deal.II/lac/dynamic</text>
<text text-anchor="middle" x="1717.5" y="-7.5" font-family="Helvetica,sans-Serif" font-size="10.00">_sparsity_pattern.h</text>
</a>
</g>
</g>
<!-- Node5&#45;&gt;Node18 -->
<g id="edge17" class="edge">
<title>Node5&#45;&gt;Node18</title>
<path fill="none" stroke="midnightblue" d="M1717.5,-67.48C1717.5,-60.47 1717.5,-50.19 1717.5,-40.7"/>
<polygon fill="midnightblue" stroke="midnightblue" points="1721,-40.52 1717.5,-30.52 1714,-40.52 1721,-40.52"/>
</g>
<!-- Node19 -->
<g id="node19" class="node">
<title>Node19</title>
<g id="a_node19"><a xlink:href="http://www.dealii.org/developer/doxygen/deal.II/full__matrix_8h.html.html" xlink:title=" ">
<polygon fill="none" stroke="black" points="1791,-6 1791,-25 1920,-25 1920,-6 1791,-6"/>
<text text-anchor="middle" x="1855.5" y="-13" font-family="Helvetica,sans-Serif" font-size="10.00">deal.II/lac/full_matrix.h</text>
</a>
</g>
</g>
<!-- Node5&#45;&gt;Node19 -->
<g id="edge18" class="edge">
<title>Node5&#45;&gt;Node19</title>
<path fill="none" stroke="midnightblue" d="M1737.27,-67.48C1760.64,-57.4 1799.71,-40.55 1826.5,-29"/>
<polygon fill="midnightblue" stroke="midnightblue" points="1827.97,-32.18 1835.76,-25.01 1825.2,-25.75 1827.97,-32.18"/>
</g>
<!-- Node20 -->
<g id="node20" class="node">
<title>Node20</title>
<g id="a_node20"><a xlink:href="http://www.dealii.org/developer/doxygen/deal.II/precondition_8h.html.html" xlink:title=" ">
<polygon fill="none" stroke="black" points="1938,-6 1938,-25 2075,-25 2075,-6 1938,-6"/>
<text text-anchor="middle" x="2006.5" y="-13" font-family="Helvetica,sans-Serif" font-size="10.00">deal.II/lac/precondition.h</text>
</a>
</g>
</g>
<!-- Node5&#45;&gt;Node20 -->
<g id="edge19" class="edge">
<title>Node5&#45;&gt;Node20</title>
<path fill="none" stroke="midnightblue" d="M1749.25,-69.46C1798.88,-59.25 1895.29,-39.4 1954.96,-27.11"/>
<polygon fill="midnightblue" stroke="midnightblue" points="1955.84,-30.5 1964.93,-25.06 1954.43,-23.65 1955.84,-30.5"/>
</g>
<!-- Node21 -->
<g id="node21" class="node">
<title>Node21</title>
<g id="a_node21"><a xlink:href="http://www.dealii.org/developer/doxygen/deal.II/solver__cg_8h.html.html" xlink:title=" ">
<polygon fill="none" stroke="black" points="2093.5,-6 2093.5,-25 2215.5,-25 2215.5,-6 2093.5,-6"/>
<text text-anchor="middle" x="2154.5" y="-13" font-family="Helvetica,sans-Serif" font-size="10.00">deal.II/lac/solver_cg.h</text>
</a>
</g>
</g>
<!-- Node5&#45;&gt;Node21 -->
<g id="edge20" class="edge">
<title>Node5&#45;&gt;Node21</title>
<path fill="none" stroke="midnightblue" d="M1749.11,-69.46C1753.92,-68.57 1758.83,-67.72 1763.5,-67 1905.4,-45.2 1942.73,-53.58 2084.5,-31 2091.66,-29.86 2099.2,-28.48 2106.57,-27.04"/>
<polygon fill="midnightblue" stroke="midnightblue" points="2107.36,-30.45 2116.47,-25.04 2105.98,-23.59 2107.36,-30.45"/>
</g>
<!-- Node22 -->
<g id="node22" class="node">
<title>Node22</title>
<g id="a_node22"><a xlink:href="http://www.dealii.org/developer/doxygen/deal.II/sparse__matrix_8h.html.html" xlink:title=" ">
<polygon fill="none" stroke="black" points="2234,-0.5 2234,-30.5 2333,-30.5 2333,-0.5 2234,-0.5"/>
<text text-anchor="start" x="2242" y="-18.5" font-family="Helvetica,sans-Serif" font-size="10.00">deal.II/lac/sparse</text>
<text text-anchor="middle" x="2283.5" y="-7.5" font-family="Helvetica,sans-Serif" font-size="10.00">_matrix.h</text>
</a>
</g>
</g>
<!-- Node5&#45;&gt;Node22 -->
<g id="edge21" class="edge">
<title>Node5&#45;&gt;Node22</title>
<path fill="none" stroke="midnightblue" d="M1749.09,-69.32C1753.9,-68.45 1758.82,-67.64 1763.5,-67 1963.85,-39.67 2019.8,-62.86 2223.59,-30.95"/>
<polygon fill="midnightblue" stroke="midnightblue" points="2224.4,-34.37 2233.72,-29.34 2223.3,-27.45 2224.4,-34.37"/>
</g>
<!-- Node23 -->
<g id="node23" class="node">
<title>Node23</title>
<g id="a_node23"><a xlink:href="http://www.dealii.org/developer/doxygen/deal.II/vector_8h.html.html" xlink:title=" ">
<polygon fill="none" stroke="black" points="2351,-6 2351,-25 2458,-25 2458,-6 2351,-6"/>
<text text-anchor="middle" x="2404.5" y="-13" font-family="Helvetica,sans-Serif" font-size="10.00">deal.II/lac/vector.h</text>
</a>
</g>
</g>
<!-- Node5&#45;&gt;Node23 -->
<g id="edge22" class="edge">
<title>Node5&#45;&gt;Node23</title>
<path fill="none" stroke="midnightblue" d="M1749.09,-69.25C1753.9,-68.39 1758.82,-67.6 1763.5,-67 2019.23,-34.18 2087.41,-68.49 2342.5,-31 2348.96,-30.05 2355.74,-28.77 2362.35,-27.36"/>
<polygon fill="midnightblue" stroke="midnightblue" points="2363.53,-30.68 2372.52,-25.06 2361.99,-23.85 2363.53,-30.68"/>
</g>
<!-- Node24 -->
<g id="node24" class="node">
<title>Node24</title>
<g id="a_node24"><a xlink:href="http://www.dealii.org/developer/doxygen/deal.II/numerics_2data__out_8h.html.html" xlink:title=" ">
<polygon fill="none" stroke="black" points="2476,-0.5 2476,-30.5 2595,-30.5 2595,-0.5 2476,-0.5"/>
<text text-anchor="start" x="2484" y="-18.5" font-family="Helvetica,sans-Serif" font-size="10.00">deal.II/numerics/data</text>
<text text-anchor="middle" x="2535.5" y="-7.5" font-family="Helvetica,sans-Serif" font-size="10.00">_out.h</text>
</a>
</g>
</g>
<!-- Node5&#45;&gt;Node24 -->
<g id="edge23" class="edge">
<title>Node5&#45;&gt;Node24</title>
<path fill="none" stroke="midnightblue" d="M1749.08,-69.21C1753.89,-68.35 1758.82,-67.58 1763.5,-67 2071.12,-29.24 2155.07,-70.88 2465.69,-31.1"/>
<polygon fill="midnightblue" stroke="midnightblue" points="2466.42,-34.53 2475.89,-29.77 2465.52,-27.59 2466.42,-34.53"/>
</g>
<!-- Node25 -->
<g id="node25" class="node">
<title>Node25</title>
<g id="a_node25"><a xlink:href="http://www.dealii.org/developer/doxygen/deal.II/matrix__tools_8h.html.html" xlink:title=" ">
<polygon fill="none" stroke="black" points="2613.5,-0.5 2613.5,-30.5 2743.5,-30.5 2743.5,-0.5 2613.5,-0.5"/>
<text text-anchor="start" x="2621.5" y="-18.5" font-family="Helvetica,sans-Serif" font-size="10.00">deal.II/numerics/matrix</text>
<text text-anchor="middle" x="2678.5" y="-7.5" font-family="Helvetica,sans-Serif" font-size="10.00">_tools.h</text>
</a>
</g>
</g>
<!-- Node5&#45;&gt;Node25 -->
<g id="edge24" class="edge">
<title>Node5&#45;&gt;Node25</title>
<path fill="none" stroke="midnightblue" d="M1749.08,-69.17C1753.89,-68.32 1758.81,-67.56 1763.5,-67 2131.75,-23.34 2231.24,-74.19 2603.25,-31.02"/>
<polygon fill="midnightblue" stroke="midnightblue" points="2603.69,-34.49 2613.21,-29.85 2602.87,-27.54 2603.69,-34.49"/>
</g>
<!-- Node26 -->
<g id="node26" class="node">
<title>Node26</title>
<g id="a_node26"><a xlink:href="http://www.dealii.org/developer/doxygen/deal.II/vector__tools_8h.html.html" xlink:title=" ">
<polygon fill="none" stroke="black" points="2761.5,-0.5 2761.5,-30.5 2889.5,-30.5 2889.5,-0.5 2761.5,-0.5"/>
<text text-anchor="start" x="2769.5" y="-18.5" font-family="Helvetica,sans-Serif" font-size="10.00">deal.II/numerics/vector</text>
<text text-anchor="middle" x="2825.5" y="-7.5" font-family="Helvetica,sans-Serif" font-size="10.00">_tools.h</text>
</a>
</g>
</g>
<!-- Node5&#45;&gt;Node26 -->
<g id="edge25" class="edge">
<title>Node5&#45;&gt;Node26</title>
<path fill="none" stroke="midnightblue" d="M1749.07,-69.15C1753.89,-68.3 1758.81,-67.54 1763.5,-67 2197.14,-17 2313.86,-81.03 2751.43,-30.98"/>
<polygon fill="midnightblue" stroke="midnightblue" points="2751.97,-34.44 2761.5,-29.81 2751.16,-27.49 2751.97,-34.44"/>
</g>
<!-- Node27 -->
<g id="node27" class="node">
<title>Node27</title>
<g id="a_node27"><a xlink:title=" ">
<polygon fill="none" stroke="#bfbfbf" points="2907.5,-6 2907.5,-25 2967.5,-25 2967.5,-6 2907.5,-6"/>
<text text-anchor="middle" x="2937.5" y="-13" font-family="Helvetica,sans-Serif" font-size="10.00">iostream</text>
</a>
</g>
</g>
<!-- Node5&#45;&gt;Node27 -->
<g id="edge27" class="edge">
<title>Node5&#45;&gt;Node27</title>
<path fill="none" stroke="midnightblue" d="M1749.07,-69.13C1753.88,-68.28 1758.81,-67.53 1763.5,-67 2014.25,-38.68 2650.88,-79.61 2898.5,-31 2901.76,-30.36 2905.11,-29.48 2908.41,-28.47"/>
<polygon fill="midnightblue" stroke="midnightblue" points="2909.71,-31.72 2918.02,-25.15 2907.42,-25.11 2909.71,-31.72"/>
</g>
</g>
</svg>
