<?xml version="1.0" encoding="UTF-8" standalone="no"?>
<!DOCTYPE svg PUBLIC "-//W3C//DTD SVG 1.1//EN"
 "http://www.w3.org/Graphics/SVG/1.1/DTD/svg11.dtd">
<!-- Generated by graphviz version 2.43.0 (0)
 -->
<!-- Title: labs/lab&#45;02/source/step&#45;1.cc Pages: 1 -->
<svg width="950pt" height="95pt"
 viewBox="0.00 0.00 950.00 95.00" xmlns="http://www.w3.org/2000/svg" xmlns:xlink="http://www.w3.org/1999/xlink">
<g id="graph0" class="graph" transform="scale(1 1) rotate(0) translate(4 91)">
<title>labs/lab&#45;02/source/step&#45;1.cc</title>
<!-- Node1 -->
<g id="node1" class="node">
<title>Node1</title>
<g id="a_node1"><a xlink:title=" ">
<polygon fill="#bfbfbf" stroke="black" points="523,-56.5 523,-86.5 629,-86.5 629,-56.5 523,-56.5"/>
<text text-anchor="start" x="531" y="-74.5" font-family="Helvetica,sans-Serif" font-size="10.00">labs/lab&#45;02/source</text>
<text text-anchor="middle" x="576" y="-63.5" font-family="Helvetica,sans-Serif" font-size="10.00">/step&#45;1.cc</text>
</a>
</g>
</g>
<!-- Node2 -->
<g id="node2" class="node">
<title>Node2</title>
<g id="a_node2"><a xlink:href="http://www.dealii.org/developer/doxygen/deal.II/grid__generator_8h.html.html" xlink:title=" ">
<polygon fill="none" stroke="black" points="0,-0.5 0,-19.5 152,-19.5 152,-0.5 0,-0.5"/>
<text text-anchor="middle" x="76" y="-7.5" font-family="Helvetica,sans-Serif" font-size="10.00">deal.II/grid/grid_generator.h</text>
</a>
</g>
</g>
<!-- Node1&#45;&gt;Node2 -->
<g id="edge1" class="edge">
<title>Node1&#45;&gt;Node2</title>
<path fill="none" stroke="midnightblue" d="M522.96,-64.19C435.64,-53.8 261.02,-33.02 157.78,-20.73"/>
<polygon fill="midnightblue" stroke="midnightblue" points="158.06,-17.24 147.71,-19.53 157.23,-24.19 158.06,-17.24"/>
</g>
<!-- Node3 -->
<g id="node3" class="node">
<title>Node3</title>
<g id="a_node3"><a xlink:href="http://www.dealii.org/developer/doxygen/deal.II/grid__out_8h.html.html" xlink:title=" ">
<polygon fill="none" stroke="black" points="170,-0.5 170,-19.5 290,-19.5 290,-0.5 170,-0.5"/>
<text text-anchor="middle" x="230" y="-7.5" font-family="Helvetica,sans-Serif" font-size="10.00">deal.II/grid/grid_out.h</text>
</a>
</g>
</g>
<!-- Node1&#45;&gt;Node3 -->
<g id="edge2" class="edge">
<title>Node1&#45;&gt;Node3</title>
<path fill="none" stroke="midnightblue" d="M522.7,-61.33C459.72,-50.5 355.23,-32.54 289.62,-21.25"/>
<polygon fill="midnightblue" stroke="midnightblue" points="289.89,-17.75 279.44,-19.5 288.7,-24.65 289.89,-17.75"/>
</g>
<!-- Node4 -->
<g id="node4" class="node">
<title>Node4</title>
<g id="a_node4"><a xlink:href="http://www.dealii.org/developer/doxygen/deal.II/grid_2tria_8h.html.html" xlink:title=" ">
<polygon fill="none" stroke="black" points="308.5,-0.5 308.5,-19.5 405.5,-19.5 405.5,-0.5 308.5,-0.5"/>
<text text-anchor="middle" x="357" y="-7.5" font-family="Helvetica,sans-Serif" font-size="10.00">deal.II/grid/tria.h</text>
</a>
</g>
</g>
<!-- Node1&#45;&gt;Node4 -->
<g id="edge3" class="edge">
<title>Node1&#45;&gt;Node4</title>
<path fill="none" stroke="midnightblue" d="M524.38,-56.47C485.94,-46.03 434.14,-31.96 398.4,-22.25"/>
<polygon fill="midnightblue" stroke="midnightblue" points="398.88,-18.75 388.31,-19.51 397.04,-25.51 398.88,-18.75"/>
</g>
<!-- Node5 -->
<g id="node5" class="node">
<title>Node5</title>
<g id="a_node5"><a xlink:href="http://www.dealii.org/developer/doxygen/deal.II/tria__accessor_8h.html.html" xlink:title=" ">
<polygon fill="none" stroke="black" points="423.5,-0.5 423.5,-19.5 568.5,-19.5 568.5,-0.5 423.5,-0.5"/>
<text text-anchor="middle" x="496" y="-7.5" font-family="Helvetica,sans-Serif" font-size="10.00">deal.II/grid/tria_accessor.h</text>
</a>
</g>
</g>
<!-- Node1&#45;&gt;Node5 -->
<g id="edge4" class="edge">
<title>Node1&#45;&gt;Node5</title>
<path fill="none" stroke="midnightblue" d="M557.04,-56.4C544.58,-47.13 528.3,-35.03 515.69,-25.65"/>
<polygon fill="midnightblue" stroke="midnightblue" points="517.75,-22.82 507.64,-19.66 513.58,-28.43 517.75,-22.82"/>
</g>
<!-- Node6 -->
<g id="node6" class="node">
<title>Node6</title>
<g id="a_node6"><a xlink:href="http://www.dealii.org/developer/doxygen/deal.II/tria__iterator_8h.html.html" xlink:title=" ">
<polygon fill="none" stroke="black" points="587,-0.5 587,-19.5 725,-19.5 725,-0.5 587,-0.5"/>
<text text-anchor="middle" x="656" y="-7.5" font-family="Helvetica,sans-Serif" font-size="10.00">deal.II/grid/tria_iterator.h</text>
</a>
</g>
</g>
<!-- Node1&#45;&gt;Node6 -->
<g id="edge5" class="edge">
<title>Node1&#45;&gt;Node6</title>
<path fill="none" stroke="midnightblue" d="M594.96,-56.4C607.42,-47.13 623.7,-35.03 636.31,-25.65"/>
<polygon fill="midnightblue" stroke="midnightblue" points="638.42,-28.43 644.36,-19.66 634.25,-22.82 638.42,-28.43"/>
</g>
<!-- Node7 -->
<g id="node7" class="node">
<title>Node7</title>
<g id="a_node7"><a xlink:title=" ">
<polygon fill="none" stroke="#bfbfbf" points="743.5,-0.5 743.5,-19.5 790.5,-19.5 790.5,-0.5 743.5,-0.5"/>
<text text-anchor="middle" x="767" y="-7.5" font-family="Helvetica,sans-Serif" font-size="10.00">cmath</text>
</a>
</g>
</g>
<!-- Node1&#45;&gt;Node7 -->
<g id="edge6" class="edge">
<title>Node1&#45;&gt;Node7</title>
<path fill="none" stroke="midnightblue" d="M621.26,-56.4C655.66,-45.69 702.2,-31.19 733.34,-21.48"/>
<polygon fill="midnightblue" stroke="midnightblue" points="734.77,-24.71 743.28,-18.39 732.69,-18.02 734.77,-24.71"/>
</g>
<!-- Node8 -->
<g id="node8" class="node">
<title>Node8</title>
<g id="a_node8"><a xlink:title=" ">
<polygon fill="none" stroke="#bfbfbf" points="808.5,-0.5 808.5,-19.5 863.5,-19.5 863.5,-0.5 808.5,-0.5"/>
<text text-anchor="middle" x="836" y="-7.5" font-family="Helvetica,sans-Serif" font-size="10.00">fstream</text>
</a>
</g>
</g>
<!-- Node1&#45;&gt;Node8 -->
<g id="edge7" class="edge">
<title>Node1&#45;&gt;Node8</title>
<path fill="none" stroke="midnightblue" d="M629.03,-58.91C672.25,-49.38 735.12,-35.33 798.7,-20.27"/>
<polygon fill="midnightblue" stroke="midnightblue" points="799.58,-23.66 808.5,-17.95 797.96,-16.85 799.58,-23.66"/>
</g>
<!-- Node9 -->
<g id="node9" class="node">
<title>Node9</title>
<g id="a_node9"><a xlink:title=" ">
<polygon fill="none" stroke="#bfbfbf" points="882,-0.5 882,-19.5 942,-19.5 942,-0.5 882,-0.5"/>
<text text-anchor="middle" x="912" y="-7.5" font-family="Helvetica,sans-Serif" font-size="10.00">iostream</text>
</a>
</g>
</g>
<!-- Node1&#45;&gt;Node9 -->
<g id="edge8" class="edge">
<title>Node1&#45;&gt;Node9</title>
<path fill="none" stroke="midnightblue" d="M629.02,-62.44C686.47,-53.5 781.05,-38.15 871.89,-20.13"/>
<polygon fill="midnightblue" stroke="midnightblue" points="872.68,-23.54 881.8,-18.15 871.31,-16.68 872.68,-23.54"/>
</g>
</g>
</svg>
