<?xml version="1.0" encoding="UTF-8" standalone="no"?>
<!DOCTYPE svg PUBLIC "-//W3C//DTD SVG 1.1//EN"
 "http://www.w3.org/Graphics/SVG/1.1/DTD/svg11.dtd">
<!-- Generated by graphviz version 2.43.0 (0)
 -->
<!-- Title: labs/lab&#45;04/source/step&#45;4.cc Pages: 1 -->
<svg width="3152pt" height="106pt"
 viewBox="0.00 0.00 3151.50 106.00" xmlns="http://www.w3.org/2000/svg" xmlns:xlink="http://www.w3.org/1999/xlink">
<g id="graph0" class="graph" transform="scale(1 1) rotate(0) translate(4 102)">
<title>labs/lab&#45;04/source/step&#45;4.cc</title>
<!-- Node1 -->
<g id="node1" class="node">
<title>Node1</title>
<g id="a_node1"><a xlink:title=" ">
<polygon fill="#bfbfbf" stroke="black" points="1624.5,-67.5 1624.5,-97.5 1730.5,-97.5 1730.5,-67.5 1624.5,-67.5"/>
<text text-anchor="start" x="1632.5" y="-85.5" font-family="Helvetica,sans-Serif" font-size="10.00">labs/lab&#45;04/source</text>
<text text-anchor="middle" x="1677.5" y="-74.5" font-family="Helvetica,sans-Serif" font-size="10.00">/step&#45;4.cc</text>
</a>
</g>
</g>
<!-- Node2 -->
<g id="node2" class="node">
<title>Node2</title>
<g id="a_node2"><a xlink:href="http://www.dealii.org/developer/doxygen/deal.II/function_8h.html.html" xlink:title=" ">
<polygon fill="none" stroke="black" points="0,-6 0,-25 125,-25 125,-6 0,-6"/>
<text text-anchor="middle" x="62.5" y="-13" font-family="Helvetica,sans-Serif" font-size="10.00">deal.II/base/function.h</text>
</a>
</g>
</g>
<!-- Node1&#45;&gt;Node2 -->
<g id="edge1" class="edge">
<title>Node1&#45;&gt;Node2</title>
<path fill="none" stroke="midnightblue" d="M1624.39,-80.95C1388.27,-78.3 432.35,-65.62 134.5,-31 126.22,-30.04 117.46,-28.62 109.03,-27.04"/>
<polygon fill="midnightblue" stroke="midnightblue" points="109.43,-23.55 98.94,-25.06 108.08,-30.42 109.43,-23.55"/>
</g>
<!-- Node3 -->
<g id="node3" class="node">
<title>Node3</title>
<g id="a_node3"><a xlink:href="http://www.dealii.org/developer/doxygen/deal.II/logstream_8h.html.html" xlink:title=" ">
<polygon fill="none" stroke="black" points="143.5,-6 143.5,-25 277.5,-25 277.5,-6 143.5,-6"/>
<text text-anchor="middle" x="210.5" y="-13" font-family="Helvetica,sans-Serif" font-size="10.00">deal.II/base/logstream.h</text>
</a>
</g>
</g>
<!-- Node1&#45;&gt;Node3 -->
<g id="edge2" class="edge">
<title>Node1&#45;&gt;Node3</title>
<path fill="none" stroke="midnightblue" d="M1624.14,-80.65C1402.39,-76.95 552.89,-61.07 286.5,-31 277.58,-29.99 268.13,-28.52 259.05,-26.9"/>
<polygon fill="midnightblue" stroke="midnightblue" points="259.46,-23.42 248.99,-25.02 258.18,-30.3 259.46,-23.42"/>
</g>
<!-- Node4 -->
<g id="node4" class="node">
<title>Node4</title>
<g id="a_node4"><a xlink:href="http://www.dealii.org/developer/doxygen/deal.II/quadrature__lib_8h.html.html" xlink:title=" ">
<polygon fill="none" stroke="black" points="296,-0.5 296,-30.5 425,-30.5 425,-0.5 296,-0.5"/>
<text text-anchor="start" x="304" y="-18.5" font-family="Helvetica,sans-Serif" font-size="10.00">deal.II/base/quadrature</text>
<text text-anchor="middle" x="360.5" y="-7.5" font-family="Helvetica,sans-Serif" font-size="10.00">_lib.h</text>
</a>
</g>
</g>
<!-- Node1&#45;&gt;Node4 -->
<g id="edge3" class="edge">
<title>Node1&#45;&gt;Node4</title>
<path fill="none" stroke="midnightblue" d="M1624.32,-80.42C1420.72,-76.14 689.93,-59.18 435.33,-30.93"/>
<polygon fill="midnightblue" stroke="midnightblue" points="435.72,-27.46 425.38,-29.8 434.92,-34.41 435.72,-27.46"/>
</g>
<!-- Node5 -->
<g id="node5" class="node">
<title>Node5</title>
<g id="a_node5"><a xlink:href="http://www.dealii.org/developer/doxygen/deal.II/dof__accessor_8h.html.html" xlink:title=" ">
<polygon fill="none" stroke="black" points="443.5,-6 443.5,-25 589.5,-25 589.5,-6 443.5,-6"/>
<text text-anchor="middle" x="516.5" y="-13" font-family="Helvetica,sans-Serif" font-size="10.00">deal.II/dofs/dof_accessor.h</text>
</a>
</g>
</g>
<!-- Node1&#45;&gt;Node5 -->
<g id="edge4" class="edge">
<title>Node1&#45;&gt;Node5</title>
<path fill="none" stroke="midnightblue" d="M1624.26,-81.42C1466.93,-80.67 990.6,-74.66 598.5,-31 588.9,-29.93 578.73,-28.43 568.94,-26.8"/>
<polygon fill="midnightblue" stroke="midnightblue" points="569.36,-23.32 558.91,-25.07 568.17,-30.22 569.36,-23.32"/>
</g>
<!-- Node6 -->
<g id="node6" class="node">
<title>Node6</title>
<g id="a_node6"><a xlink:href="http://www.dealii.org/developer/doxygen/deal.II/dofs_2dof__handler_8h.html.html" xlink:title=" ">
<polygon fill="none" stroke="black" points="607.5,-6 607.5,-25 747.5,-25 747.5,-6 607.5,-6"/>
<text text-anchor="middle" x="677.5" y="-13" font-family="Helvetica,sans-Serif" font-size="10.00">deal.II/dofs/dof_handler.h</text>
</a>
</g>
</g>
<!-- Node1&#45;&gt;Node6 -->
<g id="edge5" class="edge">
<title>Node1&#45;&gt;Node6</title>
<path fill="none" stroke="midnightblue" d="M1624.35,-80.94C1482.76,-78.93 1084.88,-69.98 756.5,-31 747.35,-29.91 737.66,-28.42 728.31,-26.81"/>
<polygon fill="midnightblue" stroke="midnightblue" points="728.81,-23.34 718.35,-25.02 727.58,-30.23 728.81,-23.34"/>
</g>
<!-- Node7 -->
<g id="node7" class="node">
<title>Node7</title>
<g id="a_node7"><a xlink:href="http://www.dealii.org/developer/doxygen/deal.II/dof__tools_8h.html.html" xlink:title=" ">
<polygon fill="none" stroke="black" points="765.5,-6 765.5,-25 893.5,-25 893.5,-6 765.5,-6"/>
<text text-anchor="middle" x="829.5" y="-13" font-family="Helvetica,sans-Serif" font-size="10.00">deal.II/dofs/dof_tools.h</text>
</a>
</g>
</g>
<!-- Node1&#45;&gt;Node7 -->
<g id="edge6" class="edge">
<title>Node1&#45;&gt;Node7</title>
<path fill="none" stroke="midnightblue" d="M1624.18,-80.43C1498.15,-77.38 1172.21,-66.42 902.5,-31 894.39,-29.94 885.84,-28.51 877.54,-26.97"/>
<polygon fill="midnightblue" stroke="midnightblue" points="878.09,-23.51 867.61,-25.05 876.76,-30.38 878.09,-23.51"/>
</g>
<!-- Node8 -->
<g id="node8" class="node">
<title>Node8</title>
<g id="a_node8"><a xlink:href="http://www.dealii.org/developer/doxygen/deal.II/fe__q_8h.html.html" xlink:title=" ">
<polygon fill="none" stroke="black" points="911.5,-6 911.5,-25 1003.5,-25 1003.5,-6 911.5,-6"/>
<text text-anchor="middle" x="957.5" y="-13" font-family="Helvetica,sans-Serif" font-size="10.00">deal.II/fe/fe_q.h</text>
</a>
</g>
</g>
<!-- Node1&#45;&gt;Node8 -->
<g id="edge7" class="edge">
<title>Node1&#45;&gt;Node8</title>
<path fill="none" stroke="midnightblue" d="M1624.09,-80.73C1510.67,-78.38 1237.71,-68.91 1012.5,-31 1007.02,-30.08 1001.3,-28.86 995.7,-27.52"/>
<polygon fill="midnightblue" stroke="midnightblue" points="996.38,-24.09 985.83,-25.02 994.66,-30.87 996.38,-24.09"/>
</g>
<!-- Node9 -->
<g id="node9" class="node">
<title>Node9</title>
<g id="a_node9"><a xlink:href="http://www.dealii.org/developer/doxygen/deal.II/fe_2fe__values_8h.html.html" xlink:title=" ">
<polygon fill="none" stroke="black" points="1022,-6 1022,-25 1141,-25 1141,-6 1022,-6"/>
<text text-anchor="middle" x="1081.5" y="-13" font-family="Helvetica,sans-Serif" font-size="10.00">deal.II/fe/fe_values.h</text>
</a>
</g>
</g>
<!-- Node1&#45;&gt;Node9 -->
<g id="edge8" class="edge">
<title>Node1&#45;&gt;Node9</title>
<path fill="none" stroke="midnightblue" d="M1624.15,-78.36C1528.72,-72.31 1322.68,-57.26 1150.5,-31 1143.26,-29.9 1135.64,-28.52 1128.21,-27.05"/>
<polygon fill="midnightblue" stroke="midnightblue" points="1128.74,-23.59 1118.25,-25.02 1127.34,-30.45 1128.74,-23.59"/>
</g>
<!-- Node10 -->
<g id="node10" class="node">
<title>Node10</title>
<g id="a_node10"><a xlink:href="http://www.dealii.org/developer/doxygen/deal.II/grid__generator_8h.html.html" xlink:title=" ">
<polygon fill="none" stroke="black" points="1159.5,-6 1159.5,-25 1311.5,-25 1311.5,-6 1159.5,-6"/>
<text text-anchor="middle" x="1235.5" y="-13" font-family="Helvetica,sans-Serif" font-size="10.00">deal.II/grid/grid_generator.h</text>
</a>
</g>
</g>
<!-- Node1&#45;&gt;Node10 -->
<g id="edge9" class="edge">
<title>Node1&#45;&gt;Node10</title>
<path fill="none" stroke="midnightblue" d="M1624.2,-74.44C1554.37,-65.08 1428.12,-47.79 1320.5,-31 1311.9,-29.66 1302.83,-28.18 1293.93,-26.69"/>
<polygon fill="midnightblue" stroke="midnightblue" points="1294.45,-23.23 1284.01,-25.02 1293.29,-30.13 1294.45,-23.23"/>
</g>
<!-- Node11 -->
<g id="node11" class="node">
<title>Node11</title>
<g id="a_node11"><a xlink:href="http://www.dealii.org/developer/doxygen/deal.II/grid_2tria_8h.html.html" xlink:title=" ">
<polygon fill="none" stroke="black" points="1330,-6 1330,-25 1427,-25 1427,-6 1330,-6"/>
<text text-anchor="middle" x="1378.5" y="-13" font-family="Helvetica,sans-Serif" font-size="10.00">deal.II/grid/tria.h</text>
</a>
</g>
</g>
<!-- Node1&#45;&gt;Node11 -->
<g id="edge10" class="edge">
<title>Node1&#45;&gt;Node11</title>
<path fill="none" stroke="midnightblue" d="M1624.48,-71.12C1575.36,-61.35 1500.31,-46 1435.5,-31 1430.77,-29.91 1425.84,-28.72 1420.94,-27.51"/>
<polygon fill="midnightblue" stroke="midnightblue" points="1421.55,-24.06 1410.99,-25.03 1419.85,-30.85 1421.55,-24.06"/>
</g>
<!-- Node12 -->
<g id="node12" class="node">
<title>Node12</title>
<g id="a_node12"><a xlink:href="http://www.dealii.org/developer/doxygen/deal.II/tria__accessor_8h.html.html" xlink:title=" ">
<polygon fill="none" stroke="black" points="1445,-6 1445,-25 1590,-25 1590,-6 1445,-6"/>
<text text-anchor="middle" x="1517.5" y="-13" font-family="Helvetica,sans-Serif" font-size="10.00">deal.II/grid/tria_accessor.h</text>
</a>
</g>
</g>
<!-- Node1&#45;&gt;Node12 -->
<g id="edge11" class="edge">
<title>Node1&#45;&gt;Node12</title>
<path fill="none" stroke="midnightblue" d="M1642.78,-67.4C1614.46,-55.89 1574.85,-39.8 1547.79,-28.81"/>
<polygon fill="midnightblue" stroke="midnightblue" points="1549.02,-25.53 1538.44,-25.01 1546.39,-32.01 1549.02,-25.53"/>
</g>
<!-- Node13 -->
<g id="node13" class="node">
<title>Node13</title>
<g id="a_node13"><a xlink:href="http://www.dealii.org/developer/doxygen/deal.II/tria__iterator_8h.html.html" xlink:title=" ">
<polygon fill="none" stroke="black" points="1608.5,-6 1608.5,-25 1746.5,-25 1746.5,-6 1608.5,-6"/>
<text text-anchor="middle" x="1677.5" y="-13" font-family="Helvetica,sans-Serif" font-size="10.00">deal.II/grid/tria_iterator.h</text>
</a>
</g>
</g>
<!-- Node1&#45;&gt;Node13 -->
<g id="edge12" class="edge">
<title>Node1&#45;&gt;Node13</title>
<path fill="none" stroke="midnightblue" d="M1677.5,-67.4C1677.5,-58.06 1677.5,-45.71 1677.5,-35.52"/>
<polygon fill="midnightblue" stroke="midnightblue" points="1681,-35.19 1677.5,-25.19 1674,-35.19 1681,-35.19"/>
</g>
<!-- Node14 -->
<g id="node14" class="node">
<title>Node14</title>
<g id="a_node14"><a xlink:href="http://www.dealii.org/developer/doxygen/deal.II/dynamic__sparsity__pattern_8h.html.html" xlink:title=" ">
<polygon fill="none" stroke="black" points="1764.5,-0.5 1764.5,-30.5 1874.5,-30.5 1874.5,-0.5 1764.5,-0.5"/>
<text text-anchor="start" x="1772.5" y="-18.5" font-family="Helvetica,sans-Serif" font-size="10.00">deal.II/lac/dynamic</text>
<text text-anchor="middle" x="1819.5" y="-7.5" font-family="Helvetica,sans-Serif" font-size="10.00">_sparsity_pattern.h</text>
</a>
</g>
</g>
<!-- Node1&#45;&gt;Node14 -->
<g id="edge13" class="edge">
<title>Node1&#45;&gt;Node14</title>
<path fill="none" stroke="midnightblue" d="M1708.31,-67.4C1729.15,-57.86 1756.88,-45.16 1779.43,-34.84"/>
<polygon fill="midnightblue" stroke="midnightblue" points="1781.11,-37.92 1788.75,-30.58 1778.2,-31.56 1781.11,-37.92"/>
</g>
<!-- Node15 -->
<g id="node15" class="node">
<title>Node15</title>
<g id="a_node15"><a xlink:href="http://www.dealii.org/developer/doxygen/deal.II/full__matrix_8h.html.html" xlink:title=" ">
<polygon fill="none" stroke="black" points="1893,-6 1893,-25 2022,-25 2022,-6 1893,-6"/>
<text text-anchor="middle" x="1957.5" y="-13" font-family="Helvetica,sans-Serif" font-size="10.00">deal.II/lac/full_matrix.h</text>
</a>
</g>
</g>
<!-- Node1&#45;&gt;Node15 -->
<g id="edge14" class="edge">
<title>Node1&#45;&gt;Node15</title>
<path fill="none" stroke="midnightblue" d="M1730.82,-69.12C1782.93,-57.03 1861.44,-38.8 1911.05,-27.28"/>
<polygon fill="midnightblue" stroke="midnightblue" points="1911.93,-30.67 1920.88,-25 1910.34,-23.85 1911.93,-30.67"/>
</g>
<!-- Node16 -->
<g id="node16" class="node">
<title>Node16</title>
<g id="a_node16"><a xlink:href="http://www.dealii.org/developer/doxygen/deal.II/precondition_8h.html.html" xlink:title=" ">
<polygon fill="none" stroke="black" points="2040,-6 2040,-25 2177,-25 2177,-6 2040,-6"/>
<text text-anchor="middle" x="2108.5" y="-13" font-family="Helvetica,sans-Serif" font-size="10.00">deal.II/lac/precondition.h</text>
</a>
</g>
</g>
<!-- Node1&#45;&gt;Node16 -->
<g id="edge15" class="edge">
<title>Node1&#45;&gt;Node16</title>
<path fill="none" stroke="midnightblue" d="M1730.69,-74.66C1800.05,-65.57 1925.08,-48.6 2031.5,-31 2039.14,-29.74 2047.2,-28.32 2055.1,-26.87"/>
<polygon fill="midnightblue" stroke="midnightblue" points="2055.79,-30.3 2064.99,-25.04 2054.52,-23.42 2055.79,-30.3"/>
</g>
<!-- Node17 -->
<g id="node17" class="node">
<title>Node17</title>
<g id="a_node17"><a xlink:href="http://www.dealii.org/developer/doxygen/deal.II/solver__cg_8h.html.html" xlink:title=" ">
<polygon fill="none" stroke="black" points="2195.5,-6 2195.5,-25 2317.5,-25 2317.5,-6 2195.5,-6"/>
<text text-anchor="middle" x="2256.5" y="-13" font-family="Helvetica,sans-Serif" font-size="10.00">deal.II/lac/solver_cg.h</text>
</a>
</g>
</g>
<!-- Node1&#45;&gt;Node17 -->
<g id="edge16" class="edge">
<title>Node1&#45;&gt;Node17</title>
<path fill="none" stroke="midnightblue" d="M1730.86,-78.06C1823.79,-71.67 2021.25,-56.24 2186.5,-31 2193.75,-29.89 2201.39,-28.52 2208.85,-27.07"/>
<polygon fill="midnightblue" stroke="midnightblue" points="2209.74,-30.46 2218.85,-25.06 2208.36,-23.6 2209.74,-30.46"/>
</g>
<!-- Node18 -->
<g id="node18" class="node">
<title>Node18</title>
<g id="a_node18"><a xlink:href="http://www.dealii.org/developer/doxygen/deal.II/sparse__matrix_8h.html.html" xlink:title=" ">
<polygon fill="none" stroke="black" points="2336,-0.5 2336,-30.5 2435,-30.5 2435,-0.5 2336,-0.5"/>
<text text-anchor="start" x="2344" y="-18.5" font-family="Helvetica,sans-Serif" font-size="10.00">deal.II/lac/sparse</text>
<text text-anchor="middle" x="2385.5" y="-7.5" font-family="Helvetica,sans-Serif" font-size="10.00">_matrix.h</text>
</a>
</g>
</g>
<!-- Node1&#45;&gt;Node18 -->
<g id="edge17" class="edge">
<title>Node1&#45;&gt;Node18</title>
<path fill="none" stroke="midnightblue" d="M1730.85,-80.29C1840.57,-77.18 2099.51,-66.55 2325.66,-30.94"/>
<polygon fill="midnightblue" stroke="midnightblue" points="2326.4,-34.37 2335.72,-29.34 2325.3,-27.46 2326.4,-34.37"/>
</g>
<!-- Node19 -->
<g id="node19" class="node">
<title>Node19</title>
<g id="a_node19"><a xlink:href="http://www.dealii.org/developer/doxygen/deal.II/vector_8h.html.html" xlink:title=" ">
<polygon fill="none" stroke="black" points="2453,-6 2453,-25 2560,-25 2560,-6 2453,-6"/>
<text text-anchor="middle" x="2506.5" y="-13" font-family="Helvetica,sans-Serif" font-size="10.00">deal.II/lac/vector.h</text>
</a>
</g>
</g>
<!-- Node1&#45;&gt;Node19 -->
<g id="edge18" class="edge">
<title>Node1&#45;&gt;Node19</title>
<path fill="none" stroke="midnightblue" d="M1730.82,-80.99C1856.07,-79.14 2178.53,-70.58 2444.5,-31 2450.96,-30.04 2457.74,-28.75 2464.34,-27.33"/>
<polygon fill="midnightblue" stroke="midnightblue" points="2465.53,-30.65 2474.51,-25.04 2463.99,-23.83 2465.53,-30.65"/>
</g>
<!-- Node20 -->
<g id="node20" class="node">
<title>Node20</title>
<g id="a_node20"><a xlink:href="http://www.dealii.org/developer/doxygen/deal.II/numerics_2data__out_8h.html.html" xlink:title=" ">
<polygon fill="none" stroke="black" points="2578,-0.5 2578,-30.5 2697,-30.5 2697,-0.5 2578,-0.5"/>
<text text-anchor="start" x="2586" y="-18.5" font-family="Helvetica,sans-Serif" font-size="10.00">deal.II/numerics/data</text>
<text text-anchor="middle" x="2637.5" y="-7.5" font-family="Helvetica,sans-Serif" font-size="10.00">_out.h</text>
</a>
</g>
</g>
<!-- Node1&#45;&gt;Node20 -->
<g id="edge19" class="edge">
<title>Node1&#45;&gt;Node20</title>
<path fill="none" stroke="midnightblue" d="M1730.55,-81.33C1867.72,-80.29 2245.34,-73.56 2567.88,-31.08"/>
<polygon fill="midnightblue" stroke="midnightblue" points="2568.44,-34.54 2577.89,-29.75 2567.51,-27.6 2568.44,-34.54"/>
</g>
<!-- Node21 -->
<g id="node21" class="node">
<title>Node21</title>
<g id="a_node21"><a xlink:href="http://www.dealii.org/developer/doxygen/deal.II/matrix__tools_8h.html.html" xlink:title=" ">
<polygon fill="none" stroke="black" points="2715.5,-0.5 2715.5,-30.5 2845.5,-30.5 2845.5,-0.5 2715.5,-0.5"/>
<text text-anchor="start" x="2723.5" y="-18.5" font-family="Helvetica,sans-Serif" font-size="10.00">deal.II/numerics/matrix</text>
<text text-anchor="middle" x="2780.5" y="-7.5" font-family="Helvetica,sans-Serif" font-size="10.00">_tools.h</text>
</a>
</g>
</g>
<!-- Node1&#45;&gt;Node21 -->
<g id="edge20" class="edge">
<title>Node1&#45;&gt;Node21</title>
<path fill="none" stroke="midnightblue" d="M1730.75,-81.59C1881.98,-81.28 2327.07,-76.36 2705.17,-31.04"/>
<polygon fill="midnightblue" stroke="midnightblue" points="2705.7,-34.5 2715.21,-29.82 2704.86,-27.55 2705.7,-34.5"/>
</g>
<!-- Node22 -->
<g id="node22" class="node">
<title>Node22</title>
<g id="a_node22"><a xlink:href="http://www.dealii.org/developer/doxygen/deal.II/vector__tools_8h.html.html" xlink:title=" ">
<polygon fill="none" stroke="black" points="2863.5,-0.5 2863.5,-30.5 2991.5,-30.5 2991.5,-0.5 2863.5,-0.5"/>
<text text-anchor="start" x="2871.5" y="-18.5" font-family="Helvetica,sans-Serif" font-size="10.00">deal.II/numerics/vector</text>
<text text-anchor="middle" x="2927.5" y="-7.5" font-family="Helvetica,sans-Serif" font-size="10.00">_tools.h</text>
</a>
</g>
</g>
<!-- Node1&#45;&gt;Node22 -->
<g id="edge21" class="edge">
<title>Node1&#45;&gt;Node22</title>
<path fill="none" stroke="midnightblue" d="M1730.52,-82.11C1895.6,-83.39 2415.03,-82.81 2853.48,-30.98"/>
<polygon fill="midnightblue" stroke="midnightblue" points="2853.98,-34.45 2863.49,-29.79 2853.15,-27.5 2853.98,-34.45"/>
</g>
<!-- Node23 -->
<g id="node23" class="node">
<title>Node23</title>
<g id="a_node23"><a xlink:title=" ">
<polygon fill="none" stroke="#bfbfbf" points="3010,-6 3010,-25 3065,-25 3065,-6 3010,-6"/>
<text text-anchor="middle" x="3037.5" y="-13" font-family="Helvetica,sans-Serif" font-size="10.00">fstream</text>
</a>
</g>
</g>
<!-- Node1&#45;&gt;Node23 -->
<g id="edge22" class="edge">
<title>Node1&#45;&gt;Node23</title>
<path fill="none" stroke="midnightblue" d="M1730.62,-81.84C1945.63,-82.83 2751.73,-82.94 3000.5,-31 3003.51,-30.37 3006.59,-29.52 3009.63,-28.55"/>
<polygon fill="midnightblue" stroke="midnightblue" points="3010.84,-31.83 3019.05,-25.13 3008.46,-25.25 3010.84,-31.83"/>
</g>
<!-- Node24 -->
<g id="node24" class="node">
<title>Node24</title>
<g id="a_node24"><a xlink:title=" ">
<polygon fill="none" stroke="#bfbfbf" points="3083.5,-6 3083.5,-25 3143.5,-25 3143.5,-6 3083.5,-6"/>
<text text-anchor="middle" x="3113.5" y="-13" font-family="Helvetica,sans-Serif" font-size="10.00">iostream</text>
</a>
</g>
</g>
<!-- Node1&#45;&gt;Node24 -->
<g id="edge23" class="edge">
<title>Node1&#45;&gt;Node24</title>
<path fill="none" stroke="midnightblue" d="M1730.52,-81.84C1952.79,-82.91 2810.12,-83.5 3074.5,-31 3077.76,-30.35 3081.11,-29.47 3084.4,-28.46"/>
<polygon fill="midnightblue" stroke="midnightblue" points="3085.71,-31.71 3094.02,-25.13 3083.42,-25.09 3085.71,-31.71"/>
</g>
</g>
</svg>
