<?xml version="1.0" encoding="UTF-8" standalone="no"?>
<!DOCTYPE svg PUBLIC "-//W3C//DTD SVG 1.1//EN"
 "http://www.w3.org/Graphics/SVG/1.1/DTD/svg11.dtd">
<!-- Generated by graphviz version 2.43.0 (0)
 -->
<!-- Title: labs/lab&#45;02/source/step&#45;2.cc Pages: 1 -->
<svg width="1645pt" height="106pt"
 viewBox="0.00 0.00 1644.50 106.00" xmlns="http://www.w3.org/2000/svg" xmlns:xlink="http://www.w3.org/1999/xlink">
<g id="graph0" class="graph" transform="scale(1 1) rotate(0) translate(4 102)">
<title>labs/lab&#45;02/source/step&#45;2.cc</title>
<!-- Node1 -->
<g id="node1" class="node">
<title>Node1</title>
<g id="a_node1"><a xlink:title=" ">
<polygon fill="#bfbfbf" stroke="black" points="835,-67.5 835,-97.5 941,-97.5 941,-67.5 835,-67.5"/>
<text text-anchor="start" x="843" y="-85.5" font-family="Helvetica,sans-Serif" font-size="10.00">labs/lab&#45;02/source</text>
<text text-anchor="middle" x="888" y="-74.5" font-family="Helvetica,sans-Serif" font-size="10.00">/step&#45;2.cc</text>
</a>
</g>
</g>
<!-- Node2 -->
<g id="node2" class="node">
<title>Node2</title>
<g id="a_node2"><a xlink:href="http://www.dealii.org/developer/doxygen/deal.II/dofs_2dof__handler_8h.html.html" xlink:title=" ">
<polygon fill="none" stroke="black" points="0,-6 0,-25 140,-25 140,-6 0,-6"/>
<text text-anchor="middle" x="70" y="-13" font-family="Helvetica,sans-Serif" font-size="10.00">deal.II/dofs/dof_handler.h</text>
</a>
</g>
</g>
<!-- Node1&#45;&gt;Node2 -->
<g id="edge1" class="edge">
<title>Node1&#45;&gt;Node2</title>
<path fill="none" stroke="midnightblue" d="M834.93,-79.94C713.23,-75.9 404.83,-63.11 149,-31 140.15,-29.89 130.8,-28.43 121.74,-26.86"/>
<polygon fill="midnightblue" stroke="midnightblue" points="122.14,-23.38 111.68,-25.06 120.91,-30.27 122.14,-23.38"/>
</g>
<!-- Node3 -->
<g id="node3" class="node">
<title>Node3</title>
<g id="a_node3"><a xlink:href="http://www.dealii.org/developer/doxygen/deal.II/dof__renumbering_8h.html.html" xlink:title=" ">
<polygon fill="none" stroke="black" points="158,-6 158,-25 324,-25 324,-6 158,-6"/>
<text text-anchor="middle" x="241" y="-13" font-family="Helvetica,sans-Serif" font-size="10.00">deal.II/dofs/dof_renumbering.h</text>
</a>
</g>
</g>
<!-- Node1&#45;&gt;Node3 -->
<g id="edge2" class="edge">
<title>Node1&#45;&gt;Node3</title>
<path fill="none" stroke="midnightblue" d="M834.69,-77.82C735.64,-70.72 516.63,-53.8 333,-31 322.79,-29.73 311.96,-28.2 301.47,-26.61"/>
<polygon fill="midnightblue" stroke="midnightblue" points="301.95,-23.14 291.53,-25.07 300.88,-30.06 301.95,-23.14"/>
</g>
<!-- Node4 -->
<g id="node4" class="node">
<title>Node4</title>
<g id="a_node4"><a xlink:href="http://www.dealii.org/developer/doxygen/deal.II/dof__tools_8h.html.html" xlink:title=" ">
<polygon fill="none" stroke="black" points="342,-6 342,-25 470,-25 470,-6 342,-6"/>
<text text-anchor="middle" x="406" y="-13" font-family="Helvetica,sans-Serif" font-size="10.00">deal.II/dofs/dof_tools.h</text>
</a>
</g>
</g>
<!-- Node1&#45;&gt;Node4 -->
<g id="edge3" class="edge">
<title>Node1&#45;&gt;Node4</title>
<path fill="none" stroke="midnightblue" d="M834.88,-76.2C756.7,-68.11 606.15,-51.45 479,-31 471.55,-29.8 463.7,-28.4 456.02,-26.94"/>
<polygon fill="midnightblue" stroke="midnightblue" points="456.55,-23.48 446.07,-25.01 455.22,-30.35 456.55,-23.48"/>
</g>
<!-- Node5 -->
<g id="node5" class="node">
<title>Node5</title>
<g id="a_node5"><a xlink:href="http://www.dealii.org/developer/doxygen/deal.II/fe__q_8h.html.html" xlink:title=" ">
<polygon fill="none" stroke="black" points="488,-6 488,-25 580,-25 580,-6 488,-6"/>
<text text-anchor="middle" x="534" y="-13" font-family="Helvetica,sans-Serif" font-size="10.00">deal.II/fe/fe_q.h</text>
</a>
</g>
</g>
<!-- Node1&#45;&gt;Node5 -->
<g id="edge4" class="edge">
<title>Node1&#45;&gt;Node5</title>
<path fill="none" stroke="midnightblue" d="M834.79,-74C774.78,-65.2 674.42,-49.43 589,-31 584.24,-29.97 579.28,-28.8 574.36,-27.59"/>
<polygon fill="midnightblue" stroke="midnightblue" points="574.98,-24.13 564.43,-25.05 573.25,-30.91 574.98,-24.13"/>
</g>
<!-- Node6 -->
<g id="node6" class="node">
<title>Node6</title>
<g id="a_node6"><a xlink:href="http://www.dealii.org/developer/doxygen/deal.II/grid__generator_8h.html.html" xlink:title=" ">
<polygon fill="none" stroke="black" points="598,-6 598,-25 750,-25 750,-6 598,-6"/>
<text text-anchor="middle" x="674" y="-13" font-family="Helvetica,sans-Serif" font-size="10.00">deal.II/grid/grid_generator.h</text>
</a>
</g>
</g>
<!-- Node1&#45;&gt;Node6 -->
<g id="edge5" class="edge">
<title>Node1&#45;&gt;Node6</title>
<path fill="none" stroke="midnightblue" d="M841.83,-67.48C802.97,-55.67 748.08,-39 711.79,-27.98"/>
<polygon fill="midnightblue" stroke="midnightblue" points="712.66,-24.59 702.08,-25.03 710.63,-31.28 712.66,-24.59"/>
</g>
<!-- Node7 -->
<g id="node7" class="node">
<title>Node7</title>
<g id="a_node7"><a xlink:href="http://www.dealii.org/developer/doxygen/deal.II/grid_2manifold__lib_8h.html.html" xlink:title=" ">
<polygon fill="none" stroke="black" points="768.5,-0.5 768.5,-30.5 883.5,-30.5 883.5,-0.5 768.5,-0.5"/>
<text text-anchor="start" x="776.5" y="-18.5" font-family="Helvetica,sans-Serif" font-size="10.00">deal.II/grid/manifold</text>
<text text-anchor="middle" x="826" y="-7.5" font-family="Helvetica,sans-Serif" font-size="10.00">_lib.h</text>
</a>
</g>
</g>
<!-- Node1&#45;&gt;Node7 -->
<g id="edge6" class="edge">
<title>Node1&#45;&gt;Node7</title>
<path fill="none" stroke="midnightblue" d="M874.55,-67.4C866.34,-58.79 855.69,-47.63 846.45,-37.94"/>
<polygon fill="midnightblue" stroke="midnightblue" points="848.86,-35.4 839.43,-30.58 843.8,-40.23 848.86,-35.4"/>
</g>
<!-- Node8 -->
<g id="node8" class="node">
<title>Node8</title>
<g id="a_node8"><a xlink:href="http://www.dealii.org/developer/doxygen/deal.II/grid_2tria_8h.html.html" xlink:title=" ">
<polygon fill="none" stroke="black" points="901.5,-6 901.5,-25 998.5,-25 998.5,-6 901.5,-6"/>
<text text-anchor="middle" x="950" y="-13" font-family="Helvetica,sans-Serif" font-size="10.00">deal.II/grid/tria.h</text>
</a>
</g>
</g>
<!-- Node1&#45;&gt;Node8 -->
<g id="edge7" class="edge">
<title>Node1&#45;&gt;Node8</title>
<path fill="none" stroke="midnightblue" d="M901.45,-67.4C911.22,-57.16 924.44,-43.3 934.62,-32.62"/>
<polygon fill="midnightblue" stroke="midnightblue" points="937.34,-34.85 941.71,-25.19 932.27,-30.01 937.34,-34.85"/>
</g>
<!-- Node9 -->
<g id="node9" class="node">
<title>Node9</title>
<g id="a_node9"><a xlink:href="http://www.dealii.org/developer/doxygen/deal.II/tria__accessor_8h.html.html" xlink:title=" ">
<polygon fill="none" stroke="black" points="1016.5,-6 1016.5,-25 1161.5,-25 1161.5,-6 1016.5,-6"/>
<text text-anchor="middle" x="1089" y="-13" font-family="Helvetica,sans-Serif" font-size="10.00">deal.II/grid/tria_accessor.h</text>
</a>
</g>
</g>
<!-- Node1&#45;&gt;Node9 -->
<g id="edge8" class="edge">
<title>Node1&#45;&gt;Node9</title>
<path fill="none" stroke="midnightblue" d="M931.61,-67.4C967.97,-55.64 1019.15,-39.09 1053.16,-28.09"/>
<polygon fill="midnightblue" stroke="midnightblue" points="1054.26,-31.41 1062.69,-25.01 1052.1,-24.75 1054.26,-31.41"/>
</g>
<!-- Node10 -->
<g id="node10" class="node">
<title>Node10</title>
<g id="a_node10"><a xlink:href="http://www.dealii.org/developer/doxygen/deal.II/tria__iterator_8h.html.html" xlink:title=" ">
<polygon fill="none" stroke="black" points="1180,-6 1180,-25 1318,-25 1318,-6 1180,-6"/>
<text text-anchor="middle" x="1249" y="-13" font-family="Helvetica,sans-Serif" font-size="10.00">deal.II/grid/tria_iterator.h</text>
</a>
</g>
</g>
<!-- Node1&#45;&gt;Node10 -->
<g id="edge9" class="edge">
<title>Node1&#45;&gt;Node10</title>
<path fill="none" stroke="midnightblue" d="M941.22,-72.12C998.12,-62.07 1090.97,-45.58 1171,-31 1178.17,-29.69 1185.72,-28.31 1193.17,-26.93"/>
<polygon fill="midnightblue" stroke="midnightblue" points="1194.03,-30.33 1203.23,-25.07 1192.76,-23.45 1194.03,-30.33"/>
</g>
<!-- Node11 -->
<g id="node11" class="node">
<title>Node11</title>
<g id="a_node11"><a xlink:href="http://www.dealii.org/developer/doxygen/deal.II/dynamic__sparsity__pattern_8h.html.html" xlink:title=" ">
<polygon fill="none" stroke="black" points="1336,-0.5 1336,-30.5 1446,-30.5 1446,-0.5 1336,-0.5"/>
<text text-anchor="start" x="1344" y="-18.5" font-family="Helvetica,sans-Serif" font-size="10.00">deal.II/lac/dynamic</text>
<text text-anchor="middle" x="1391" y="-7.5" font-family="Helvetica,sans-Serif" font-size="10.00">_sparsity_pattern.h</text>
</a>
</g>
</g>
<!-- Node1&#45;&gt;Node11 -->
<g id="edge10" class="edge">
<title>Node1&#45;&gt;Node11</title>
<path fill="none" stroke="midnightblue" d="M941.31,-77.24C1022.33,-70.36 1181.43,-55.23 1325.98,-31.06"/>
<polygon fill="midnightblue" stroke="midnightblue" points="1326.64,-34.5 1335.92,-29.38 1325.47,-27.59 1326.64,-34.5"/>
</g>
<!-- Node12 -->
<g id="node12" class="node">
<title>Node12</title>
<g id="a_node12"><a xlink:href="http://www.dealii.org/developer/doxygen/deal.II/sparse__matrix_8h.html.html" xlink:title=" ">
<polygon fill="none" stroke="black" points="1464.5,-0.5 1464.5,-30.5 1563.5,-30.5 1563.5,-0.5 1464.5,-0.5"/>
<text text-anchor="start" x="1472.5" y="-18.5" font-family="Helvetica,sans-Serif" font-size="10.00">deal.II/lac/sparse</text>
<text text-anchor="middle" x="1514" y="-7.5" font-family="Helvetica,sans-Serif" font-size="10.00">_matrix.h</text>
</a>
</g>
</g>
<!-- Node1&#45;&gt;Node12 -->
<g id="edge11" class="edge">
<title>Node1&#45;&gt;Node12</title>
<path fill="none" stroke="midnightblue" d="M941.1,-79.47C1040.17,-75.09 1259.9,-62.63 1454.11,-30.97"/>
<polygon fill="midnightblue" stroke="midnightblue" points="1454.92,-34.38 1464.22,-29.3 1453.78,-27.48 1454.92,-34.38"/>
</g>
<!-- Node13 -->
<g id="node13" class="node">
<title>Node13</title>
<g id="a_node13"><a xlink:title=" ">
<polygon fill="none" stroke="#bfbfbf" points="1581.5,-6 1581.5,-25 1636.5,-25 1636.5,-6 1581.5,-6"/>
<text text-anchor="middle" x="1609" y="-13" font-family="Helvetica,sans-Serif" font-size="10.00">fstream</text>
</a>
</g>
</g>
<!-- Node1&#45;&gt;Node13 -->
<g id="edge12" class="edge">
<title>Node1&#45;&gt;Node13</title>
<path fill="none" stroke="midnightblue" d="M941.22,-79.7C1080.46,-74.65 1453,-58.88 1573,-31 1575.83,-30.34 1578.73,-29.5 1581.59,-28.54"/>
<polygon fill="midnightblue" stroke="midnightblue" points="1582.9,-31.79 1591.04,-25 1580.45,-25.23 1582.9,-31.79"/>
</g>
</g>
</svg>
