<?xml version="1.0" encoding="UTF-8" standalone="no"?>
<!DOCTYPE svg PUBLIC "-//W3C//DTD SVG 1.1//EN"
 "http://www.w3.org/Graphics/SVG/1.1/DTD/svg11.dtd">
<!-- Generated by graphviz version 2.43.0 (0)
 -->
<!-- Title: labs/lab&#45;06/source/step&#45;40.cc Pages: 1 -->
<svg width="3263pt" height="106pt"
 viewBox="0.00 0.00 3262.50 106.00" xmlns="http://www.w3.org/2000/svg" xmlns:xlink="http://www.w3.org/1999/xlink">
<g id="graph0" class="graph" transform="scale(1 1) rotate(0) translate(4 102)">
<title>labs/lab&#45;06/source/step&#45;40.cc</title>
<!-- Node1 -->
<g id="node1" class="node">
<title>Node1</title>
<g id="a_node1"><a xlink:title=" ">
<polygon fill="#bfbfbf" stroke="black" points="1617.5,-67.5 1617.5,-97.5 1723.5,-97.5 1723.5,-67.5 1617.5,-67.5"/>
<text text-anchor="start" x="1625.5" y="-85.5" font-family="Helvetica,sans-Serif" font-size="10.00">labs/lab&#45;06/source</text>
<text text-anchor="middle" x="1670.5" y="-74.5" font-family="Helvetica,sans-Serif" font-size="10.00">/step&#45;40.cc</text>
</a>
</g>
</g>
<!-- Node2 -->
<g id="node2" class="node">
<title>Node2</title>
<g id="a_node2"><a xlink:href="http://www.dealii.org/developer/doxygen/deal.II/function_8h.html.html" xlink:title=" ">
<polygon fill="none" stroke="black" points="0,-6 0,-25 125,-25 125,-6 0,-6"/>
<text text-anchor="middle" x="62.5" y="-13" font-family="Helvetica,sans-Serif" font-size="10.00">deal.II/base/function.h</text>
</a>
</g>
</g>
<!-- Node1&#45;&gt;Node2 -->
<g id="edge1" class="edge">
<title>Node1&#45;&gt;Node2</title>
<path fill="none" stroke="midnightblue" d="M1617.2,-80.96C1381.32,-78.36 429.98,-65.89 133.5,-31 125.33,-30.04 116.7,-28.62 108.37,-27.04"/>
<polygon fill="midnightblue" stroke="midnightblue" points="108.92,-23.58 98.43,-25.06 107.55,-30.45 108.92,-23.58"/>
</g>
<!-- Node3 -->
<g id="node3" class="node">
<title>Node3</title>
<g id="a_node3"><a xlink:href="http://www.dealii.org/developer/doxygen/deal.II/quadrature__lib_8h.html.html" xlink:title=" ">
<polygon fill="none" stroke="black" points="143,-0.5 143,-30.5 272,-30.5 272,-0.5 143,-0.5"/>
<text text-anchor="start" x="151" y="-18.5" font-family="Helvetica,sans-Serif" font-size="10.00">deal.II/base/quadrature</text>
<text text-anchor="middle" x="207.5" y="-7.5" font-family="Helvetica,sans-Serif" font-size="10.00">_lib.h</text>
</a>
</g>
</g>
<!-- Node1&#45;&gt;Node3 -->
<g id="edge2" class="edge">
<title>Node1&#45;&gt;Node3</title>
<path fill="none" stroke="midnightblue" d="M1617.17,-80.7C1398.27,-77.26 567.22,-62.43 282.59,-31.1"/>
<polygon fill="midnightblue" stroke="midnightblue" points="282.62,-27.58 272.29,-29.93 281.83,-34.53 282.62,-27.58"/>
</g>
<!-- Node4 -->
<g id="node4" class="node">
<title>Node4</title>
<g id="a_node4"><a xlink:href="http://www.dealii.org/developer/doxygen/deal.II/timer_8h.html.html" xlink:title=" ">
<polygon fill="none" stroke="black" points="290,-6 290,-25 401,-25 401,-6 290,-6"/>
<text text-anchor="middle" x="345.5" y="-13" font-family="Helvetica,sans-Serif" font-size="10.00">deal.II/base/timer.h</text>
</a>
</g>
</g>
<!-- Node1&#45;&gt;Node4 -->
<g id="edge3" class="edge">
<title>Node1&#45;&gt;Node4</title>
<path fill="none" stroke="midnightblue" d="M1617.23,-80.66C1408.84,-77.19 648.57,-62.6 409.5,-31 402.52,-30.08 395.18,-28.75 388.06,-27.28"/>
<polygon fill="midnightblue" stroke="midnightblue" points="388.37,-23.76 377.85,-25.04 386.87,-30.6 388.37,-23.76"/>
</g>
<!-- Node5 -->
<g id="node5" class="node">
<title>Node5</title>
<g id="a_node5"><a xlink:href="http://www.dealii.org/developer/doxygen/deal.II/generic__linear__algebra_8h.html.html" xlink:title=" ">
<polygon fill="none" stroke="black" points="419,-0.5 419,-30.5 522,-30.5 522,-0.5 419,-0.5"/>
<text text-anchor="start" x="427" y="-18.5" font-family="Helvetica,sans-Serif" font-size="10.00">deal.II/lac/generic</text>
<text text-anchor="middle" x="470.5" y="-7.5" font-family="Helvetica,sans-Serif" font-size="10.00">_linear_algebra.h</text>
</a>
</g>
</g>
<!-- Node1&#45;&gt;Node5 -->
<g id="edge4" class="edge">
<title>Node1&#45;&gt;Node5</title>
<path fill="none" stroke="midnightblue" d="M1617.46,-80.48C1425.3,-76.58 765.15,-61.35 532.38,-30.88"/>
<polygon fill="midnightblue" stroke="midnightblue" points="532.67,-27.39 522.29,-29.51 531.73,-34.33 532.67,-27.39"/>
</g>
<!-- Node6 -->
<g id="node6" class="node">
<title>Node6</title>
<g id="a_node6"><a xlink:href="http://www.dealii.org/developer/doxygen/deal.II/conditional__ostream_8h.html.html" xlink:title=" ">
<polygon fill="none" stroke="black" points="540.5,-0.5 540.5,-30.5 670.5,-30.5 670.5,-0.5 540.5,-0.5"/>
<text text-anchor="start" x="548.5" y="-18.5" font-family="Helvetica,sans-Serif" font-size="10.00">deal.II/base/conditional</text>
<text text-anchor="middle" x="605.5" y="-7.5" font-family="Helvetica,sans-Serif" font-size="10.00">_ostream.h</text>
</a>
</g>
</g>
<!-- Node1&#45;&gt;Node6 -->
<g id="edge5" class="edge">
<title>Node1&#45;&gt;Node6</title>
<path fill="none" stroke="midnightblue" d="M1617.36,-81.45C1470.02,-80.75 1043.8,-74.87 680.97,-31.06"/>
<polygon fill="midnightblue" stroke="midnightblue" points="681.14,-27.55 670.79,-29.82 680.29,-34.5 681.14,-27.55"/>
</g>
<!-- Node7 -->
<g id="node7" class="node">
<title>Node7</title>
<g id="a_node7"><a xlink:href="http://www.dealii.org/developer/doxygen/deal.II/index__set_8h.html.html" xlink:title=" ">
<polygon fill="none" stroke="black" points="689,-0.5 689,-30.5 792,-30.5 792,-0.5 689,-0.5"/>
<text text-anchor="start" x="697" y="-18.5" font-family="Helvetica,sans-Serif" font-size="10.00">deal.II/base/index</text>
<text text-anchor="middle" x="740.5" y="-7.5" font-family="Helvetica,sans-Serif" font-size="10.00">_set.h</text>
</a>
</g>
</g>
<!-- Node1&#45;&gt;Node7 -->
<g id="edge6" class="edge">
<title>Node1&#45;&gt;Node7</title>
<path fill="none" stroke="midnightblue" d="M1617.27,-81.64C1482.34,-81.31 1116,-76.1 802.49,-30.95"/>
<polygon fill="midnightblue" stroke="midnightblue" points="802.69,-27.44 792.29,-29.46 801.69,-34.37 802.69,-27.44"/>
</g>
<!-- Node8 -->
<g id="node8" class="node">
<title>Node8</title>
<g id="a_node8"><a xlink:href="http://www.dealii.org/developer/doxygen/deal.II/include_2deal_8II_2base_2utilities_8h.html.html" xlink:title=" ">
<polygon fill="none" stroke="black" points="810.5,-6 810.5,-25 932.5,-25 932.5,-6 810.5,-6"/>
<text text-anchor="middle" x="871.5" y="-13" font-family="Helvetica,sans-Serif" font-size="10.00">deal.II/base/utilities.h</text>
</a>
</g>
</g>
<!-- Node1&#45;&gt;Node8 -->
<g id="edge7" class="edge">
<title>Node1&#45;&gt;Node8</title>
<path fill="none" stroke="midnightblue" d="M1617.19,-80.27C1496.42,-76.95 1192.86,-65.58 941.5,-31 933.89,-29.95 925.87,-28.57 918.08,-27.06"/>
<polygon fill="midnightblue" stroke="midnightblue" points="918.53,-23.58 908.03,-25.04 917.14,-30.44 918.53,-23.58"/>
</g>
<!-- Node9 -->
<g id="node9" class="node">
<title>Node9</title>
<g id="a_node9"><a xlink:href="http://www.dealii.org/developer/doxygen/deal.II/distributed_2grid__refinement_8h.html.html" xlink:title=" ">
<polygon fill="none" stroke="black" points="951,-0.5 951,-30.5 1058,-30.5 1058,-0.5 951,-0.5"/>
<text text-anchor="start" x="959" y="-18.5" font-family="Helvetica,sans-Serif" font-size="10.00">deal.II/distributed</text>
<text text-anchor="middle" x="1004.5" y="-7.5" font-family="Helvetica,sans-Serif" font-size="10.00">/grid_refinement.h</text>
</a>
</g>
</g>
<!-- Node1&#45;&gt;Node9 -->
<g id="edge8" class="edge">
<title>Node1&#45;&gt;Node9</title>
<path fill="none" stroke="midnightblue" d="M1617.37,-79.6C1513.6,-75.33 1276.68,-62.88 1067.93,-30.9"/>
<polygon fill="midnightblue" stroke="midnightblue" points="1068.43,-27.44 1058.02,-29.36 1067.36,-34.35 1068.43,-27.44"/>
</g>
<!-- Node10 -->
<g id="node10" class="node">
<title>Node10</title>
<g id="a_node10"><a xlink:href="http://www.dealii.org/developer/doxygen/deal.II/distributed_2tria_8h.html.html" xlink:title=" ">
<polygon fill="none" stroke="black" points="1076.5,-0.5 1076.5,-30.5 1178.5,-30.5 1178.5,-0.5 1076.5,-0.5"/>
<text text-anchor="start" x="1084.5" y="-18.5" font-family="Helvetica,sans-Serif" font-size="10.00">deal.II/distributed</text>
<text text-anchor="middle" x="1127.5" y="-7.5" font-family="Helvetica,sans-Serif" font-size="10.00">/tria.h</text>
</a>
</g>
</g>
<!-- Node1&#45;&gt;Node10 -->
<g id="edge9" class="edge">
<title>Node1&#45;&gt;Node10</title>
<path fill="none" stroke="midnightblue" d="M1617.29,-78.26C1529.81,-72.42 1350.03,-58.3 1188.89,-31.1"/>
<polygon fill="midnightblue" stroke="midnightblue" points="1189.24,-27.61 1178.79,-29.37 1188.06,-34.51 1189.24,-27.61"/>
</g>
<!-- Node11 -->
<g id="node11" class="node">
<title>Node11</title>
<g id="a_node11"><a xlink:href="http://www.dealii.org/developer/doxygen/deal.II/dofs_2dof__handler_8h.html.html" xlink:title=" ">
<polygon fill="none" stroke="black" points="1196.5,-6 1196.5,-25 1336.5,-25 1336.5,-6 1196.5,-6"/>
<text text-anchor="middle" x="1266.5" y="-13" font-family="Helvetica,sans-Serif" font-size="10.00">deal.II/dofs/dof_handler.h</text>
</a>
</g>
</g>
<!-- Node1&#45;&gt;Node11 -->
<g id="edge10" class="edge">
<title>Node1&#45;&gt;Node11</title>
<path fill="none" stroke="midnightblue" d="M1617.23,-73.68C1552.79,-64.11 1441.07,-47.19 1345.5,-31 1337.86,-29.71 1329.82,-28.29 1321.91,-26.87"/>
<polygon fill="midnightblue" stroke="midnightblue" points="1322.46,-23.41 1312,-25.07 1321.21,-30.3 1322.46,-23.41"/>
</g>
<!-- Node12 -->
<g id="node12" class="node">
<title>Node12</title>
<g id="a_node12"><a xlink:href="http://www.dealii.org/developer/doxygen/deal.II/dof__tools_8h.html.html" xlink:title=" ">
<polygon fill="none" stroke="black" points="1354.5,-6 1354.5,-25 1482.5,-25 1482.5,-6 1354.5,-6"/>
<text text-anchor="middle" x="1418.5" y="-13" font-family="Helvetica,sans-Serif" font-size="10.00">deal.II/dofs/dof_tools.h</text>
</a>
</g>
</g>
<!-- Node1&#45;&gt;Node12 -->
<g id="edge11" class="edge">
<title>Node1&#45;&gt;Node12</title>
<path fill="none" stroke="midnightblue" d="M1617.37,-67.79C1570.98,-55.83 1504.51,-38.69 1461.43,-27.57"/>
<polygon fill="midnightblue" stroke="midnightblue" points="1462.09,-24.13 1451.54,-25.02 1460.35,-30.91 1462.09,-24.13"/>
</g>
<!-- Node13 -->
<g id="node13" class="node">
<title>Node13</title>
<g id="a_node13"><a xlink:href="http://www.dealii.org/developer/doxygen/deal.II/fe__q_8h.html.html" xlink:title=" ">
<polygon fill="none" stroke="black" points="1500.5,-6 1500.5,-25 1592.5,-25 1592.5,-6 1500.5,-6"/>
<text text-anchor="middle" x="1546.5" y="-13" font-family="Helvetica,sans-Serif" font-size="10.00">deal.II/fe/fe_q.h</text>
</a>
</g>
</g>
<!-- Node1&#45;&gt;Node13 -->
<g id="edge12" class="edge">
<title>Node1&#45;&gt;Node13</title>
<path fill="none" stroke="midnightblue" d="M1643.59,-67.4C1622.22,-56.19 1592.55,-40.64 1571.65,-29.69"/>
<polygon fill="midnightblue" stroke="midnightblue" points="1573.21,-26.55 1562.73,-25.01 1569.96,-32.75 1573.21,-26.55"/>
</g>
<!-- Node14 -->
<g id="node14" class="node">
<title>Node14</title>
<g id="a_node14"><a xlink:href="http://www.dealii.org/developer/doxygen/deal.II/fe_2fe__values_8h.html.html" xlink:title=" ">
<polygon fill="none" stroke="black" points="1611,-6 1611,-25 1730,-25 1730,-6 1611,-6"/>
<text text-anchor="middle" x="1670.5" y="-13" font-family="Helvetica,sans-Serif" font-size="10.00">deal.II/fe/fe_values.h</text>
</a>
</g>
</g>
<!-- Node1&#45;&gt;Node14 -->
<g id="edge13" class="edge">
<title>Node1&#45;&gt;Node14</title>
<path fill="none" stroke="midnightblue" d="M1670.5,-67.4C1670.5,-58.06 1670.5,-45.71 1670.5,-35.52"/>
<polygon fill="midnightblue" stroke="midnightblue" points="1674,-35.19 1670.5,-25.19 1667,-35.19 1674,-35.19"/>
</g>
<!-- Node15 -->
<g id="node15" class="node">
<title>Node15</title>
<g id="a_node15"><a xlink:href="http://www.dealii.org/developer/doxygen/deal.II/grid__generator_8h.html.html" xlink:title=" ">
<polygon fill="none" stroke="black" points="1748.5,-6 1748.5,-25 1900.5,-25 1900.5,-6 1748.5,-6"/>
<text text-anchor="middle" x="1824.5" y="-13" font-family="Helvetica,sans-Serif" font-size="10.00">deal.II/grid/grid_generator.h</text>
</a>
</g>
</g>
<!-- Node1&#45;&gt;Node15 -->
<g id="edge14" class="edge">
<title>Node1&#45;&gt;Node15</title>
<path fill="none" stroke="midnightblue" d="M1703.92,-67.4C1731.06,-55.94 1768.97,-39.94 1795,-28.95"/>
<polygon fill="midnightblue" stroke="midnightblue" points="1796.49,-32.12 1804.34,-25.01 1793.77,-25.67 1796.49,-32.12"/>
</g>
<!-- Node16 -->
<g id="node16" class="node">
<title>Node16</title>
<g id="a_node16"><a xlink:href="http://www.dealii.org/developer/doxygen/deal.II/affine__constraints_8h.html.html" xlink:title=" ">
<polygon fill="none" stroke="black" points="1919,-0.5 1919,-30.5 2014,-30.5 2014,-0.5 1919,-0.5"/>
<text text-anchor="start" x="1927" y="-18.5" font-family="Helvetica,sans-Serif" font-size="10.00">deal.II/lac/affine</text>
<text text-anchor="middle" x="1966.5" y="-7.5" font-family="Helvetica,sans-Serif" font-size="10.00">_constraints.h</text>
</a>
</g>
</g>
<!-- Node1&#45;&gt;Node16 -->
<g id="edge15" class="edge">
<title>Node1&#45;&gt;Node16</title>
<path fill="none" stroke="midnightblue" d="M1723.8,-70.89C1770.14,-61.51 1839.33,-47.17 1909.1,-31.04"/>
<polygon fill="midnightblue" stroke="midnightblue" points="1910,-34.42 1918.95,-28.75 1908.42,-27.6 1910,-34.42"/>
</g>
<!-- Node17 -->
<g id="node17" class="node">
<title>Node17</title>
<g id="a_node17"><a xlink:href="http://www.dealii.org/developer/doxygen/deal.II/dynamic__sparsity__pattern_8h.html.html" xlink:title=" ">
<polygon fill="none" stroke="black" points="2032.5,-0.5 2032.5,-30.5 2142.5,-30.5 2142.5,-0.5 2032.5,-0.5"/>
<text text-anchor="start" x="2040.5" y="-18.5" font-family="Helvetica,sans-Serif" font-size="10.00">deal.II/lac/dynamic</text>
<text text-anchor="middle" x="2087.5" y="-7.5" font-family="Helvetica,sans-Serif" font-size="10.00">_sparsity_pattern.h</text>
</a>
</g>
</g>
<!-- Node1&#45;&gt;Node17 -->
<g id="edge16" class="edge">
<title>Node1&#45;&gt;Node17</title>
<path fill="none" stroke="midnightblue" d="M1723.64,-75.25C1790.89,-67.05 1910.45,-51.46 2022.3,-31.13"/>
<polygon fill="midnightblue" stroke="midnightblue" points="2023.2,-34.53 2032.4,-29.28 2021.93,-27.64 2023.2,-34.53"/>
</g>
<!-- Node18 -->
<g id="node18" class="node">
<title>Node18</title>
<g id="a_node18"><a xlink:href="http://www.dealii.org/developer/doxygen/deal.II/full__matrix_8h.html.html" xlink:title=" ">
<polygon fill="none" stroke="black" points="2161,-6 2161,-25 2290,-25 2290,-6 2161,-6"/>
<text text-anchor="middle" x="2225.5" y="-13" font-family="Helvetica,sans-Serif" font-size="10.00">deal.II/lac/full_matrix.h</text>
</a>
</g>
</g>
<!-- Node1&#45;&gt;Node18 -->
<g id="edge17" class="edge">
<title>Node1&#45;&gt;Node18</title>
<path fill="none" stroke="midnightblue" d="M1723.72,-77.47C1812.63,-70.39 1996.85,-54.22 2151.5,-31 2159.24,-29.84 2167.4,-28.43 2175.36,-26.95"/>
<polygon fill="midnightblue" stroke="midnightblue" points="2176.12,-30.37 2185.29,-25.05 2174.81,-23.49 2176.12,-30.37"/>
</g>
<!-- Node19 -->
<g id="node19" class="node">
<title>Node19</title>
<g id="a_node19"><a xlink:href="http://www.dealii.org/developer/doxygen/deal.II/solver__cg_8h.html.html" xlink:title=" ">
<polygon fill="none" stroke="black" points="2308.5,-6 2308.5,-25 2430.5,-25 2430.5,-6 2308.5,-6"/>
<text text-anchor="middle" x="2369.5" y="-13" font-family="Helvetica,sans-Serif" font-size="10.00">deal.II/lac/solver_cg.h</text>
</a>
</g>
</g>
<!-- Node1&#45;&gt;Node19 -->
<g id="edge18" class="edge">
<title>Node1&#45;&gt;Node19</title>
<path fill="none" stroke="midnightblue" d="M1723.76,-79.46C1832.46,-74.8 2087.49,-61.35 2299.5,-31 2307.02,-29.92 2314.94,-28.53 2322.64,-27.04"/>
<polygon fill="midnightblue" stroke="midnightblue" points="2323.48,-30.44 2332.6,-25.04 2322.1,-23.58 2323.48,-30.44"/>
</g>
<!-- Node20 -->
<g id="node20" class="node">
<title>Node20</title>
<g id="a_node20"><a xlink:href="http://www.dealii.org/developer/doxygen/deal.II/sparsity__tools_8h.html.html" xlink:title=" ">
<polygon fill="none" stroke="black" points="2448.5,-0.5 2448.5,-30.5 2554.5,-30.5 2554.5,-0.5 2448.5,-0.5"/>
<text text-anchor="start" x="2456.5" y="-18.5" font-family="Helvetica,sans-Serif" font-size="10.00">deal.II/lac/sparsity</text>
<text text-anchor="middle" x="2501.5" y="-7.5" font-family="Helvetica,sans-Serif" font-size="10.00">_tools.h</text>
</a>
</g>
</g>
<!-- Node1&#45;&gt;Node20 -->
<g id="edge19" class="edge">
<title>Node1&#45;&gt;Node20</title>
<path fill="none" stroke="midnightblue" d="M1723.96,-81C1848,-79.2 2164.97,-70.87 2438.07,-31.05"/>
<polygon fill="midnightblue" stroke="midnightblue" points="2438.79,-34.48 2448.17,-29.56 2437.77,-27.55 2438.79,-34.48"/>
</g>
<!-- Node21 -->
<g id="node21" class="node">
<title>Node21</title>
<g id="a_node21"><a xlink:href="http://www.dealii.org/developer/doxygen/deal.II/vector_8h.html.html" xlink:title=" ">
<polygon fill="none" stroke="black" points="2573,-6 2573,-25 2680,-25 2680,-6 2573,-6"/>
<text text-anchor="middle" x="2626.5" y="-13" font-family="Helvetica,sans-Serif" font-size="10.00">deal.II/lac/vector.h</text>
</a>
</g>
</g>
<!-- Node1&#45;&gt;Node21 -->
<g id="edge20" class="edge">
<title>Node1&#45;&gt;Node21</title>
<path fill="none" stroke="midnightblue" d="M1723.65,-81.63C1862.49,-81.29 2247.19,-76.01 2563.5,-31 2570.29,-30.03 2577.44,-28.7 2584.37,-27.23"/>
<polygon fill="midnightblue" stroke="midnightblue" points="2585.33,-30.61 2594.32,-25.01 2583.8,-23.77 2585.33,-30.61"/>
</g>
<!-- Node22 -->
<g id="node22" class="node">
<title>Node22</title>
<g id="a_node22"><a xlink:href="http://www.dealii.org/developer/doxygen/deal.II/numerics_2data__out_8h.html.html" xlink:title=" ">
<polygon fill="none" stroke="black" points="2698,-0.5 2698,-30.5 2817,-30.5 2817,-0.5 2698,-0.5"/>
<text text-anchor="start" x="2706" y="-18.5" font-family="Helvetica,sans-Serif" font-size="10.00">deal.II/numerics/data</text>
<text text-anchor="middle" x="2757.5" y="-7.5" font-family="Helvetica,sans-Serif" font-size="10.00">_out.h</text>
</a>
</g>
</g>
<!-- Node1&#45;&gt;Node22 -->
<g id="edge21" class="edge">
<title>Node1&#45;&gt;Node22</title>
<path fill="none" stroke="midnightblue" d="M1723.54,-81.86C1873.66,-82.25 2314.36,-79 2687.97,-31.06"/>
<polygon fill="midnightblue" stroke="midnightblue" points="2688.42,-34.53 2697.89,-29.78 2687.52,-27.59 2688.42,-34.53"/>
</g>
<!-- Node23 -->
<g id="node23" class="node">
<title>Node23</title>
<g id="a_node23"><a xlink:href="http://www.dealii.org/developer/doxygen/deal.II/error__estimator_8h.html.html" xlink:title=" ">
<polygon fill="none" stroke="black" points="2835,-0.5 2835,-30.5 2956,-30.5 2956,-0.5 2835,-0.5"/>
<text text-anchor="start" x="2843" y="-18.5" font-family="Helvetica,sans-Serif" font-size="10.00">deal.II/numerics/error</text>
<text text-anchor="middle" x="2895.5" y="-7.5" font-family="Helvetica,sans-Serif" font-size="10.00">_estimator.h</text>
</a>
</g>
</g>
<!-- Node1&#45;&gt;Node23 -->
<g id="edge22" class="edge">
<title>Node1&#45;&gt;Node23</title>
<path fill="none" stroke="midnightblue" d="M1723.63,-80.33C1917.69,-75.9 2588.7,-58.95 2824.42,-31.1"/>
<polygon fill="midnightblue" stroke="midnightblue" points="2825.14,-34.54 2834.64,-29.85 2824.29,-27.59 2825.14,-34.54"/>
</g>
<!-- Node24 -->
<g id="node24" class="node">
<title>Node24</title>
<g id="a_node24"><a xlink:href="http://www.dealii.org/developer/doxygen/deal.II/vector__tools_8h.html.html" xlink:title=" ">
<polygon fill="none" stroke="black" points="2974.5,-0.5 2974.5,-30.5 3102.5,-30.5 3102.5,-0.5 2974.5,-0.5"/>
<text text-anchor="start" x="2982.5" y="-18.5" font-family="Helvetica,sans-Serif" font-size="10.00">deal.II/numerics/vector</text>
<text text-anchor="middle" x="3038.5" y="-7.5" font-family="Helvetica,sans-Serif" font-size="10.00">_tools.h</text>
</a>
</g>
</g>
<!-- Node1&#45;&gt;Node24 -->
<g id="edge23" class="edge">
<title>Node1&#45;&gt;Node24</title>
<path fill="none" stroke="midnightblue" d="M1723.73,-80.54C1932.86,-76.6 2699.21,-60.52 2964.51,-30.95"/>
<polygon fill="midnightblue" stroke="midnightblue" points="2964.96,-34.42 2974.5,-29.8 2964.16,-27.47 2964.96,-34.42"/>
</g>
<!-- Node25 -->
<g id="node25" class="node">
<title>Node25</title>
<g id="a_node25"><a xlink:title=" ">
<polygon fill="none" stroke="#bfbfbf" points="3121,-6 3121,-25 3176,-25 3176,-6 3121,-6"/>
<text text-anchor="middle" x="3148.5" y="-13" font-family="Helvetica,sans-Serif" font-size="10.00">fstream</text>
</a>
</g>
</g>
<!-- Node1&#45;&gt;Node25 -->
<g id="edge24" class="edge">
<title>Node1&#45;&gt;Node25</title>
<path fill="none" stroke="midnightblue" d="M1723.52,-80.7C1967.21,-76.89 2973.77,-59.53 3111.5,-31 3114.51,-30.38 3117.59,-29.53 3120.63,-28.56"/>
<polygon fill="midnightblue" stroke="midnightblue" points="3121.85,-31.84 3130.05,-25.14 3119.46,-25.26 3121.85,-31.84"/>
</g>
<!-- Node26 -->
<g id="node26" class="node">
<title>Node26</title>
<g id="a_node26"><a xlink:title=" ">
<polygon fill="none" stroke="#bfbfbf" points="3194.5,-6 3194.5,-25 3254.5,-25 3254.5,-6 3194.5,-6"/>
<text text-anchor="middle" x="3224.5" y="-13" font-family="Helvetica,sans-Serif" font-size="10.00">iostream</text>
</a>
</g>
</g>
<!-- Node1&#45;&gt;Node26 -->
<g id="edge25" class="edge">
<title>Node1&#45;&gt;Node26</title>
<path fill="none" stroke="midnightblue" d="M1723.69,-80.74C1975.31,-77.02 3039.94,-59.69 3185.5,-31 3188.76,-30.36 3192.11,-29.48 3195.41,-28.47"/>
<polygon fill="midnightblue" stroke="midnightblue" points="3196.71,-31.72 3205.02,-25.15 3194.42,-25.1 3196.71,-31.72"/>
</g>
</g>
</svg>
