<?xml version="1.0" encoding="UTF-8" standalone="no"?>
<!DOCTYPE svg PUBLIC "-//W3C//DTD SVG 1.1//EN"
 "http://www.w3.org/Graphics/SVG/1.1/DTD/svg11.dtd">
<!-- Generated by graphviz version 2.43.0 (0)
 -->
<!-- Title: labs/lab&#45;03/include/step&#45;3.h Pages: 1 -->
<svg width="2516pt" height="106pt"
 viewBox="0.00 0.00 2515.50 106.00" xmlns="http://www.w3.org/2000/svg" xmlns:xlink="http://www.w3.org/1999/xlink">
<g id="graph0" class="graph" transform="scale(1 1) rotate(0) translate(4 102)">
<title>labs/lab&#45;03/include/step&#45;3.h</title>
<!-- Node1 -->
<g id="node1" class="node">
<title>Node1</title>
<g id="a_node1"><a xlink:title=" ">
<polygon fill="#bfbfbf" stroke="black" points="1267,-67.5 1267,-97.5 1376,-97.5 1376,-67.5 1267,-67.5"/>
<text text-anchor="start" x="1275" y="-85.5" font-family="Helvetica,sans-Serif" font-size="10.00">labs/lab&#45;03/include</text>
<text text-anchor="middle" x="1321.5" y="-74.5" font-family="Helvetica,sans-Serif" font-size="10.00">/step&#45;3.h</text>
</a>
</g>
</g>
<!-- Node2 -->
<g id="node2" class="node">
<title>Node2</title>
<g id="a_node2"><a xlink:href="http://www.dealii.org/developer/doxygen/deal.II/function_8h.html.html" xlink:title=" ">
<polygon fill="none" stroke="black" points="0,-6 0,-25 125,-25 125,-6 0,-6"/>
<text text-anchor="middle" x="62.5" y="-13" font-family="Helvetica,sans-Serif" font-size="10.00">deal.II/base/function.h</text>
</a>
</g>
</g>
<!-- Node1&#45;&gt;Node2 -->
<g id="edge1" class="edge">
<title>Node1&#45;&gt;Node2</title>
<path fill="none" stroke="midnightblue" d="M1266.9,-80.33C1064.53,-75.83 357.36,-58.44 133.5,-31 125.42,-30.01 116.89,-28.59 108.65,-27.03"/>
<polygon fill="midnightblue" stroke="midnightblue" points="109.29,-23.59 98.8,-25.07 107.93,-30.45 109.29,-23.59"/>
</g>
<!-- Node3 -->
<g id="node3" class="node">
<title>Node3</title>
<g id="a_node3"><a xlink:href="http://www.dealii.org/developer/doxygen/deal.II/quadrature__lib_8h.html.html" xlink:title=" ">
<polygon fill="none" stroke="black" points="143,-0.5 143,-30.5 272,-30.5 272,-0.5 143,-0.5"/>
<text text-anchor="start" x="151" y="-18.5" font-family="Helvetica,sans-Serif" font-size="10.00">deal.II/base/quadrature</text>
<text text-anchor="middle" x="207.5" y="-7.5" font-family="Helvetica,sans-Serif" font-size="10.00">_lib.h</text>
</a>
</g>
</g>
<!-- Node1&#45;&gt;Node3 -->
<g id="edge2" class="edge">
<title>Node1&#45;&gt;Node3</title>
<path fill="none" stroke="midnightblue" d="M1266.85,-81.63C1113.21,-81.4 664.3,-76.66 282.53,-30.99"/>
<polygon fill="midnightblue" stroke="midnightblue" points="282.73,-27.49 272.39,-29.77 281.9,-34.44 282.73,-27.49"/>
</g>
<!-- Node4 -->
<g id="node4" class="node">
<title>Node4</title>
<g id="a_node4"><a xlink:href="http://www.dealii.org/developer/doxygen/deal.II/dofs_2dof__handler_8h.html.html" xlink:title=" ">
<polygon fill="none" stroke="black" points="290.5,-6 290.5,-25 430.5,-25 430.5,-6 290.5,-6"/>
<text text-anchor="middle" x="360.5" y="-13" font-family="Helvetica,sans-Serif" font-size="10.00">deal.II/dofs/dof_handler.h</text>
</a>
</g>
</g>
<!-- Node1&#45;&gt;Node4 -->
<g id="edge3" class="edge">
<title>Node1&#45;&gt;Node4</title>
<path fill="none" stroke="midnightblue" d="M1266.84,-80.73C1128.09,-78.26 751.11,-68.37 439.5,-31 430.45,-29.91 420.87,-28.44 411.63,-26.84"/>
<polygon fill="midnightblue" stroke="midnightblue" points="412.22,-23.39 401.76,-25.07 410.99,-30.28 412.22,-23.39"/>
</g>
<!-- Node5 -->
<g id="node5" class="node">
<title>Node5</title>
<g id="a_node5"><a xlink:href="http://www.dealii.org/developer/doxygen/deal.II/dof__tools_8h.html.html" xlink:title=" ">
<polygon fill="none" stroke="black" points="448.5,-6 448.5,-25 576.5,-25 576.5,-6 448.5,-6"/>
<text text-anchor="middle" x="512.5" y="-13" font-family="Helvetica,sans-Serif" font-size="10.00">deal.II/dofs/dof_tools.h</text>
</a>
</g>
</g>
<!-- Node1&#45;&gt;Node5 -->
<g id="edge4" class="edge">
<title>Node1&#45;&gt;Node5</title>
<path fill="none" stroke="midnightblue" d="M1266.79,-80.13C1144.28,-76.55 838.78,-64.7 585.5,-31 577.4,-29.92 568.84,-28.49 560.55,-26.95"/>
<polygon fill="midnightblue" stroke="midnightblue" points="561.1,-23.49 550.61,-25.02 559.77,-30.36 561.1,-23.49"/>
</g>
<!-- Node6 -->
<g id="node6" class="node">
<title>Node6</title>
<g id="a_node6"><a xlink:href="http://www.dealii.org/developer/doxygen/deal.II/fe__q_8h.html.html" xlink:title=" ">
<polygon fill="none" stroke="black" points="594.5,-6 594.5,-25 686.5,-25 686.5,-6 594.5,-6"/>
<text text-anchor="middle" x="640.5" y="-13" font-family="Helvetica,sans-Serif" font-size="10.00">deal.II/fe/fe_q.h</text>
</a>
</g>
</g>
<!-- Node1&#45;&gt;Node6 -->
<g id="edge5" class="edge">
<title>Node1&#45;&gt;Node6</title>
<path fill="none" stroke="midnightblue" d="M1266.67,-80.34C1157.29,-77.3 904.54,-66.7 695.5,-31 690.09,-30.08 684.43,-28.87 678.89,-27.54"/>
<polygon fill="midnightblue" stroke="midnightblue" points="679.67,-24.13 669.12,-25.07 677.95,-30.92 679.67,-24.13"/>
</g>
<!-- Node7 -->
<g id="node7" class="node">
<title>Node7</title>
<g id="a_node7"><a xlink:href="http://www.dealii.org/developer/doxygen/deal.II/fe_2fe__values_8h.html.html" xlink:title=" ">
<polygon fill="none" stroke="black" points="705,-6 705,-25 824,-25 824,-6 705,-6"/>
<text text-anchor="middle" x="764.5" y="-13" font-family="Helvetica,sans-Serif" font-size="10.00">deal.II/fe/fe_values.h</text>
</a>
</g>
</g>
<!-- Node1&#45;&gt;Node7 -->
<g id="edge6" class="edge">
<title>Node1&#45;&gt;Node7</title>
<path fill="none" stroke="midnightblue" d="M1266.74,-77.7C1176.21,-71 989.81,-55.44 833.5,-31 826.35,-29.88 818.82,-28.51 811.47,-27.05"/>
<polygon fill="midnightblue" stroke="midnightblue" points="812.11,-23.61 801.61,-25.04 810.71,-30.47 812.11,-23.61"/>
</g>
<!-- Node8 -->
<g id="node8" class="node">
<title>Node8</title>
<g id="a_node8"><a xlink:href="http://www.dealii.org/developer/doxygen/deal.II/grid__generator_8h.html.html" xlink:title=" ">
<polygon fill="none" stroke="black" points="842.5,-6 842.5,-25 994.5,-25 994.5,-6 842.5,-6"/>
<text text-anchor="middle" x="918.5" y="-13" font-family="Helvetica,sans-Serif" font-size="10.00">deal.II/grid/grid_generator.h</text>
</a>
</g>
</g>
<!-- Node1&#45;&gt;Node8 -->
<g id="edge7" class="edge">
<title>Node1&#45;&gt;Node8</title>
<path fill="none" stroke="midnightblue" d="M1266.89,-73.02C1203.51,-63.14 1095.89,-46.22 1003.5,-31 995.22,-29.64 986.49,-28.17 977.9,-26.72"/>
<polygon fill="midnightblue" stroke="midnightblue" points="978.37,-23.25 967.93,-25.03 977.2,-30.15 978.37,-23.25"/>
</g>
<!-- Node9 -->
<g id="node9" class="node">
<title>Node9</title>
<g id="a_node9"><a xlink:href="http://www.dealii.org/developer/doxygen/deal.II/grid_2tria_8h.html.html" xlink:title=" ">
<polygon fill="none" stroke="black" points="1013,-6 1013,-25 1110,-25 1110,-6 1013,-6"/>
<text text-anchor="middle" x="1061.5" y="-13" font-family="Helvetica,sans-Serif" font-size="10.00">deal.II/grid/tria.h</text>
</a>
</g>
</g>
<!-- Node1&#45;&gt;Node9 -->
<g id="edge8" class="edge">
<title>Node1&#45;&gt;Node9</title>
<path fill="none" stroke="midnightblue" d="M1267,-67.87C1219.06,-55.89 1150.16,-38.67 1105.62,-27.53"/>
<polygon fill="midnightblue" stroke="midnightblue" points="1106.22,-24.07 1095.67,-25.04 1104.52,-30.86 1106.22,-24.07"/>
</g>
<!-- Node10 -->
<g id="node10" class="node">
<title>Node10</title>
<g id="a_node10"><a xlink:href="http://www.dealii.org/developer/doxygen/deal.II/dynamic__sparsity__pattern_8h.html.html" xlink:title=" ">
<polygon fill="none" stroke="black" points="1128.5,-0.5 1128.5,-30.5 1238.5,-30.5 1238.5,-0.5 1128.5,-0.5"/>
<text text-anchor="start" x="1136.5" y="-18.5" font-family="Helvetica,sans-Serif" font-size="10.00">deal.II/lac/dynamic</text>
<text text-anchor="middle" x="1183.5" y="-7.5" font-family="Helvetica,sans-Serif" font-size="10.00">_sparsity_pattern.h</text>
</a>
</g>
</g>
<!-- Node1&#45;&gt;Node10 -->
<g id="edge9" class="edge">
<title>Node1&#45;&gt;Node10</title>
<path fill="none" stroke="midnightblue" d="M1291.56,-67.4C1271.3,-57.86 1244.35,-45.16 1222.44,-34.84"/>
<polygon fill="midnightblue" stroke="midnightblue" points="1223.92,-31.67 1213.39,-30.58 1220.94,-38 1223.92,-31.67"/>
</g>
<!-- Node11 -->
<g id="node11" class="node">
<title>Node11</title>
<g id="a_node11"><a xlink:href="http://www.dealii.org/developer/doxygen/deal.II/full__matrix_8h.html.html" xlink:title=" ">
<polygon fill="none" stroke="black" points="1257,-6 1257,-25 1386,-25 1386,-6 1257,-6"/>
<text text-anchor="middle" x="1321.5" y="-13" font-family="Helvetica,sans-Serif" font-size="10.00">deal.II/lac/full_matrix.h</text>
</a>
</g>
</g>
<!-- Node1&#45;&gt;Node11 -->
<g id="edge10" class="edge">
<title>Node1&#45;&gt;Node11</title>
<path fill="none" stroke="midnightblue" d="M1321.5,-67.4C1321.5,-58.06 1321.5,-45.71 1321.5,-35.52"/>
<polygon fill="midnightblue" stroke="midnightblue" points="1325,-35.19 1321.5,-25.19 1318,-35.19 1325,-35.19"/>
</g>
<!-- Node12 -->
<g id="node12" class="node">
<title>Node12</title>
<g id="a_node12"><a xlink:href="http://www.dealii.org/developer/doxygen/deal.II/precondition_8h.html.html" xlink:title=" ">
<polygon fill="none" stroke="black" points="1404,-6 1404,-25 1541,-25 1541,-6 1404,-6"/>
<text text-anchor="middle" x="1472.5" y="-13" font-family="Helvetica,sans-Serif" font-size="10.00">deal.II/lac/precondition.h</text>
</a>
</g>
</g>
<!-- Node1&#45;&gt;Node12 -->
<g id="edge11" class="edge">
<title>Node1&#45;&gt;Node12</title>
<path fill="none" stroke="midnightblue" d="M1354.26,-67.4C1380.76,-55.99 1417.72,-40.08 1443.23,-29.1"/>
<polygon fill="midnightblue" stroke="midnightblue" points="1444.94,-32.18 1452.74,-25.01 1442.17,-25.75 1444.94,-32.18"/>
</g>
<!-- Node13 -->
<g id="node13" class="node">
<title>Node13</title>
<g id="a_node13"><a xlink:href="http://www.dealii.org/developer/doxygen/deal.II/solver__cg_8h.html.html" xlink:title=" ">
<polygon fill="none" stroke="black" points="1559.5,-6 1559.5,-25 1681.5,-25 1681.5,-6 1559.5,-6"/>
<text text-anchor="middle" x="1620.5" y="-13" font-family="Helvetica,sans-Serif" font-size="10.00">deal.II/lac/solver_cg.h</text>
</a>
</g>
</g>
<!-- Node1&#45;&gt;Node13 -->
<g id="edge12" class="edge">
<title>Node1&#45;&gt;Node13</title>
<path fill="none" stroke="midnightblue" d="M1376.34,-69.58C1432.09,-57.46 1517.68,-38.85 1571.3,-27.19"/>
<polygon fill="midnightblue" stroke="midnightblue" points="1572.23,-30.58 1581.26,-25.03 1570.74,-23.74 1572.23,-30.58"/>
</g>
<!-- Node14 -->
<g id="node14" class="node">
<title>Node14</title>
<g id="a_node14"><a xlink:href="http://www.dealii.org/developer/doxygen/deal.II/sparse__matrix_8h.html.html" xlink:title=" ">
<polygon fill="none" stroke="black" points="1700,-0.5 1700,-30.5 1799,-30.5 1799,-0.5 1700,-0.5"/>
<text text-anchor="start" x="1708" y="-18.5" font-family="Helvetica,sans-Serif" font-size="10.00">deal.II/lac/sparse</text>
<text text-anchor="middle" x="1749.5" y="-7.5" font-family="Helvetica,sans-Serif" font-size="10.00">_matrix.h</text>
</a>
</g>
</g>
<!-- Node1&#45;&gt;Node14 -->
<g id="edge13" class="edge">
<title>Node1&#45;&gt;Node14</title>
<path fill="none" stroke="midnightblue" d="M1376.19,-75.83C1446.5,-68.14 1572.54,-53 1689.82,-31"/>
<polygon fill="midnightblue" stroke="midnightblue" points="1690.51,-34.43 1699.69,-29.13 1689.21,-27.56 1690.51,-34.43"/>
</g>
<!-- Node15 -->
<g id="node15" class="node">
<title>Node15</title>
<g id="a_node15"><a xlink:href="http://www.dealii.org/developer/doxygen/deal.II/vector_8h.html.html" xlink:title=" ">
<polygon fill="none" stroke="black" points="1817,-6 1817,-25 1924,-25 1924,-6 1817,-6"/>
<text text-anchor="middle" x="1870.5" y="-13" font-family="Helvetica,sans-Serif" font-size="10.00">deal.II/lac/vector.h</text>
</a>
</g>
</g>
<!-- Node1&#45;&gt;Node15 -->
<g id="edge14" class="edge">
<title>Node1&#45;&gt;Node15</title>
<path fill="none" stroke="midnightblue" d="M1376.22,-78.09C1466.65,-71.95 1652.79,-57.17 1808.5,-31 1814.72,-29.95 1821.26,-28.65 1827.65,-27.26"/>
<polygon fill="midnightblue" stroke="midnightblue" points="1828.53,-30.65 1837.51,-25.03 1826.99,-23.82 1828.53,-30.65"/>
</g>
<!-- Node16 -->
<g id="node16" class="node">
<title>Node16</title>
<g id="a_node16"><a xlink:href="http://www.dealii.org/developer/doxygen/deal.II/numerics_2data__out_8h.html.html" xlink:title=" ">
<polygon fill="none" stroke="black" points="1942,-0.5 1942,-30.5 2061,-30.5 2061,-0.5 1942,-0.5"/>
<text text-anchor="start" x="1950" y="-18.5" font-family="Helvetica,sans-Serif" font-size="10.00">deal.II/numerics/data</text>
<text text-anchor="middle" x="2001.5" y="-7.5" font-family="Helvetica,sans-Serif" font-size="10.00">_out.h</text>
</a>
</g>
</g>
<!-- Node1&#45;&gt;Node16 -->
<g id="edge15" class="edge">
<title>Node1&#45;&gt;Node16</title>
<path fill="none" stroke="midnightblue" d="M1376.21,-79.33C1481.89,-74.64 1721.5,-61.51 1931.88,-31.12"/>
<polygon fill="midnightblue" stroke="midnightblue" points="1932.48,-34.57 1941.87,-29.66 1931.47,-27.65 1932.48,-34.57"/>
</g>
<!-- Node17 -->
<g id="node17" class="node">
<title>Node17</title>
<g id="a_node17"><a xlink:href="http://www.dealii.org/developer/doxygen/deal.II/matrix__tools_8h.html.html" xlink:title=" ">
<polygon fill="none" stroke="black" points="2079.5,-0.5 2079.5,-30.5 2209.5,-30.5 2209.5,-0.5 2079.5,-0.5"/>
<text text-anchor="start" x="2087.5" y="-18.5" font-family="Helvetica,sans-Serif" font-size="10.00">deal.II/numerics/matrix</text>
<text text-anchor="middle" x="2144.5" y="-7.5" font-family="Helvetica,sans-Serif" font-size="10.00">_tools.h</text>
</a>
</g>
</g>
<!-- Node1&#45;&gt;Node17 -->
<g id="edge16" class="edge">
<title>Node1&#45;&gt;Node17</title>
<path fill="none" stroke="midnightblue" d="M1376.24,-80.17C1498.7,-76.7 1804.17,-65.19 2069.01,-31.09"/>
<polygon fill="midnightblue" stroke="midnightblue" points="2069.74,-34.52 2079.2,-29.76 2068.84,-27.58 2069.74,-34.52"/>
</g>
<!-- Node18 -->
<g id="node18" class="node">
<title>Node18</title>
<g id="a_node18"><a xlink:href="http://www.dealii.org/developer/doxygen/deal.II/vector__tools_8h.html.html" xlink:title=" ">
<polygon fill="none" stroke="black" points="2227.5,-0.5 2227.5,-30.5 2355.5,-30.5 2355.5,-0.5 2227.5,-0.5"/>
<text text-anchor="start" x="2235.5" y="-18.5" font-family="Helvetica,sans-Serif" font-size="10.00">deal.II/numerics/vector</text>
<text text-anchor="middle" x="2291.5" y="-7.5" font-family="Helvetica,sans-Serif" font-size="10.00">_tools.h</text>
</a>
</g>
</g>
<!-- Node1&#45;&gt;Node18 -->
<g id="edge17" class="edge">
<title>Node1&#45;&gt;Node18</title>
<path fill="none" stroke="midnightblue" d="M1376.09,-81.08C1515,-79.44 1893.23,-71.42 2217.43,-31.01"/>
<polygon fill="midnightblue" stroke="midnightblue" points="2218,-34.46 2227.49,-29.74 2217.13,-27.52 2218,-34.46"/>
</g>
<!-- Node19 -->
<g id="node19" class="node">
<title>Node19</title>
<g id="a_node19"><a xlink:title=" ">
<polygon fill="none" stroke="#bfbfbf" points="2374,-6 2374,-25 2429,-25 2429,-6 2374,-6"/>
<text text-anchor="middle" x="2401.5" y="-13" font-family="Helvetica,sans-Serif" font-size="10.00">fstream</text>
</a>
</g>
</g>
<!-- Node1&#45;&gt;Node19 -->
<g id="edge18" class="edge">
<title>Node1&#45;&gt;Node19</title>
<path fill="none" stroke="midnightblue" d="M1376.24,-81.19C1562.85,-79.75 2173.16,-71.97 2364.5,-31 2367.51,-30.36 2370.59,-29.5 2373.63,-28.52"/>
<polygon fill="midnightblue" stroke="midnightblue" points="2374.84,-31.8 2383.04,-25.09 2372.45,-25.22 2374.84,-31.8"/>
</g>
<!-- Node20 -->
<g id="node20" class="node">
<title>Node20</title>
<g id="a_node20"><a xlink:title=" ">
<polygon fill="none" stroke="#bfbfbf" points="2447.5,-6 2447.5,-25 2507.5,-25 2507.5,-6 2447.5,-6"/>
<text text-anchor="middle" x="2477.5" y="-13" font-family="Helvetica,sans-Serif" font-size="10.00">iostream</text>
</a>
</g>
</g>
<!-- Node1&#45;&gt;Node20 -->
<g id="edge19" class="edge">
<title>Node1&#45;&gt;Node20</title>
<path fill="none" stroke="midnightblue" d="M1376.33,-81.27C1571.51,-80.09 2231.86,-73.01 2438.5,-31 2441.76,-30.34 2445.1,-29.45 2448.4,-28.43"/>
<polygon fill="midnightblue" stroke="midnightblue" points="2449.71,-31.68 2458.01,-25.1 2447.41,-25.06 2449.71,-31.68"/>
</g>
</g>
</svg>
